<svg xmlns="http://www.w3.org/2000/svg">
<defs>
<font id="HanleyPro-Script" horiz-adv-x="519" >
  <font-face 
    font-family="Hanley Pro Script"
    font-weight="400"
    font-stretch="normal"
    units-per-em="1000"
    panose-1="0 0 5 0 0 0 0 0 0 0"
    ascent="769"
    descent="-231"
    x-height="448"
    cap-height="771"
    bbox="-4366 -472 4592 1139"
    underline-thickness="50"
    underline-position="-100"
    unicode-range="U+0020-2265"
  />
<missing-glyph horiz-adv-x="1150" 
d="M569 728v3l1 4v3v3v4v3v3v3v4v3v1v6l1 3v3v4l1 1h3q2 0 3 -1h3h4h3h3q2 0 3 -1q2 0 3 -1q2 0 3 -1l2 -2l2 -2l2 -3q0 -2 1 -3v-2q0 -4 -1 -5q0 -2 -1 -3q0 -1 -2 -3q0 -1 -2 -3l-3 -2q0 -2 1 -3l2 -3q0 -2 1 -3l2 -3l1 -3l2 -2q0 -2 1 -3v-1h-4h-3h-4l-1 1l-2 3
q-1 1 -1 3l-2 3l-2 3l-1 3l-2 3h-5v-4q0 -1 -1 -3v-4v-3v-3q0 -1 -1 -1h-3h-3h-3zM514 747v4v3v3q0 2 1 3q0 2 1 3l1 3l2 3l2 2q2 2 3 2q2 2 3 2l3 1q2 0 3 1h3h3l3 -1l3 -1l2 -1q2 -2 3 -2v-1v-1l-2 -2l-1 -2l-2 -2q0 -1 -1 -1q-2 2 -3 2q-1 1 -3 1h-3l-4 -1l-2 -1
q-2 -2 -2 -3l-2 -3v-3v-3v-3v-3l1 -4l2 -2q0 -1 2 -3l2 -2l3 -1h4l3 1l3 2q2 2 2 3h1h1l2 -2l2 -1l2 -2h1v-1l-2 -3l-2 -2q-2 -2 -3 -2q-2 -2 -3 -2l-3 -1l-3 -1h-3h-4q-1 1 -3 1l-3 2l-3 1l-2 3q-2 0 -2 2q-2 2 -2 3l-2 3q0 2 -1 3v3q-1 1 -1 3zM617 726l2 3q1 1 1 3l2 3
l1 2l2 3l2 3q0 2 1 3l2 3q1 1 1 3l2 3q1 1 1 3l2 2l2 3q0 2 1 3l2 3q0 2 1 3l2 1l3 -1l3 -1h3l1 -1l1 -4v-3v-3l1 -3v-4l1 -3v-3v-3l1 -4v-3l1 -3v-3v-4q1 -1 1 -3v-3q0 -2 1 -3v-1h-1h-3l-3 1q-2 0 -3 1l-2 1v3v4l-1 4l-4 1l-3 1h-4l-1 1h-2h-1l-1 -4l-2 -3l-2 -3l-1 -1
q-2 0 -3 1h-3l-3 1q-1 0 -1 1zM581 759v-3v-1h3h3h3l3 1l3 3v3v3l-2 2l-3 1h-3h-3h-3h-1v-3v-3v-3zM455 754l-1 3l1 1l3 1q2 0 3 1q2 0 3 1q2 0 3 1h4q1 1 3 1h3h4q1 -1 3 -1l3 -2q1 0 3 -2l2 -2q2 -2 2 -3l2 -3l1 -3q1 -1 1 -3q1 -1 1 -3l1 -3v-4v-3l-1 -4l-1 -3l-2 -3
l-2 -2l-2 -2q-2 -2 -3 -2l-3 -2l-3 -1l-4 -1l-3 -1q-2 0 -3 -1l-3 -1l-2 1q0 2 -1 3q0 2 -1 3l-1 4v3q-1 1 -1 3q-1 1 -1 3l-1 3l-1 3l-1 4q-1 1 -1 3q-1 1 -1 3l-1 3q0 2 -1 3zM672 714l1 3l1 3l1 3l1 4l2 3l1 3l1 3q0 2 1 3q0 2 1 3l1 3l1 3l1 4q1 1 1 3q1 1 1 3l2 3

<glyph glyph-name="B_j.liga" unicode="Bj" horiz-adv-x="1264" 
d="M445 73q-4 8 -4 19t6.5 18t16.5 7q14 0 27 -12q47 -46 114 -46q70 0 114 46t44 115q0 53 -30 110q-3 3 -4 2q-36 -9 -63 -9q-46 0 -73 21.5t-27 54.5q0 29 21 50.5t55 21.5q47 0 111 -44q3 -1 6 0q61 59 61 128q0 62 -48 105.5t-125 43.5q-73 0 -146.5 -40.5
t-132.5 -116.5q-11 -14 -25 -14q-9 0 -15.5 7t-6.5 18t5 21q45 89 141.5 141t200.5 52q117 0 188 -60.5t71 -147.5q0 -53 -29.5 -103t-79.5 -86q-2 -3 -1 -4q65 -71 65 -162q0 -97 -70.5 -170.5t-175.5 -73.5q-64 0 -116 29t-75 79zM0 145q0 68 52 118.5t122 50.5
q33 0 33 -25q0 -10 -8 -19t-20 -11q-46 -9 -71.5 -35t-25.5 -58q0 -31 20.5 -51.5t52.5 -20.5q93 0 191 173q33 62 62 122q61 128 103 192t90 92q13 7 21 7q13 0 13 -14q0 -11 -7 -24q-33 -72 -51 -117l-40 -106l-32 -87q-9 -24 -40 -87q-127 -249 -302 -249q-73 0 -118 43
t-45 106zM1154 579q0 25 17 42t42 17t42 -17t17 -42t-17 -42t-42 -17t-42 17t-17 42zM666 -140q0 46 33 78q52 48 171 76l28 8q7 1 7 5l108 241q60 132 71 156q12 27 40 27h63q11 0 16 -8.5t1 -18.5l-167 -372q0 -2 0.5 -2.5t1.5 0.5q52 13 80 28q75 38 139 148q8 14 22 14
q10 0 18.5 -8.5t8.5 -22.5q0 -16 -10 -32q-37 -64 -68.5 -100t-77.5 -62q-48 -26 -148 -50q-5 0 -6 -3q-41 -92 -90 -140q-49 -49 -136 -49q-48 0 -76.5 24t-28.5 63zM685 386q2 1 2.5 2.5t-0.5 2.5q-23 26 -46 26q-21 0 -21 -19t28 -19q17 0 37 7zM867 -64q1 1 0 2t-2 1
q-12 -3 -30 -6l-23 -5q-48 -12 -70 -34q-16 -15 -16 -32q0 -13 9 -21t25 -8q61 0 107 103z" />
    <glyph glyph-name="E_f.liga" unicode="Ef" horiz-adv-x="817" 
d="M328 -208l2 8l99 221q-71 -53 -172 -53q-122 0 -189.5 73.5t-67.5 180.5q0 92 50 168.5t137 102.5q3 1 3 4q-1 5 -1 20q-2 96 73 177.5t176 78.5q83 0 122 -45t39 -107q0 -25 -6 -48q-7 -34 -33 -34q-13 0 -22 11.5t-6 26.5t3 30q0 39 -21.5 61.5t-59.5 22.5
q-55 0 -106 -48.5t-72 -137.5q0 -3 2 -3q110 -12 110 -81q0 -15 -8 -33q-19 -40 -67 -40q-28 0 -53.5 17t-40.5 46q-1 4 -5 2q-45 -31 -73 -85q-28 -53 -28 -107q0 -65 42.5 -104t123.5 -39q73 -2 140 48.5t91 94.5l3 3q-2 10 -2 22q0 38 17.5 68t45.5 42q2 0 5 4
q39 100 90 192t106 153.5t95 59.5q12 0 23 -6q28 -15 28 -56q0 -43 -28 -92q-33 -63 -158 -210l-36 -43q-3 -3 -4 -6l-70 -157q-1 -1 1 -6q28 -40 85 -40q55 0 100 77q9 14 23 14q10 0 18 -8.5t8 -22.5t-9 -32q-53 -96 -151 -96q-59 0 -109 29q-1 1 -2.5 0t-1.5 -2
l-137 -308q-12 -27 -41 -27h-62q-19 0 -19 19zM839 638q11 20 18 40t1 20q-8 0 -37 -41q-27 -41 -65 -131q0 -1 1 -1.5t2 0.5q61 77 80 113zM328 420q0 12 -17 18q-12 4 -23 4l-13 -1q-3 -3 -2 -4q10 -19 26 -26q7 -4 13 -4q16 0 16 13z" />
    <glyph glyph-name="E_j.liga" unicode="Ej" horiz-adv-x="783" 
d="M185 -140q0 63 71 107q-120 0 -188 73.5t-68 180.5q0 92 50 168.5t137 102.5q3 2 3 4q-1 5 -1 20q-2 96 73 177.5t176 78.5q83 0 122 -45t39 -107q0 -26 -6 -48q-7 -34 -33 -34q-13 0 -22 11.5t-6 26.5t3 30q0 39 -21.5 61.5t-59.5 22.5q-55 0 -106 -48.5t-72 -137.5
q0 -3 2 -3q110 -12 110 -81q0 -15 -8 -33q-19 -40 -67 -40q-28 0 -53.5 17t-40.5 46q-1 4 -5 2q-45 -31 -73 -85q-28 -53 -28 -107q0 -65 42.5 -104t123.5 -39q73 -2 140 48.5t91 94.5q2 2 2 3l91 201q12 27 40 27h63q11 0 16 -8.5t1 -18.5l-77 -170q-41 -93 -90 -202
q0 -1 0.5 -2t1.5 0q52 12 80 28q73 34 139 148q8 14 22 14q12 0 19.5 -8.5t7.5 -22.5q0 -16 -10 -32q-37 -64 -68.5 -100t-77.5 -62q-48 -26 -148 -50q-4 0 -6 -3q-42 -98 -93 -143.5t-132 -45.5q-49 0 -77.5 24t-28.5 63zM673 579q0 25 17.5 42t41.5 17q25 0 42.5 -17
t17.5 -42t-17.5 -42t-42.5 -17q-24 0 -41.5 17t-17.5 42zM328 419q0 12 -17 18q-12 4 -23 4l-13 -1q-3 -3 -2 -4q10 -19 26 -26q7 -4 13 -4q16 0 16 13zM386 -64q2 3 -2 3q-12 -3 -30 -6l-23 -5q-48 -12 -70 -34q-16 -16 -16 -32q0 -13 9.5 -21t24.5 -8q61 0 107 103z" />
    <glyph glyph-name="E_p.liga" unicode="Ep" horiz-adv-x="1052" 
d="M322 -208q0 6 1 8l95 213q-70 -45 -161 -45q-122 0 -189.5 73.5t-67.5 180.5q0 92 50 168.5t137 102.5q3 1 3 4q-1 5 -1 20q-2 96 73 177.5t176 78.5q83 0 122 -45t39 -107q0 -25 -6 -48q-7 -34 -33 -34q-13 0 -22 11.5t-6 26.5t3 30q0 39 -21.5 61.5t-59.5 22.5
q-55 0 -106 -48.5t-72 -137.5q0 -3 2 -3q110 -12 110 -81q0 -15 -8 -33q-19 -40 -67 -40q-28 0 -53.5 17t-40.5 46q-1 4 -5 2q-45 -31 -73 -85q-28 -53 -28 -107q0 -65 42.5 -104t123.5 -39q72 -1 137.5 47t91.5 93l92 205q12 28 40 28h63q10 0 15.5 -8.5t1.5 -18.5
q-2 -2 -7 -15l1 -1q52 43 102 43q91 0 115 -90q6 -23 6 -48q0 -47 -19 -103q-12 -28 -21 -47q-1 -1 1 -4q21 -10 48 -10q55 0 100 77q9 14 22 14q12 0 19.5 -8.5t7.5 -22.5q0 -16 -10 -32q-53 -96 -150 -96q-41 0 -78 17q-1 1 -6 -1q-39 -47 -89 -73t-97 -26q-71 0 -109 49
q-2 1 -4 -1l-109 -246q-12 -27 -41 -27h-62q-18 0 -18 19zM328 420q0 12 -17 18q-12 4 -23 4l-13 -1q-3 -3 -2 -4q10 -19 26 -26q7 -4 13 -4q16 0 16 13zM789 171q1 1 1 5q-8 22 -8 47q0 33 14 58t39 35q2 0 3 1.5t0 2.5q-5 41 -41 41q-47 0 -99 -52q-51 -51 -80 -116
q-18 -41 -18 -67q0 -40 43 -40q81 0 146 85z" />
    <glyph glyph-name="I_t.liga" unicode="It" horiz-adv-x="891" 
d="M102 5q-48 16 -75 53.5t-27 86.5q0 68 52 118.5t122 50.5q33 0 33 -25q0 -10 -8 -19t-20 -11q-46 -9 -71.5 -35t-25.5 -58q0 -31 20.5 -51.5t52.5 -20.5q94 0 191 175l42 83q88 181 146 263q2 2 0 4q-24 15 -29 19q-45 29 -67 39t-44 10q-20 0 -32.5 -13t-12.5 -32
q0 -27 22 -43q14 -11 14 -25q0 -10 -8 -17t-19 -7q-8 0 -15 4q-61 28 -61 94q0 47 34.5 85t84.5 38q33 0 62.5 -15t74.5 -50l40 -30q3 -1 5 1q47 51 87 66q18 6 33 6q31 0 51.5 -20.5t20.5 -50.5q0 -48 -50 -75q-37 -22 -91 -19q-14 0 -27 3q-3 0 -5 -3q-17 -31 -57 -139
q-43 -122 -81 -205q-49 -104 -107 -162.5t-136 -75.5q-27 -6 -58 -6q-33 0 -61 9zM577 103q0 18 8 44q18 53 172 399q1 1 0 2.5t-2 1.5h-8q-10 0 -15 8t-1 16q11 23 36 25h10q3 0 5 3l47 105q12 27 41 27h63q10 0 16 -8.5t1 -17.5l-44 -98q-1 -1 0 -2.5t2 -1.5l54 3
q18 1 28.5 -8t10.5 -24t-10.5 -24.5t-28.5 -8.5l-81 2q-3 0 -5 -3l-15 -34l-17 -38q-118 -258 -141 -323q-8 -21 -8 -35q0 -31 31 -31q46 0 91 50q36 38 68 94q8 14 22 14q12 0 19.5 -8.5t7.5 -22.5q0 -16 -10 -32q-68 -117 -130 -154q-41 -23 -92 -23q-57 0 -91 28.5
t-34 74.5zM714 683q-5 8 -13 8q-26 0 -57 -41q-1 -1 -0.5 -2t1.5 -1q4 -1 17 -1q26 0 42 13t10 24z" />
    <glyph glyph-name="S_f.liga" unicode="Sf" horiz-adv-x="887" 
d="M0 157q0 80 53 137.5t129 57.5q15 0 24 -7t9 -17t-8 -19t-20 -11q-55 -11 -86.5 -47.5t-31.5 -83.5q0 -56 40 -88.5t102 -32.5q73 0 129.5 44t56.5 115q0 43 -22.5 79.5t-74.5 89.5q-33 33 -63 67q-55 68 -55 141q0 78 58.5 134t156.5 56q88 0 136.5 -47.5t48.5 -116.5
q0 -66 -41 -109q-10 -10 -22 -10t-21 8.5t-9 21.5q0 10 7 20q23 28 23 59q0 38 -30.5 65t-77.5 27t-81.5 -26.5t-34.5 -67.5q0 -2 2 -20q4 -22 21 -44.5t57 -62.5q43 -47 39 -42q100 -110 100 -224q2 -109 -83.5 -176.5t-195.5 -65.5q-99 0 -167 52t-68 144zM398 -208
q0 4 2 8l183 409q1 1 1 7q-4 16 -4 30q0 38 18 68t46 42q2 0 5 4q39 100 90 192t106 153.5t94 59.5q12 0 24 -6q28 -16 28 -56t-28 -92q-32 -59 -159 -210q-4 -6 -16 -20t-19 -23q-3 -3 -4 -6q-11 -23 -70 -157q-2 -3 1 -6q28 -40 84 -40t101 77q9 14 22 14q12 0 19.5 -8.5
t7.5 -22.5q0 -16 -10 -32q-53 -96 -150 -96q-60 0 -109 29q-4 2 -5 -2l-136 -308q-14 -27 -41 -27h-63q-18 0 -18 19zM909 638q11 20 17.5 40t0.5 20q-7 0 -36 -41q-27 -41 -65 -131q-1 -2 0.5 -2t2.5 1q51 62 80 113z" />
    <glyph glyph-name="S_j.liga" unicode="Sj" horiz-adv-x="911" 
d="M0 157q0 80 53 137.5t129 57.5q15 0 24 -7t9 -17t-8 -19t-20 -11q-55 -11 -86.5 -47.5t-31.5 -83.5q0 -56 40 -88.5t102 -32.5q73 0 129.5 44t56.5 115q0 43 -22.5 79.5t-74.5 89.5q-33 33 -63 67q-55 68 -55 141q0 78 58.5 134t156.5 56q88 0 136.5 -47.5t48.5 -116.5
q0 -66 -41 -109q-10 -10 -22 -10t-21 8.5t-9 21.5q0 10 7 20q23 28 23 59q0 38 -30.5 65t-77.5 27t-81.5 -26.5t-34.5 -67.5q0 -2 2 -20q4 -22 21 -44.5t57 -62.5q43 -47 39 -42q100 -110 100 -224q2 -109 -83.5 -176.5t-195.5 -65.5q-99 0 -167 52t-68 144zM801 579
q0 25 17.5 42t41.5 17q25 0 42.5 -17t17.5 -42t-17.5 -42t-42.5 -17q-24 0 -41.5 17t-17.5 42zM313 -140q0 46 33 78q30 28 68 43.5t103 32.5l14 4t11 3l3 1q7 2 8 5l108 242l70 155q12 27 41 27h62q11 0 16 -8.5t1 -18.5l-77 -170q-41 -93 -90 -202q0 -1 0.5 -2t1.5 0
q53 12 81 28q72 36 138 148q8 14 22 14q12 0 19.5 -8.5t7.5 -22.5q0 -16 -10 -32q-37 -64 -68.5 -100t-77.5 -62q-48 -26 -148 -50q-5 0 -5 -3q-40 -91 -91 -140q-49 -49 -135 -49q-49 0 -77.5 24t-28.5 63zM514 -64q2 3 -2 3q-12 -3 -30 -6l-23 -5q-48 -12 -70 -34
q-16 -16 -16 -32q0 -13 9.5 -21t24.5 -8q61 0 107 103z" />
    <glyph glyph-name="S_p.liga" unicode="Sp" horiz-adv-x="1128" 
d="M0 157q0 80 53 137.5t129 57.5q15 0 24 -7t9 -17t-8 -19t-20 -11q-55 -11 -86.5 -47.5t-31.5 -83.5q0 -56 40 -88.5t102 -32.5q73 0 129.5 44t56.5 115q0 43 -22.5 79.5t-74.5 89.5q-33 33 -63 67q-55 68 -55 141q0 78 58.5 134t156.5 56q88 0 136.5 -47.5t48.5 -116.5
q0 -66 -41 -109q-10 -10 -22 -10t-21 8.5t-9 21.5q0 10 7 20q23 28 23 59q0 38 -30.5 65t-77.5 27t-81.5 -26.5t-34.5 -67.5q0 -2 2 -20q4 -22 21 -44.5t57 -62.5q43 -47 39 -42q100 -110 100 -224q2 -109 -83.5 -176.5t-195.5 -65.5q-99 0 -167 52t-68 144zM398 -208
q0 6 1 8l277 623q12 28 40 28h63q10 0 15.5 -8.5t1.5 -18.5l-7 -15q0 -1 2 -1q52 43 101 43q91 0 115 -90q6 -23 6 -48q0 -47 -19 -103q-12 -28 -21 -47q-1 -1 1 -4q21 -10 48 -10q55 0 100 77q9 14 22 14q12 0 19.5 -8.5t7.5 -22.5q0 -16 -10 -32q-53 -96 -150 -96
q-41 0 -78 17q-3 1 -5 -1q-41 -47 -90.5 -73t-95.5 -26q-74 0 -110 49q-2 1 -4 -1l-109 -246q-12 -27 -41 -27h-62q-18 0 -18 19zM865 171q1 1 1 5q-8 27 -8 47q0 33 14 58t39 35q2 0 3 1.5t0 2.5q-5 41 -41 41q-47 0 -99 -52q-51 -51 -80 -116q-18 -41 -18 -67
q0 -40 43 -40q81 0 146 85z" />
    <glyph glyph-name="T_h.liga" unicode="Th" horiz-adv-x="1115" 
d="M0 148q0 69 52 119t122 50q15 0 24 -7t9 -17t-8 -19t-20 -11q-46 -9 -71.5 -35t-25.5 -58q0 -31 20.5 -52t52.5 -21q79 0 160 122q21 34 82 162q39 82 64 131t59 98l-61 24q-126 52 -195 52q-58 0 -114 -27q-55 -25 -69 -79q-5 -22 -5 -35q0 -37 23 -59.5t56 -22.5
q42 0 62 33q11 18 28 18q10 0 17 -7.5t7 -18.5q0 -6 -3 -14q-32 -71 -111 -71q-55 0 -97 39.5t-42 102.5q0 32 10 63q26 78 94 122q70 45 159 45q69 0 128 -21q52 -17 135 -58q60 -29 85 -39q48 -18 89 -18q68 0 115 54q61 76 107 76q12 0 26 -6q28 -16 28 -56t-28 -93
q-30 -55 -120 -163q-1 -1 -1 -2.5t2 -0.5q18 6 41 6q49 0 79.5 -29t30.5 -81q0 -40 -18 -86l-17 -43q-26 -60 -35 -88q-3 -8 -3 -13q0 -13 10 -20.5t25 -7.5q18 0 34 9q56 30 117 135q9 14 22 14q11 0 19 -9t8 -23q0 -13 -10 -32q-14 -26 -33 -56q-80 -119 -182 -120h-4
q-53 0 -85.5 27.5t-32.5 75.5q0 23 11 59q20 54 41 102l16 39q11 27 11 43q0 29 -29 29q-46 0 -90 -53q-43 -52 -69 -114l-81 -181q-12 -27 -41 -27h-62q-10 0 -15.5 8.5t-1.5 17.5l146 330q57 130 109 220q-28 -6 -63 -6q-44 0 -88 10h-1q-29 -54 -69 -163
q-30 -77 -51 -126q-16 -39 -46 -94q-117 -201 -274 -201q-73 0 -118.5 43t-45.5 105zM910 642q11 20 17.5 40t0.5 20q-7 0 -36 -41q-35 -55 -65 -131q-1 -2 0.5 -2t2.5 1q51 62 80 113z" />
    <glyph glyph-name="T_i.liga" unicode="Ti" horiz-adv-x="858" 
d="M0 145q0 68 52 118.5t122 50.5q33 0 33 -25q0 -10 -8 -19t-20 -11q-46 -9 -71.5 -35t-25.5 -58q0 -31 20.5 -51.5t52.5 -20.5q79 0 160 121q21 34 82 162q74 158 121 226q2 4 -2 5l-57 22q-126 52 -195 52q-58 0 -114 -27q-56 -25 -69 -78q-5 -25 -5 -36q0 -37 23 -59
t56 -22q42 0 62 32q11 18 28 18q10 0 17 -7.5t7 -17.5q0 -7 -3 -15q-31 -70 -111 -70q-55 0 -97 39t-42 102q0 32 10 63q24 77 93 122q70 46 160 46q69 0 128 -21q52 -17 135 -58l40 -20q79 -37 136 -37q18 0 53 5q3 1 3 5q-2 10 -2 14q0 27 17 42.5t42 15.5t42.5 -15.5
t17.5 -42.5q0 -35 -40 -57q-56 -33 -155 -33q-44 0 -90 10q-2 0 -4 -2q-33 -64 -67 -161q-30 -77 -51 -126q-16 -39 -46 -94q-117 -201 -274 -201q-73 0 -118.5 43t-45.5 106zM552 104q0 22 8 43q21 59 40 103l77 174q12 27 41 27h62q11 0 16 -8.5t1 -18.5
q-97 -220 -120 -276q-11 -26 -11 -37q0 -13 12 -21q7 -7 24 -7q19 0 34 9q58 31 117 134q8 14 22 14q10 0 18 -8.5t8 -22.5q0 -17 -9 -32l-34 -57q-82 -120 -184 -120q-57 0 -89.5 29t-32.5 75z" />
    <glyph glyph-name="Z_y.liga" unicode="Zy" horiz-adv-x="1229" 
d="M295 72q-1 2 -6 0q-88 -76 -162 -76q-58 0 -92.5 33t-34.5 81t36 81.5t97 33.5q50 0 119 -29q3 -2 6 1l38 43q86 97 151 168l15 16q128 138 188 198q1 1 0.5 2t-1.5 1q-65 24 -140 42q-72 19 -130 19q-99 0 -99 -64q0 -23 17.5 -39t39.5 -16q14 0 28 8q10 7 20 7
q11 0 18.5 -7t7.5 -17q0 -17 -19 -30q-30 -21 -67 -21q-50 0 -87.5 33.5t-37.5 87.5q0 66 49 105t123 39q61 0 135.5 -23t190.5 -76q1 -1 6 1q58 52 101 67q21 8 43 8q35 0 56.5 -20.5t21.5 -50.5q0 -48 -54 -76q-29 -16 -72 -16q-28 0 -53 7q-4 0 -6 -2
q-155 -197 -211 -264q-106 -124 -168 -187q-1 -1 1 -4l23 -13q87 -53 137 -74.5t95 -18.5q14 1 23 -8t9 -22q0 -28 -33 -30q-62 -3 -119 11t-100 34q-52 27 -103 57zM848 654q19 10 19 23q0 11 -15 11q-12 0 -22 -6q-26 -14 -42 -33q-3 -3 3 -3q32 -3 57 8zM703 -224
q-34 8 -53 31t-19 54q0 15 4 26q11 40 47 65.5t99 44.5q4 0 2 2q-1 1 -2 1q-53 2 -84 31t-31 73q0 19 8 43q21 57 40 102q45 104 77 175q12 27 41 27h63q10 0 15.5 -8.5t1.5 -17.5q-96 -214 -120 -277q-8 -18 -8 -35q0 -31 30 -31q23 0 53 21q26 18 45 41t28.5 40.5
t21.5 46.5l87 193q12 27 40 27h63q19 0 19 -19q0 -2 -2 -8l-167 -372q0 -2 2 -2q48 11 81 28q72 36 138 148q8 14 22 14q12 0 19.5 -8.5t7.5 -22.5q0 -16 -10 -32q-37 -64 -68.5 -100t-77.5 -62q-48 -26 -148 -50q-5 0 -5 -3q-39 -88 -82 -132.5t-109 -53.5q-14 -3 -39 -3
q-17 0 -30 3zM192 126q1 4 -1 4q-39 19 -71 19q-27 0 -42.5 -12t-15.5 -29q0 -13 10 -22t27 -9q41 0 93 49zM832 -64q1 1 0 2t-2 1q-88 -16 -114 -37q-25 -19 -25 -40q0 -12 9.5 -20.5t24.5 -8.5q62 0 107 103z" />
    <glyph glyph-name="o_x.liga" unicode="ox" horiz-adv-x="1063" 
d="M-15 164q0 64 37 128q38 68 104 116q65 47 136 47q66 0 107 -44.5t41 -114.5q0 -66 -37 -136q0 -2 2 -4q18 -6 35 -6q39 0 70 31t65 97l31 60l29 59q27 52 57 52h51q29 0 37 -26l34 -122q1 -2 2 -2.5t2 0.5l122 130q20 20 47 20h77q10 0 10 -11q0 -5 -3 -8l-229 -215
l-2 -6q6 -19 9 -31q16 -49 33.5 -71.5t49.5 -22.5q41 0 82 43q35 35 73 99q8 14 22 14q12 0 19.5 -8.5t7.5 -22.5q0 -13 -10 -32q-16 -30 -33 -55q-81 -120 -178 -120q-66 0 -102 31t-59 95q0 1 -1.5 1.5t-2.5 -0.5l-119 -113q-17 -14 -31 -14q-12 0 -20 7t-8 18t11 22
l144 154q2 2 2 7q-28 87 -42 140q-1 3 -4 3t-5 -3q-7 -12 -28 -54q-3 -7 -32 -62q-43 -80 -89.5 -120.5t-104.5 -40.5q-33 0 -66 13q-3 2 -6 -1q-76 -89 -172 -89q-72 0 -119 47q-46 47 -46 121zM267 126q5 2 0 6q-23 29 -33 58q-13 36 -13 76q0 76 46 111q3 3 1 3q0 1 -2 0
q-55 -3 -101 -48t-64 -123q-5 -25 -5 -38q0 -39 22 -62t56 -23q50 0 93 40zM327 204q22 45 22 89q0 10 -1 13q-5 23 -18 23q-8 0 -15 -8.5t-9 -21.5q-1 -5 -1 -21q0 -41 19 -75q1 -1 2 -0.5t1 1.5z" />
    <glyph glyph-name="t_b.liga" unicode="tb" horiz-adv-x="762" 
d="M-46 103q0 18 8 44q13 38 82 194l90 205q1 1 0 2.5t-2 1.5l-50 1q-20 2 -20 22q0 9 6 15.5t14 6.5l72 4q4 0 5 3l47 105q12 27 41 27h63q10 0 16 -8.5t1 -17.5q-12 -28 -44 -98q-1 -1 0 -2.5t2 -1.5l54 3q18 1 28.5 -8t10.5 -24t-10.5 -24.5t-28.5 -8.5l-81 2q-4 0 -5 -3
l-15 -34l-16 -36l-92 -206q-35 -77 -50 -119q-8 -21 -8 -35q0 -32 33 -32q38 0 83 36q47 38 96 109q6 34 22 81q35 101 92 211q56 105 116 177q60 70 105 70q12 0 24 -6q28 -16 28 -56t-28 -92q-32 -59 -159 -210l-43 -52q-3 -3 -4 -6q-5 -13 -10 -25.5l-8 -20t-5 -13
t-2.5 -7t-0.5 -0.5q-27 -75 -27 -122q0 -66 47 -66q16 0 34 9q23 10 47 31q2 3 0 5q-21 25 -34 59q-13 36 -13 77q0 80 51 115q22 16 53 16q58 0 77 -50v-3q10 -20 10 -51q0 -63 -37 -134q-2 -2 1 -4q15 -5 32 -5q57 0 108 82q9 14 23 14q10 0 17.5 -8t7.5 -22
q0 -20 -15 -43q-61 -101 -157 -101q-30 0 -63 12q-3 2 -6 -1q-34 -40 -77 -63.5t-85 -23.5q-55 0 -87 31.5t-38 87.5l-30 -37q-76 -82 -171 -82q-57 0 -91 28.5t-34 74.5zM589 638q11 20 17.5 40t0.5 20q-7 0 -36 -41q-34 -51 -65 -131q-1 -2 0.5 -2t2.5 1q51 62 80 113z
M573 207q21 49 21 90q0 11 -1 14q-4 22 -18 22q-8 0 -15 -8.5t-9 -21.5q-1 -5 -1 -21q0 -42 19 -76q2 -2 4 1z" />
    <glyph glyph-name="t_h.liga" unicode="th" horiz-adv-x="809" 
d="M-46 103q0 18 8 44q13 38 82 194l90 205q1 1 0 2.5t-2 1.5l-50 1q-20 2 -20 22q0 9 6 15.5t14 6.5l72 4q4 0 5 3l47 105q12 27 41 27h63q10 0 16 -8.5t1 -17.5q-12 -28 -44 -98q-1 -1 0 -2.5t2 -1.5l54 3q18 1 28.5 -8t10.5 -24t-10.5 -24.5t-28.5 -8.5l-81 2q-4 0 -5 -3
l-15 -34l-16 -36l-92 -206q-35 -77 -50 -119q-8 -21 -8 -35q0 -32 33 -32t75 30q48 35 103 113l58 132q63 145 144 278q80 131 147 131q14 0 26 -6q28 -15 28 -56q0 -43 -28 -92q-29 -55 -120 -164q-2 -3 1 -3q19 6 41 6q49 0 79.5 -29t30.5 -81q0 -38 -17 -86l-18 -43
q-32 -80 -35 -88q-2 -6 -2 -12q0 -13 10 -21t25 -8q18 0 34 10q58 31 117 134q8 14 22 14q10 0 18 -8.5t8 -22.5t-9 -32l-34 -57q-80 -119 -182 -120h-4q-53 0 -85.5 28t-32.5 76q0 22 11 58q20 54 41 102l16 39q11 27 11 44q0 28 -28 28q-46 0 -90 -53q-42 -51 -70 -113
q-78 -176 -80 -182q-14 -27 -41 -27h-62q-10 0 -16 8.5t-2 17.5l6 13q-55 -39 -122 -39q-57 0 -91 28.5t-34 74.5zM604 638q11 20 17.5 40t0.5 20q-7 0 -36 -41q-27 -41 -65 -131q-1 -2 0.5 -2t2.5 1q51 62 80 113z" />
    <glyph glyph-name="t_l.liga" unicode="tl" horiz-adv-x="583" 
d="M-46 103q0 18 8 44q13 38 82 194l90 205q1 1 0 2.5t-2 1.5l-50 1q-20 2 -20 22q0 9 6 15.5t14 6.5l72 4q4 0 5 3l47 105q12 27 41 27h63q10 0 16 -8.5t1 -17.5q-12 -28 -44 -98q-1 -1 0 -2.5t2 -1.5l54 3q18 1 28.5 -8t10.5 -24t-10.5 -24.5t-28.5 -8.5l-81 2q-4 0 -5 -3
l-15 -34q-13 -29 -17 -36q-105 -232 -141 -325q-8 -21 -8 -35q0 -32 33 -32q38 0 78 32q50 38 101 113q9 39 22 81q37 106 91 210q54 103 115 177q59 71 104 71q12 0 24 -6q28 -15 28 -56q0 -43 -28 -92q-21 -39 -57 -85q-33 -44 -101 -125l-44 -52q-3 -3 -4 -6
q-5 -13 -10 -25.5l-8 -20t-5 -13t-2.5 -7t-0.5 -0.5q-26 -72 -26 -123q0 -72 46 -72q17 0 33 10q58 31 117 134q8 14 22 14q10 0 18 -8.5t8 -22.5t-9 -32l-34 -57q-82 -120 -182 -120q-54 0 -85 31t-37 87l-29 -36q-76 -82 -171 -82q-57 0 -91 28.5t-34 74.5zM586 638
q11 20 17.5 40t0.5 20q-7 0 -36 -41q-27 -41 -65 -131q-1 -2 0.5 -2t2.5 1q51 62 80 113z" />
    <glyph glyph-name="t_t.liga" unicode="tt" horiz-adv-x="536" 
d="M22 9q-68 25 -68 95q0 19 8 43q20 59 172 400q1 1 0 2t-2 1l-50 1q-21 2 -21 22q0 9 6.5 15.5t14.5 6.5l71 2q3 0 5 3l48 107q14 27 41 27h63q10 0 16 -8.5t1 -17.5l-47 -105q0 -3 3 -3l142 4q3 0 5 3l45 100q12 27 41 27h63q10 0 15.5 -8.5t1.5 -17.5l-44 -98
q-2 -2 2 -2l53 1q18 1 28.5 -8t10.5 -24t-10.5 -24.5t-28.5 -8.5l-81 1q-4 0 -5 -3q-155 -347 -173 -394q-7 -18 -7 -35q0 -31 31 -31q46 0 91 50q36 38 68 94q8 14 22 14q12 0 19.5 -8.5t7.5 -22.5q0 -16 -10 -32q-68 -117 -130 -154q-41 -23 -92 -23q-36 0 -58 9
q-47 17 -61 59q-1 3 -4 0q-24 -27 -54 -45q-40 -23 -91 -23q-36 0 -58 9zM194 132q37 39 68 93q51 120 140 319q0 3 -3 3l-140 2q-4 0 -5 -4q-152 -339 -174 -397q-8 -21 -8 -35q0 -31 32 -31q45 0 90 50z" />
    <glyph glyph-name=".notdef" horiz-adv-x="1150" 
d="M569 728v3l1 4v3v3v4v3v3v3v4v3v1v6l1 3v3v4l1 1h3q2 0 3 -1h3h4h3h3q2 0 3 -1q2 0 3 -1q2 0 3 -1l2 -2l2 -2l2 -3q0 -2 1 -3v-2q0 -4 -1 -5q0 -2 -1 -3q0 -1 -2 -3q0 -1 -2 -3l-3 -2q0 -2 1 -3l2 -3q0 -2 1 -3l2 -3l1 -3l2 -2q0 -2 1 -3v-1h-4h-3h-4l-1 1l-2 3
q-1 1 -1 3l-2 3l-2 3l-1 3l-2 3h-5v-4q0 -1 -1 -3v-4v-3v-3q0 -1 -1 -1h-3h-3h-3zM514 747v4v3v3q0 2 1 3q0 2 1 3l1 3l2 3l2 2q2 2 3 2q2 2 3 2l3 1q2 0 3 1h3h3l3 -1l3 -1l2 -1q2 -2 3 -2v-1v-1l-2 -2l-1 -2l-2 -2q0 -1 -1 -1q-2 2 -3 2q-1 1 -3 1h-3l-4 -1l-2 -1
q-2 -2 -2 -3l-2 -3v-3v-3v-3v-3l1 -4l2 -2q0 -1 2 -3l2 -2l3 -1h4l3 1l3 2q2 2 2 3h1h1l2 -2l2 -1l2 -2h1v-1l-2 -3l-2 -2q-2 -2 -3 -2q-2 -2 -3 -2l-3 -1l-3 -1h-3h-4q-1 1 -3 1l-3 2l-3 1l-2 3q-2 0 -2 2q-2 2 -2 3l-2 3q0 2 -1 3v3q-1 1 -1 3zM617 726l2 3q1 1 1 3l2 3
l1 2l2 3l2 3q0 2 1 3l2 3q1 1 1 3l2 3q1 1 1 3l2 2l2 3q0 2 1 3l2 3q0 2 1 3l2 1l3 -1l3 -1h3l1 -1l1 -4v-3v-3l1 -3v-4l1 -3v-3v-3l1 -4v-3l1 -3v-3v-4q1 -1 1 -3v-3q0 -2 1 -3v-1h-1h-3l-3 1q-2 0 -3 1l-2 1v3v4l-1 4l-4 1l-3 1h-4l-1 1h-2h-1l-1 -4l-2 -3l-2 -3l-1 -1
q-2 0 -3 1h-3l-3 1q-1 0 -1 1zM581 759v-3v-1h3h3h3l3 1l3 3v3v3l-2 2l-3 1h-3h-3h-3h-1v-3v-3v-3zM455 754l-1 3l1 1l3 1q2 0 3 1q2 0 3 1q2 0 3 1h4q1 1 3 1h3h4q1 -1 3 -1l3 -2q1 0 3 -2l2 -2q2 -2 2 -3l2 -3l1 -3q1 -1 1 -3q1 -1 1 -3l1 -3v-4v-3l-1 -4l-1 -3l-2 -3
l-2 -2l-2 -2q-2 -2 -3 -2l-3 -2l-3 -1l-4 -1l-3 -1q-2 0 -3 -1l-3 -1l-2 1q0 2 -1 3q0 2 -1 3l-1 4v3q-1 1 -1 3q-1 1 -1 3l-1 3l-1 3l-1 4q-1 1 -1 3q-1 1 -1 3l-1 3q0 2 -1 3zM672 714l1 3l1 3l1 3l1 4l2 3l1 3l1 3q0 2 1 3q0 2 1 3l1 3l1 3l1 4q1 1 1 3q1 1 1 3l2 3
q0 1 1 1l3 -2l3 -1q2 0 3 -1q2 0 3 -1q2 0 3 -1q2 0 3 -1q2 0 3 -1l4 -1l3 -1v-1l-1 -3q0 -2 -1 -3l-1 -3h-1l-3 1l-3 1h-1q-1 1 -2 1q-1 1 -3 1l-3 1q-1 1 -3 1h-1q0 -2 -1 -3q0 -2 -1 -3q0 -2 -1 -3v-1h1q1 0 2 -1q1 0 3 -1l3 -1l3 -1q1 -1 3 -1v-1l-1 -4l-1 -4h-1
q-2 0 -3 1l-3 1q-2 0 -3 1l-3 1l-3 1v-1q-1 -1 -1 -3l-2 -3l-1 -3l-1 -3l-1 -3l-1 -3h-1l-3 1l-3 1l-2 1zM638 743h1l2 -1h3q2 0 3 -1v1v3v3l-1 3v3v3l-2 -3l-1 -2l-2 -3l-1 -1v-2zM467 750q1 -1 1 -3l1 -3l1 -3l1 -3l1 -4l1 -3l1 -1v-2q0 -2 1 -3q0 -2 1 -3v-1l4 1q1 1 3 1
q2 2 3 2q0 1 2 3l1 3v2v5l-1 3l-1 3l-2 3q0 1 -2 3l-3 2h-3q-1 2 -3 0h-4l-2 -1zM398 728l-2 3l1 1l2 1l3 2l3 1h1l3 -2l3 -2l2 -2l3 -2l3 -2l3 -2l3 -2l2 -2l3 -2h1l2 -1l-2 3l-1 3l-1 2l-2 3v1q0 1 -1 2l-2 3q0 2 -1 3l-2 3l-1 3v1l3 2l3 1l2 1h2l1 -3l2 -3l1 -3l2 -3
q0 -2 1 -3l2 -3q0 -2 1 -3l2 -3l1 -3l1 -3l2 -3l1 -3l2 -3l1 -3l2 -3l-1 -1l-2 -2q-2 0 -3 -1t-3 -1h-1l-3 2l-3 2l-3 2l-2 2l-3 1l-3 2l-3 2l-2 2l-3 2l-3 2l1 -3l2 -3q1 -1 1 -3l2 -3l1 -3l2 -3l1 -2l1 -3l2 -3l-1 -2l-2 -1l-3 -1l-3 -2l-1 1q-1 1 -1 3l-2 3l-1 1v2l-2 3
l-1 3l-2 3l-1 3l-2 3l-1 3l-2 3l-1 3q-1 1 -1 3l-2 3q-1 1 -1 3zM725 692l1 3l2 3l1 3l2 3l2 3q0 2 1 3l2 3l1 3l2 3q1 1 1 3l2 3q1 1 1 3l-2 2q-2 0 -3 1l-2 1l-3 2v1l1 3l1 2l2 3h1l3 -2l3 -1l2 -1l3 -2l3 -1l3 -2q1 -1 3 -1l2 -2l3 -1l3 -2q1 -1 3 -1v-2l-1 -2l-1 -3
l-2 -2l-1 -1l-3 2l-2 1l-3 1l-2 2h-1l-2 -3q0 -2 -1 -3l-2 -3q0 -2 -1 -3l-2 -3l-1 -3l-2 -3q-1 -1 -1 -3l-2 -3l-2 -3l-1 -3l-2 -3h-1q-1 1 -3 1l-2 2q-2 0 -3 1v1zM767 687l2 3l2 3l2 2l2 3l2 3l2 2l2 3l2 3l2 2l2 3q0 1 1 0l3 -2l2 -2l3 -2l2 -1l3 -2l3 -2l2 -2l3 -2
l3 -2v-2l-2 -2l-2 -2l-1 -2q0 -1 -2 -1l-2 2l-3 2l-2 2l-3 2l-2 2l-3 2h-1l-1 -3l-2 -2l-2 -2v-1l3 -2l2 -1l3 -2l2 -2l3 -2v-1l-3 -3l-2 -4h-1l-3 2l-2 2l-3 2l-2 1l-2 2h-1l-2 -3l-2 -3l-2 -2v-1l3 -2l2 -2l3 -2l3 -2l2 -2l3 -2v-1l-2 -2q0 -2 -1 -3l-2 -2h-1l-3 2l-3 2
l-2 2l-3 2l-3 2l-3 2l-2 2l-3 2l-3 2v1l2 3l2 2l2 3l2 3zM356 704l1 2l2 2l3 2l2 1l1 1q1 0 4 -3l2 -1l3 -3l3 -1l2 -2l3 -2l2 -2l3 -2l3 -2l2 -2l3 -2l3 -2l2 -2l3 -2l2 -2l3 -2v-1l-2 -2l-3 -2q-1 -1 -3 -1h-1l-3 2l-3 2l-3 2h-1l-2 -2l-3 -2l-3 -2l-3 -2v-1l1 -3l1 -4
q1 -1 1 -3v-1l-3 -2l-2 -2l-3 -2h-1q0 2 -1 3l-1 4l-1 3l-1 3l-1 3q0 2 -1 3q0 2 -1 3q0 2 -1 3q0 2 -1 3l-1 4l-1 3l-1 3l-1 3l-1 3q0 2 -1 3q0 2 -1 3zM369 697v-1l1 -2l1 -3l1 -3l1 -3l1 -3h1l2 1l2 2l2 1q1 1 0 1l-2 2l-2 2l-3 2l-2 2zM303 652l-2 2q-1 1 0 2l2 2l2 2
l2 2h1l2 -2l3 -2l2 -3l2 -2l2 -2l2 -2h1l2 2l3 3l2 2l2 2l3 3l-3 2l-2 3l-2 2l-2 2l-2 2l-2 2q-1 1 0 2l2 2l2 2l2 2h1l3 -2l2 -3l2 -2l3 -2l2 -3l2 -2l3 -2l2 -3l2 -2l3 -2l2 -3l2 -2l3 -3l2 -2l2 -2q1 -1 0 -2l-2 -2l-2 -2l-2 -2h-1l-3 3l-2 2l-2 2l-3 3l-2 2l-3 3l-3 -3
l-2 -2l-2 -2l-3 -3l-2 -2v-1l3 -3l2 -2l2 -2l3 -2l2 -3l2 -2q1 -1 0 -2l-2 -2l-2 -2l-2 -2h-1l-3 3l-2 2l-2 2l-3 3l-2 2l-2 2l-3 3l-2 2l-2 2l-3 3l-2 2l-2 2l-3 3zM811 661l2 3l3 2l2 2l3 3l2 2l2 2l3 3l2 2h1l3 -2l2 -3l2 -2l3 -2q0 -1 2 -3l2 -2l2 -3q0 -3 1 -4
q0 -2 1 -3v-3l-1 -4q0 -2 -1 -3q0 -2 -1 -3l-2 -3q0 -2 -2 -2l-2 -3l-3 -2l-2 -2l-3 -2q-1 -1 -3 -1q-1 -1 -3 -1l-4 -1h-3l-4 1l-3 1q-1 0 -3 2l-2 2q-1 0 -3 2l-2 2l-3 3l-2 2l-2 3v1l2 2l2 3l3 2l2 2l2 3l3 2zM814 649l-2 -2l-3 -3l3 -3l2 -2q1 -1 3 -1q1 -1 3 -1h4
q1 0 3 2q1 0 3 2l2 2l2 2q2 2 2 3l2 3v4q0 2 -1 3q0 1 -2 3l-2 2l-2 2h-1l-2 -2l-2 -2l-3 -3l-2 -2l-2 -2l-3 -3zM458 603l107 56q7 4 17 4t17 -4l107 -56q8 -5 8 -13q0 -11 -8 -13l-107 -56q-8 -5 -17 -5t-17 5l-107 56q-8 2 -8 13q0 8 8 13zM568 590v-3v-3v-3q1 -1 1 -3
l1 -3l1 -2l2 -3l2 -2l2 -2q2 0 3 -1q2 0 3 -1h3q2 0 3 1q2 0 3 1l3 1q0 2 2 2l2 3l1 3q0 2 1 3v3v3q-1 1 -1 3q-1 1 -1 3l-2 2l-2 2l-3 2l-3 1h-3h-4l-3 -2v1q0 2 1 3l1 2q2 2 3 2q1 1 3 1t3 -1q2 0 2 -2h1l2 2q2 0 3 1q2 2 2 3l-2 2l-2 2l-3 2h-3q-1 1 -3 1t-3 -1h-3l-3 -2
q-1 0 -3 -2l-2 -2l-1 -2l-2 -3q0 -2 -1 -3v-3l-1 -3v-3zM611 602l2 -1q1 -1 3 -1l2 -2l1 1q0 2 2 2q0 2 2 2l3 1q2 0 2 -1q2 0 2 -2q1 -1 1 -3v-2l-2 -3q0 -1 -2 -3l-2 -2q0 -2 -2 -2q0 -1 -2 -3l-2 -2l-2 -2q0 -2 -2 -2q0 -1 -2 -3l-2 -2v-2v-4l1 -1h3h3h3h3h3h3h3h3h3h3
l1 1v3v2v3l-1 1h-3h-3h-3h-3h-2q-1 0 2 3l2 2l2 2q0 1 2 3l1 2q2 2 2 3q1 1 1 3q1 1 1 3v2v4l-1 3l-1 2l-2 2q-2 2 -3 2l-2 2h-3q-1 1 -3 1t-3 -1h-3l-2 -1q-2 -2 -3 -2l-1 -2l-2 -2l-2 -3zM521 584v-3v-3v-3v-3v-3v-3l1 -1h3h3h3h3h3l3 1q2 0 3 1q2 0 3 1q1 0 3 2l2 2l2 2
l1 3q1 1 1 3q1 1 1 3v3v3v3v3q0 2 -1 3q0 2 -1 3l-1 3l-2 2l-3 3l-2 1q-1 1 -3 1q-1 1 -3 1l-3 1h-3h-3h-3h-3q-4 0 -4 -1v-3v-3v-3v-3v-3v-3v-3v-4v-3zM531 597v3v3h3h3l3 -1l3 -1q0 -1 2 -3q0 -2 1 -3v-3l1 -3l-1 -3v-3l-1 -3l-2 -2q-2 -2 -3 -2l-3 -1h-3h-3v3v3v3v3v3v4
v3zM864 589l-2 3v3l2 3q0 2 2 2q1 1 3 1q1 1 3 0q2 0 3 -1q2 0 2 -2l2 -3v-3l-2 -3q0 -1 -2 -3l-3 -1h-3q-1 0 -3 2q-2 0 -2 2zM278 592q-2 2 0 3q0 2 1 3q0 2 2 2q1 1 3 1q2 1 3 0q2 0 3 -1q1 0 3 -2l1 -3v-3l-1 -3q-2 -2 -3 -2q0 -2 -3 -2h-3l-3 1q-2 2 -2 3q-1 1 -1 3z
M495 592v-3v-3q2 0 2 -2h3h3l2 2v3v3l-2 2h-3h-3q0 -2 -2 -2zM656 592v-3v-3q2 0 2 -2h3h3q0 2 2 2v3v3q-2 0 -2 2h-3h-3q0 -2 -2 -2zM579 580q-1 1 -1 4l2 2l3 1l2 1l3 -1l3 -3v-3q0 -3 -1 -3q0 -1 -2 -3q-1 -1 -3 -1t-3 1l-2 2q-1 1 -1 3zM1100 390v-2l-2 -8
q-17 -41 -38 -58q-13 -11 -44 -22l-1 -2q-11 -33 -19 -45q-15 -20 -42 -25h-8q-12 0 -20 5q-9 9 -10 18v4q0 26 40 45q1 1 0 1h-6q-26 0 -33 21q-26 -32 -65 -38q-3 -1 -13 -1q-35 0 -48 28q-21 -43 -57 -43q-26 0 -36 28q-20 -38 -49 -42h-2q-1 -1 -8 -1q-30 0 -34 28v7
q0 8 1 11q0 1 1.5 7.5t4 17t5.5 22.5l2 12q0 10 -7 10q-15 0 -27 -18t-19 -44q-15 -55 -16 -59q-2 -8 -11 -10l-20 -3h-1q-6 0 -6 7q-12 -10 -26 -12q-2 -1 -7 -1q-21 0 -32 15q-2 3 -5 0q-17 -23 -40 -27l-7 -1q-23 0 -33 24q-3 6 -5 14v13q0 38 21.5 66.5t48.5 32.5
q3 1 10 1q13 0 20 -7q2 0 4 -2q1 -3 3 -3l2 8q3 8 12 10l19 3h1q8 0 6 -7q-17 -62 -26 -100v-3q0 -9 10 -9q7 0 12 5q16 10 31 47q16 61 18 67q2 8 11 10l19 3h1q6 0 6 -6v-4q10 12 26 15h7q29 0 33 -30l1 -9q0 -8 -3 -18l-10 -44v-2q0 -9 10 -9q8 0 13 5q17 12 30 48
q2 47 23 103v1l-15 -3q-16 -2 -85 -7q-45 -2 -67 -5l-10 -2q-34 -5 -73 -16q-1 -1 -4 -1l-4 -1q-10 0 -12 8v1q0 7 11 15q12 8 49 15q24 3 36 3q39 3 75 3q66 2 94 6l12 2l2 2q23 56 49 60q1 1 3 1q7 0 12 -6t5 -15q0 -31 -42 -49l-1 -2q-23 -84 -23 -121q0 -31 16 -31
q4 0 12 5q20 15 29 46q2 12 6 25q21 54 66 62q1 1 7 1q30 0 35 -27v-5q0 -13 -8 -24q-17 -24 -71 -39l-1 -1q5 -31 39 -27q12 2 22 8q26 12 41 49l18 67q2 8 11 10l20 3h1q8 0 6 -7q-21 -72 -25 -93v-8q0 -12 9 -12q7 0 17 10q6 5 10 11.5t6.5 12t4 9.5t2.5 8l1 4l18 64
q2 8 11 10l20 3q6 2 6 -5q2 0 0 -2l-34 -125h1q20 8 24 12q20 15 36 54q2 5 6 5h1q7 0 9 -9zM758 472l-1 -3q1 -1 5 2q17 11 15 26l-1 2l-2 1q-7 0 -16 -28zM280 277l-72 -8l-1 -1q-15 -48 -36.5 -72.5t-55.5 -24.5q-21 0 -35 13.5t-14 33.5t13.5 35.5t33.5 18.5h3q9 0 9 -7
t-8 -10q-26 -8 -26 -30q0 -9 6.5 -16t16.5 -7q30 0 52 55l3 6l-1 1l-10 -1h-1q-8 0 -9 7v2q0 6 8 8l18 4l2 1q18 60 34 96q0 1 -1 2l-29 6q-25 5 -40 5q-26 0 -47 -12.5t-24 -32.5v-5q0 -12 7.5 -20t17.5 -8q16 0 22 14q4 6 8 7h1q7 0 8 -7q0 -4 -1 -5q-7 -28 -38 -28
q-15 0 -27.5 10.5t-15.5 28.5q-1 2 -1 9q0 32 25 54t64 22q13 0 29 -3.5t33 -9t19 -6.5h2q16 27 36 32h4q12 0 17 -9q4 -4 5 -10q2 -12 -8.5 -22.5t-27.5 -13.5l-12 -1q-2 0 -2 -1q-4 -9 -13 -50l-7 -34v-1l74 14l1 1l26 93q10 40 42 44l1 1q7 0 5 -8l-54 -201
q-9 -32 -9 -45q0 -18 13 -26.5t45 -8.5t94 9l19 3q18 3 56 10.5t55 10.5q71 15 124 23q63 9 96 9q34 0 54 -7q30 -9 34 -28v-1q0 -8 -7 -8h-2q-6 0 -9 5q-4 6 -21 11q-3 1 -19 1q-26 0 -63 -6l-113 -21l-147 -27q-2 0 -29 -4q-76 -9 -111 -9q-97 0 -104 55q-1 3 -1 13
q0 18 6 40l11 41q0 1 -1 1zM245 399q4 0 5 1q5 0 9.5 3t5.5 6t-1 5t-3 2q-9 0 -17 -16zM821 360h1q31 7 47 25q6 11 6 15q0 8 -10 7l-9 -3q-27 -12 -35 -44zM455 326q0 13 -13 13t-25 -12q-20 -17 -26 -47q-2 -14 -2 -16q0 -19 12 -19q10 0 25.5 15.5t21.5 35.5q7 24 7 30z
M974 285q-24 -8 -33 -17q-6 -6 -6 -13q0 -9 9 -9q20 0 31 38q1 1 -1 1zM940 76q-37 14 -87 14q-25 0 -51 -3q-36 -3 -88 -14l-59 -12q-73 -15 -161 -29q-64 -10 -147 -10q-79 0 -124 17q-4 1 -2 4q1 2 4 1q40 -14 99 -14q7 0 49 2q70 5 213 32l66 11q107 20 150 21l34 1
q64 0 105 -15q5 -1 2 -5q-1 -1 -3 -1zM860 -20l1 12v5v14v9v5v11l-2 9l-3 4q-3 3 -1 3h2l7 -1l10 -2q2 0 4 -3l5 -7l7 -11q2 -2 7.5 -11.5t7.5 -11.5l3 -4v5v23q0 7 -5 14q-2 2 0 2h1q4 0 14 -2l7 -1h1q0 -2 -1 -2q-5 -7 -5 -15v-19v-34v-12l-1 -1q-5 0 -6 1h-4q-1 0 -3 2
l-5 9q-8 11 -9 15l-7 10l-7 11l-3 6q-1 2 -3 2v-5v-5v-10v-16q2 -7 5 -11l1 -3h-2l-10 1l-4 1l-6 1q-2 0 -2 1l1 2q5 3 5 9zM791 -31q-15 12 -15 36q0 20 11 34q11 12 23 12h2q16 0 24 -14t8 -28q0 -10 -8 -28q-4 -7 -10 -11q-8 -6 -17 -6h-2q-9 0 -16 5zM740 -30l1 12v12
v17q0 13 -1 17q0 4 -3 9q-1 1 -2 1.5t0 1.5l2 1l9 1q2 0 3 1l9 1q4 0 5 1q3 0 3 -1l-2 -2q-4 -5 -4 -11q-1 -3 -1 -12v-12v-17v-17q0 -4 4 -8q3 -3 2 -4l-2 -1l-11 -1l-10 -2q-4 0 -5 -1q-3 0 -3 1l1 2q5 5 5 11zM667 11v9v3v4q0 2 3 2l9 1l14 3l15 3l7 1l11 2q2 0 2 -1v-11
v-5q0 -3 -1 -3l-2 1q-3 3 -8 3q-7 0 -9 -1l-1 -1v-11v-29v-16q0 -5 4 -10q3 -2 2 -3h-2l-11 -2l-10 -2l-5 -1h-3q0 1 2 3q4 5 4 11l1 12v9v7v13v9v6q0 3 -2 1q-5 0 -6 -1q-6 -2 -11 -7q-2 0 -2 -1zM796 6q0 -14 6 -24q3 -5 7 -5q6 2 10 9q4 9 4 22t-4 22q-3 8 -9 8
q-7 -1 -9 -8q-5 -12 -5 -24zM659 25v-11v-11v-4v-2l-3 -1q-3 0 -4 -1q-2 0 -2 1q-3 9 -7 11q-3 3 -7 3t-9 -5q-10 -9 -10 -28q0 -23 13 -27h3q8 0 13 8q4 7 4 11l2 2h2q1 1 6 1q1 0 1 -2q0 -4 -4 -15q-5 -8 -12 -14q-4 -4 -13 -6h-7q-14 0 -20 11q-7 8 -7 27q0 16 6 28
q12 19 28 22h4q1 0 9 -2q1 -1 5 -1t6 5l2 2q1 0 1 -2zM535 -57v12v18v16l-6 13h2l9 2h3q1 1 6 1q1 1 18 4l17 3h3v-1v-7v-10q0 -3 -1 -2q-4 4 -10 4q-2 0 -6.5 -1t-6.5 -1q-1 -1 -5 -1q-1 -1 -3 -1l-2 -1v-3v-8v-7l1 -2l4 1l7 1l8 2q1 0 1 -1v-3v-4v-4q0 -2 -1 -2h-2
q-8 -2 -11 -2q-1 -1 -6 -1q-1 0 -1 -2v-13v-5l1 -1l12 1l10 3q2 0 10 6l2 2l1 -1l-1 -9l1 -6v-3q-2 -2 -3 -2l-9 -2l-9 -2q-1 0 -11 -2q-4 0 -5 -1h-2h-2l-10 -2q-2 -1 -7 -1q-3 -2 -3 0l2 2q4 5 4 11q1 3 1 12zM466 -80v13v11v18v16q0 2 -2 8l-4 4q1 1 3 1q1 1 8 1l3 1
l10 1q1 1 5 1h2l-1 -3q-4 -5 -4 -10q-1 -3 -1 -13v-12v-16v-15l1 -1q4 0 5 1h5l12 3q6 2 10 6l2 2l1 -2v-8v-6v-3q0 -1 -2 -3l-10 -1l-9 -2q-8 0 -23 -3l-9 -2h-5h-3l1 2q4 5 5 11zM297 -17l1 -2v-11v-11v-4l-1 -2h-3l-3 1h-2l-1 2q-2 7 -7 13q-5 5 -9 6h-2q-16 0 -16 -27
q0 -23 14 -31l5 -2h2q6 0 9 4q4 4 4 9q0 2 2 2l2 -1l6 -1q1 0 1 -2q0 -3 -2 -8l-2 -6q-5 -7 -12 -10q-2 -1 -8 -1q-23 0 -33 21q-7 13 -7 29q0 18 7 26q11 15 28 12l6 -2l7 -5q3 -3 5 -3q4 0 7 3q0 1 2 1zM397 -87v12v12v17v17l-2 8q-5 5 -3 5h2q6 0 9 1h2l10 1h5h3l-2 -2
q-4 -5 -4 -11q-1 -3 -1 -12v-12v-17v-14q0 -2 2 -2q1 1 4 1h5l12 2q7 1 10 6l2 1q1 0 1 -1v-8v-6v-3q0 -3 -2 -3l-10 -1l-9 -1l-23 -2l-9 -1q-4 0 -5 -1q-3 0 -3 1l1 2q3 2 5 11zM313 -60q0 19 11 33q9 11 23 11q6 0 7 -1q11 -3 19 -15q8 -14 8 -28q0 -13 -8 -27
q-4 -7 -10 -11q-7 -6 -17 -6t-18 7q-15 12 -15 37zM333 -61q0 -13 6 -24q3 -5 7 -5q5 0 10 8q4 9 4 22t-4 22q-3 8 -9 8t-9 -6q-5 -13 -5 -25zM940 -96q-33 13 -87 13q-5 0 -51 -2q-42 -4 -147 -26q-73 -15 -161 -29q-64 -10 -147 -10q-80 0 -124 16q-3 2 -2.5 4.5t4.5 1.5
q37 -15 99 -15q7 0 49 2q61 5 213 33q140 27 216 31q7 1 34 1q64 0 105 -15q4 -1 2 -4q-1 -2 -3 -1z" />
    <glyph glyph-name=".null" horiz-adv-x="0" 
 />
    <glyph glyph-name="nonmarkingreturn" horiz-adv-x="333" 
 />
    <glyph glyph-name="space" unicode=" " horiz-adv-x="200" 
 />
    <glyph glyph-name="exclam" unicode="!" horiz-adv-x="577" 
d="M192 198q0 7 2 13l205 534q4 12 15 19.5t24 7.5h71q7 0 12.5 -5.5t5.5 -12.5q0 -2 -2 -8l-276 -559q-7 -18 -26 -18q-12 0 -21.5 8.5t-9.5 20.5zM100 55q0 25 17 42.5t42 17.5t42 -17.5t17 -42.5q0 -24 -17 -41.5t-42 -17.5t-42 17.5t-17 41.5z" />
    <glyph glyph-name="quotedbl" unicode="&#x22;" horiz-adv-x="315" 
d="M80 572q0 17 17 28q38 20 60 49q4 4 4 9q0 4 -7 10q-21 20 -21 46q0 25 17 42t43 17q25 0 42 -17.5t17 -48.5q0 -50 -43.5 -95t-87.5 -61q-9 -3 -16 -3q-12 0 -18.5 7t-6.5 17zM262 572q0 18 18 28q37 22 59 49q4 4 4 9q0 6 -6 10q-21 18 -21 46q0 25 16.5 42t43.5 17
q25 0 42 -17.5t17 -48.5q0 -49 -44 -94t-87 -62q-9 -3 -17 -3q-12 0 -18.5 7t-6.5 17z" />
    <glyph glyph-name="numbersign" unicode="#" horiz-adv-x="728" 
d="M129 145q0 4 2 8q2 7 32 73q1 1 0 2t-2 1h-87q-10 0 -17 7t-7 16q0 1 2 9l6 15q15 33 51 33h87q4 0 5 3l48 108q1 1 0 2.5t-2 1.5h-87q-10 0 -16.5 7t-6.5 16q0 5 2 9l6 15q15 33 51 33h87q3 0 5 3l32 73q12 27 41 27h19q10 0 15.5 -8.5t1.5 -18.5l-33 -73q0 -3 2 -3h117
q5 0 6 3l32 73q12 27 40 27h19q10 0 16 -8.5t2 -18.5l-33 -73q-1 -1 0 -2t2 -1h87q10 0 17 -7t7 -16q0 -1 -2 -9l-6 -15q-15 -33 -51 -33h-87q-5 0 -5 -4q-25 -56 -48 -108q-1 -1 0 -2t2 -1h86q10 0 17 -7t7 -16q0 -5 -2 -9l-6 -15q-15 -33 -51 -33h-87q-4 0 -4 -3l-33 -74
q-11 -26 -41 -26h-19q-7 0 -12.5 5.5t-5.5 13.5q0 6 1 8l33 73q0 3 -3 3h-117q-2 0 -4 -3l-33 -74q-11 -26 -40 -26h-19q-19 0 -19 19zM280 309h117q3 0 5 3l48 108q1 1 0 2.5t-2 1.5h-117q-4 0 -5 -4l-48 -108q-1 -1 0 -2t2 -1z" />
    <glyph glyph-name="dollar" unicode="$" horiz-adv-x="664" 
d="M163 -9q0 7 3 13l13 32q2 2 -1 5q-78 50 -78 148q0 26 4 45q4 24 28 24q13 0 21.5 -8t8.5 -22q0 -6 -1 -17.5t-1 -15.5q0 -64 44 -93q4 -2 5 2l105 240q2 3 0 6q-73 88 -73 180q0 83 58 138.5t143 55.5q19 0 33 -2q5 0 6 3q14 32 19 39q8 8 20 8t21.5 -8.5t9.5 -20.5
q0 -7 -2 -13l-10 -23q-2 -2 1 -4q74 -38 74 -116q0 -37 -15 -74q-7 -20 -27 -20q-12 0 -20.5 9t-8.5 21q0 8 1 10q7 21 7 42q0 46 -38 63q-4 1 -5 -1l-97 -222q-2 -3 1 -6q33 -40 50 -65q47 -62 47 -129q0 -85 -63.5 -145t-155.5 -60q-19 0 -51 5q-2 2 -4 -2l-14 -33
q-9 -18 -27 -18q-12 0 -21.5 8.5t-9.5 20.5zM369 469l77 176q2 3 -2 3q-40 -4 -72 -36q-30 -30 -30 -72q0 -35 24 -73q1 -1 3 2zM399 201q0 43 -38 92q-1 3 -4 0l-89 -203q1 -3 3 -3q51 1 90 34q38 32 38 80z" />
    <glyph glyph-name="percent" unicode="%" horiz-adv-x="850" 
d="M100 14q0 5 3 8q155 206 521 689q17 23 46 23h66q14 0 14 -15q0 -6 -2 -8l-269 -355l-252 -333q-17 -23 -46 -23h-66q-15 0 -15 14zM104 516q-4 13 -4 33q0 47 26.5 88t68.5 59q27 11 49 11q42 0 73.5 -26.5t40.5 -69.5q4 -13 4 -33q0 -47 -26.5 -88t-69.5 -59
q-27 -11 -49 -11q-40 0 -71.5 26t-41.5 70zM293 578q0 27 -14 43t-35 16q-11 0 -23 -5q-23 -10 -37.5 -33t-14.5 -50q0 -9 2 -17q3 -17 15 -29q13 -13 32 -13q30 0 52.5 27t22.5 61zM526 60q-25 25 -34 63q-3 15 -3 32q0 47 26.5 88t68.5 60q26 10 49 10q41 0 72.5 -26.5
t41.5 -69.5q3 -17 3 -32q0 -48 -26 -89t-69 -59q-21 -10 -49 -10q-48 0 -80 33zM682 184q0 27 -14 43t-36 16q-14 0 -22 -4q-23 -10 -38 -34t-15 -50q0 -1 2 -17q5 -17 15 -29q13 -13 33 -13q30 0 52.5 27t22.5 61z" />
    <glyph glyph-name="ampersand" unicode="&#x26;" horiz-adv-x="898" 
d="M175 239q0 80 46 150t120 100q2 0 2 4q-4 15 -4 39q-2 92 66.5 167t168.5 73q83 0 135 -49t52 -115q0 -87 -81 -136q-12 -5 -18 -5q-12 0 -20.5 8t-8.5 19q0 14 14 22q34 24 34 68q0 40 -30.5 67t-81.5 27q-66 0 -112.5 -50t-48.5 -118q0 -4 3 -4q24 2 27 2q29 0 56 -11
q49 -23 49 -65q0 -28 -21.5 -49t-53.5 -21q-19 0 -40 8q-36 13 -60 50q0 1 -4 0q-39 -26 -61 -71t-22 -94q0 -68 39.5 -111t110.5 -43q77 0 126.5 53t46.5 112q0 3 -3 3q-61 -9 -84.5 -19.5t-29.5 -37.5q-6 -25 -29 -25q-13 0 -22 10.5t-8 25.5q3 51 47 81t126 49l76 18
q83 25 90 69q1 12 9.5 19.5t20.5 7.5q26 0 26 -32q0 -52 -34.5 -91t-93.5 -58l-24 -6q-3 -3 -2 -4q7 -29 7 -53q2 -91 -72 -159.5t-182 -67.5q-109 0 -178 71.5t-69 171.5zM485 430q0 8 -17 16q-10 3 -23 3q-11 0 -19 -2q-2 0 -1 -4q14 -19 33 -23q3 -1 10 -1q17 0 17 11z
" />
    <glyph glyph-name="quotesingle" unicode="'" horiz-adv-x="132" 
d="M80 572q0 17 17 28q38 20 60 49q4 4 4 9q0 4 -7 10q-21 20 -21 46q0 25 17 42t43 17q25 0 42 -17.5t17 -48.5q0 -50 -43.5 -95t-87.5 -61q-9 -3 -16 -3q-12 0 -18.5 7t-6.5 17z" />
    <glyph glyph-name="parenleft" unicode="(" horiz-adv-x="398" 
d="M94 -110q-44 52 -44 150q0 52 10 99q9 45 54 159q47 121 100 231q57 118 99 175q88 115 196 148q2 0 5 1q4 1 5 1q12 0 20.5 -9.5t8.5 -22.5q0 -21 -21 -27q-73 -23 -140 -141q-15 -26 -110 -239q-79 -175 -132 -298q-24 -72 -24 -123q0 -43 18 -64q8 -10 8 -20
q0 -12 -9.5 -21t-21.5 -9t-22 10z" />
    <glyph glyph-name="parenright" unicode=")" horiz-adv-x="573" 
d="M25 -89q0 21 21 28q73 21 140 140q15 26 110 239q79 175 132 298q25 74 25 123q0 43 -19 65q-8 8 -8 19q0 12 9.5 21.5t21.5 9.5q11 0 22 -11q44 -50 44 -150q0 -52 -10 -99q-9 -44 -54 -160q-48 -123 -100 -230q-55 -116 -99 -174q-86 -116 -196 -149q-3 -1 -10 -1
q-13 0 -21 9t-8 22z" />
    <glyph glyph-name="asterisk" unicode="*" horiz-adv-x="400" 
d="M168 469v76q0 1 -1.5 2t-2.5 0l-65 -38q-7 -4 -16 -4q-19 0 -28 16q-5 8 -5 16q0 19 17 28l65 38q2 2 0 4l-66 38q-16 9 -16 28q0 14 9.5 23t22.5 9q10 0 17 -4l65 -38q1 -1 2.5 0t1.5 2v75q0 14 9.5 23.5t22.5 9.5q14 0 23.5 -9.5t9.5 -23.5v-75q0 -3 3 -2l65 38
q7 4 16 4q20 0 29 -16q4 -7 4 -16q0 -19 -16 -28l-66 -38q-2 -2 0 -4l65 -38q17 -9 17 -28q0 -8 -5 -16q-9 -16 -28 -16q-9 0 -16 4l-65 38q-3 1 -3 -2v-76q0 -13 -9.5 -22.5t-23.5 -9.5q-13 0 -22.5 9.5t-9.5 22.5z" />
    <glyph glyph-name="plus" unicode="+" horiz-adv-x="665" 
d="M213 195l57 128q0 4 -3 4h-143q-10 0 -17 7t-7 16q0 1 2 9l6 15q15 33 51 33h144q3 0 5 3l56 128q13 26 41 26h30q10 0 15.5 -8.5t1.5 -17.5l-57 -128q0 -3 3 -3h143q10 0 17 -7t7 -16q0 -1 -2 -9l-6 -15q-15 -33 -51 -33h-144q-4 0 -5 -4l-56 -128q-12 -26 -41 -26h-30
q-10 0 -15.5 8.5t-1.5 17.5z" />
    <glyph glyph-name="comma" unicode="," horiz-adv-x="322" 
d="M50 -87q0 17 17 28q37 20 60 50q4 4 4 8q0 5 -7 11q-21 18 -21 45q0 25 17 42t43 17t42.5 -17.5t16.5 -48.5q2 -48 -43.5 -94.5t-87.5 -61.5q-9 -3 -16 -3q-11 0 -18 7t-7 17z" />
    <glyph glyph-name="hyphen" unicode="-" horiz-adv-x="509" 
d="M75 230q0 1 2 9l6 15q15 33 51 33h252q10 0 16.5 -7t6.5 -16q0 -5 -2 -9l-6 -15q-15 -33 -51 -33h-251q-10 0 -17 7t-7 16z" />
    <glyph glyph-name="period" unicode="." horiz-adv-x="268" 
d="M50 55q0 25 17 42t42 17t42 -17t17 -42q0 -24 -17 -41.5t-42 -17.5t-42 17.5t-17 41.5z" />
    <glyph glyph-name="slash" unicode="/" horiz-adv-x="649" 
d="M-100 -213q0 5 3 9l718 946q17 23 46 23h68q14 0 14 -14q0 -5 -2 -9l-718 -946q-17 -23 -47 -23h-68q-6 0 -10 4.5t-4 9.5z" />
    <glyph glyph-name="zero" unicode="0" horiz-adv-x="578" 
d="M20 182q0 111 50 240q53 132 139 228q89 98 194 98q78 0 116.5 -52t38.5 -143q0 -114 -50 -241q-53 -134 -141.5 -230.5t-190.5 -95.5q-79 0 -117.5 52t-38.5 144zM391 358q22 58 42 128q19 66 19 118q0 73 -49 73q-55 0 -115 -100q-58 -98 -100 -201q-26 -62 -44 -129
q-19 -69 -19 -120q0 -70 46 -70q57 0 118 99q62 101 102 202z" />
    <glyph glyph-name="one" unicode="1" horiz-adv-x="375" 
d="M0 19q0 2 2 8l217 491q1 1 0 2t-2 0q-78 -69 -118 -97q-8 -5 -17 -5q-15 0 -25 13q-5 8 -5 17q0 16 13 25q49 33 156 132q37 35 87 85q2 5 13 15.5t35.5 20.5t51.5 8q9 0 14 -8.5t1 -17.5q-7 -18 -141 -319l-160 -362q-12 -27 -41 -27h-63q-7 0 -12.5 5.5t-5.5 13.5z" />
    <glyph glyph-name="two" unicode="2" horiz-adv-x="496" 
d="M-75 22q0 7 1 9q26 73 72 135q48 64 95 105t116 93l23 17q163 125 163 212q0 35 -24 55.5t-59 20.5q-32 0 -54 -17t-22 -43q0 -13 6 -30q6 -13 6 -24q0 -18 -14.5 -31t-33.5 -13q-21 0 -36 17t-15 46q-2 59 54 117.5t144 56.5q66 0 107.5 -42t41.5 -114q0 -27 -6 -57
q-12 -56 -49 -103q-37 -48 -84 -87q-53 -43 -125 -94q-82 -60 -122 -93q-44 -35 -80 -77q-1 -1 0 -2.5t3 -1.5q32 7 76 7q4 0 46 -2l44 -1q60 0 97 20q19 11 36 11q18 0 29.5 -12t11.5 -29q0 -31 -32 -49q-38 -22 -99 -22q-40 0 -94 9q-90 10 -95 10q-38 0 -64 -10
q-24 -9 -36 -9t-20 6t-8 16z" />
    <glyph glyph-name="three" unicode="3" horiz-adv-x="515" 
d="M0 143q0 60 28 117q8 19 28 19q12 0 20.5 -9t8.5 -21q0 -6 -2 -12q-13 -36 -13 -69q0 -43 23.5 -68t60.5 -25q40 0 75.5 34.5t54.5 87.5q15 43 15 77q0 85 -76 92q-11 1 -18.5 10t-7.5 20q0 13 8.5 21.5t21.5 8.5q86 0 136.5 54.5t50.5 111.5q0 36 -23.5 56.5t-58.5 20.5
q-32 0 -54.5 -17t-22.5 -43q0 -16 7 -30q5 -12 5 -24q0 -18 -14 -31t-33 -13q-22 0 -37 16.5t-15 46.5q-2 59 54 117.5t144 56.5q68 0 108.5 -43.5t40.5 -110.5q0 -66 -43.5 -121t-118.5 -82q-7 -2 -2 -7q60 -40 60 -125q0 -31 -9 -66q-21 -87 -85 -147t-157 -60
q-76 0 -118 43t-42 114z" />
    <glyph glyph-name="four" unicode="4" horiz-adv-x="573" 
d="M148 19q0 7 1 8l74 166q2 8 -4 8l-193 8q-11 0 -18.5 8.5t-7.5 23.5q0 9 3 19q10 33 19 48q7 12 28 30q138 115 223 191q69 63 167 161q16 16 24 22.5t32 14t59 7.5q10 0 15 -8.5t1 -17.5l-187 -422q-2 -6 4 -6l38 1q21 1 33 -10t12 -27q0 -21 -14.5 -36.5t-36.5 -14.5
l-69 3q-7 0 -10 -6l-72 -163q-12 -27 -41 -27h-62q-18 0 -18 19zM87 268l165 7q7 0 10 7l103 232q1 2 -1.5 2.5t-4.5 -1.5q-74 -65 -244 -202l-28 -22q-9 -7 -9 -15t9 -8z" />
    <glyph glyph-name="five" unicode="5" horiz-adv-x="534" 
d="M-10 146q0 39 13 74t33 52q19 17 39 17t34 -14.5t14 -33.5q0 -28 -29 -43q-31 -16 -31 -51q0 -29 22.5 -50.5t56.5 -21.5q54 0 99 60q47 60 69 132q16 51 16 88q0 76 -68 76q-13 0 -23.5 -3t-17.5 -8t-13 -11t-9 -10.5t-5 -8.5l-2 -4q-7 -12 -22 -12q-6 0 -12 3l-47 24
q-16 10 -16 28q0 6 3 12l117 266q8 15 21 22q13 5 31 5q32 0 80 -9q51 -8 74 -8q33 0 59 10q14 7 29 7q18 0 28.5 -11t10.5 -27q0 -31 -35 -47q-30 -12 -64 -12q-38 0 -116 21l-13 3q-5 2 -6 -2l-67 -151q-1 -2 1 -4t4 0q28 16 57 16q60 0 97 -46t37 -124q0 -55 -20 -121
q-32 -102 -104 -173q-70 -70 -165 -70q-82 0 -121 47q-39 46 -39 113z" />
    <glyph glyph-name="six" unicode="6" horiz-adv-x="515" 
d="M0 181q0 99 40 207q29 85 79.5 165.5t122.5 138.5t142 56q61 0 95.5 -35t34.5 -88q0 -40 -19 -68q-19 -30 -46 -30q-20 0 -34.5 14t-14.5 33q0 20 18 36q17 17 17 33q0 13 -11.5 22t-25.5 9q-42 0 -91 -47t-100 -144q-1 -2 1 -4.5t5 -1.5q41 21 80 21q68 0 105.5 -46.5
t37.5 -123.5q0 -36 -10 -79q-26 -106 -103.5 -185.5t-173.5 -77.5q-73 0 -111 52t-38 143zM332 339q0 79 -59 79q-55 0 -94.5 -46.5t-61.5 -123.5q-14 -53 -14 -95q0 -96 60 -96q37 0 76 47q41 48 66 115q27 67 27 120z" />
    <glyph glyph-name="seven" unicode="7" horiz-adv-x="461" 
d="M11 28q32 126 143 301q60 95 120 173q67 85 128 153q2 2 0.5 5t-3.5 2q-34 -10 -85 -10l-56 1q-63 0 -98 -20q-20 -11 -36 -11q-18 0 -29.5 12t-11.5 29q0 31 32 49q40 22 100 22q27 0 85 -8q39 -7 74 -7q28 0 63 9q22 6 34 6q13 0 21.5 -8t8.5 -22q0 -19 -16 -38
q-53 -71 -118 -179q-70 -117 -129 -236q-62 -125 -93 -223q-12 -28 -38 -28h-74q-11 0 -18 9t-4 19z" />
    <glyph glyph-name="eight" unicode="8" horiz-adv-x="552" 
d="M0 157q0 82 52 152.5t130 96.5q-1 2 -3 5q-2 2 -2 3q-25 37 -25 91q-2 92 71.5 169t185.5 74q69 0 106 -39.5t37 -104.5q0 -66 -39 -131q-39 -64 -104 -96q41 -44 41 -115q0 -51 -23 -106q-35 -82 -103 -126t-160 -44q-73 0 -118.5 47t-45.5 124zM449 621q0 56 -48 56
q-35 2 -70 -31.5t-56 -80.5t-20 -85q0 -64 51 -64q30 -2 65 33.5t57 85t21 86.5zM331 286q0 68 -55 68q-38 2 -78 -37t-63.5 -93.5t-22.5 -98.5q0 -68 55 -68q37 -2 77 37.5t64 94t23 97.5z" />
    <glyph glyph-name="nine" unicode="9" horiz-adv-x="515" 
d="M0 109q0 39 19 68q18 30 47 30q20 0 34.5 -14t14.5 -33q0 -18 -18 -36q-18 -16 -18 -33q0 -13 11.5 -22t26.5 -9q41 0 90 46.5t101 144.5q2 2 -0.5 4.5t-5.5 1.5q-42 -21 -81 -21q-68 0 -105 46.5t-37 123.5q0 42 10 79q25 105 103 185t173 78q73 0 111.5 -52t38.5 -143
q0 -94 -40 -207q-49 -138 -146 -250.5t-198 -109.5q-61 0 -96 35t-35 88zM397 486q15 50 15 95q0 96 -61 96q-37 0 -76 -48q-39 -47 -66 -114q-26 -69 -26 -120q0 -79 59 -79q55 0 94 46.5t61 123.5z" />
    <glyph glyph-name="colon" unicode=":" horiz-adv-x="438" 
d="M219 325q0 25 17.5 42t42.5 17q24 0 41.5 -17t17.5 -42t-17.5 -42t-41.5 -17q-25 0 -42.5 17t-17.5 42zM100 55q0 25 17 42t42 17t42 -17t17 -42q0 -24 -17 -41.5t-42 -17.5t-42 17.5t-17 41.5z" />
    <glyph glyph-name="semicolon" unicode=";" horiz-adv-x="491" 
d="M273 325q0 25 17 42t42 17t42 -17t17 -42t-17 -42t-42 -17t-42 17t-17 42zM100 -87q0 17 17 28q37 20 60 50q4 4 4 8q0 5 -7 11q-21 18 -21 45q0 25 17 42t43 17t42.5 -17.5t16.5 -48.5q2 -48 -43.5 -94.5t-87.5 -61.5q-9 -3 -16 -3q-11 0 -18 7t-7 17z" />
    <glyph glyph-name="less" unicode="&#x3c;" horiz-adv-x="682" 
d="M343 199l-230 147q-13 7 -13 24q0 20 15 27l285 145q52 25 97 27h75q10 0 10 -14q0 -9 -6 -12l-337 -166q-10 -6 -10 -10q0 -5 9 -10l223 -146q13 -7 13 -20q0 -18 -38 -18q-55 0 -93 26z" />
    <glyph glyph-name="equal" unicode="=" horiz-adv-x="742" 
d="M178 438q0 1 2 9l7 14q13 33 50 33h382q10 0 16.5 -6.5t6.5 -16.5q0 -7 -1 -9l-7 -14q-15 -34 -51 -34h-381q-10 0 -17 7t-7 17zM100 261q0 1 2 9l6 15q15 33 51 33h382q10 0 16.5 -7t6.5 -16q0 -5 -2 -9l-6 -15q-15 -33 -51 -33h-381q-10 0 -17 7t-7 16z" />
    <glyph glyph-name="greater" unicode="&#x3e;" horiz-adv-x="682" 
d="M100 187q0 9 6 12l338 166q10 6 10 10q0 5 -9 10l-224 146q-13 7 -13 20q0 10 8 14t31 4q48 0 92 -26l231 -147q12 -8 12 -24q0 -20 -15 -27l-285 -145q-51 -26 -96 -27h-76q-10 0 -10 14z" />
    <glyph glyph-name="question" unicode="?" horiz-adv-x="570" 
d="M180 197q0 7 3 13q37 90 129 194q34 40 50 62q41 53 41 117q0 49 -28 76t-72 27q-48 0 -83 -31.5t-35 -69.5q0 -27 18 -42q19 -18 19 -39q0 -19 -15 -33.5t-35 -14.5q-28 0 -48 29q-22 31 -22 77q0 80 62 145t157 65q84 0 141.5 -54.5t57.5 -133.5q0 -51 -20 -96
q-19 -39 -46.5 -70t-83.5 -80q-57 -50 -86 -82t-49 -71q-9 -16 -25 -16q-12 0 -21 8t-9 20zM100 55q0 25 17 42.5t42 17.5t42 -17.5t17 -42.5q0 -24 -17 -41.5t-42 -17.5t-42 17.5t-17 41.5z" />
    <glyph glyph-name="at" unicode="@" horiz-adv-x="947" 
d="M100 122q0 63 25 126q32 85 101.5 153.5t159 106.5t179.5 37q136 0 209 -67t73 -171q2 -68 -35 -142t-96 -122.5t-115 -46.5q-69 0 -96 52q-2 8 -10 0q-49 -52 -106 -52q-47 0 -71.5 31t-24.5 86q-2 59 27 124t81 109.5t109 42.5q55 0 83 -43q1 -4 3 0l8 18q12 23 36 23
h45q8 0 13 -7.5t1 -15.5q-88 -195 -111 -260q-2 -6 -2 -11q0 -11 8.5 -18t21.5 -7q27 -1 60.5 29t58 84t23.5 112q0 82 -49 137t-144 55q-108 2 -212 -80.5t-144 -188.5q-21 -52 -21 -103q0 -86 56.5 -142.5t140.5 -56.5q63 0 126 28q8 3 13 3q13 0 21.5 -9.5t8.5 -22.5
q0 -18 -19 -26q-75 -33 -152 -33q-118 -2 -201.5 76t-81.5 192zM531 194q21 50 21 81q0 40 -34 40t-72 -42q-36 -42 -54 -95q-12 -36 -12 -65q0 -42 25 -47q31 -3 65.5 32.5t60.5 95.5z" />
    <glyph glyph-name="A" unicode="A" horiz-adv-x="872" 
d="M508 -72q0 81 32 179q2 5 -3 7q-33 12 -130 58q-3 2 -5 0q-58 -88 -117.5 -132t-135.5 -44q-69 0 -109 43.5t-40 108.5q0 73 50.5 127.5t135.5 54.5q80 0 169 -40q3 0 5 3l39 64q37 60 94 139q75 104 156 185q83 83 150 83q81 0 81 -95q0 -87 -69 -248q-24 -56 -83 -176
l-46 -96q0 -4 1 -4q33 -5 49 -5q44 0 76 20q30 19 58 65q8 14 23 14q10 0 18 -8.5t8 -22.5q0 -13 -10 -32q-58 -103 -184 -103q-32 0 -65 6q-2 1 -5 -2q-50 -130 -50 -189q0 -31 10 -43.5t32 -14.5q14 -1 22.5 -9t8.5 -18q0 -13 -13 -21.5t-36 -8.5q-117 0 -117 155z
M572 188q72 170 191 388q40 73 40 104q0 17 -13 17q-32 0 -102 -83q-52 -64 -116 -163q-49 -77 -72 -116l-39 -66l-11 -20q-1 -4 0 -5q77 -41 115 -59q5 -2 7 3zM308 213q2 2 -1 4q-77 30 -133 30q-53 0 -83.5 -26.5t-30.5 -64.5q0 -31 20.5 -52.5t53.5 -21.5q86 0 174 131z
" />
    <glyph glyph-name="B" unicode="B" horiz-adv-x="961" 
d="M348 -76q0 54 38 98.5t103 62.5q42 12 151 17q50 2 93 6q4 1 4 5q2 84 -22 150q-1 4 -5 4q-30 -6 -56 -6q-53 0 -83 23t-30 58q0 34 24 55.5t62 21.5q64 0 120 -52q4 -1 5 1q71 62 71 165q0 75 -46 123t-130 48q-73 0 -146.5 -40.5t-132.5 -116.5q-11 -14 -25 -14
q-9 0 -15.5 7t-6.5 18t5 21q45 89 141.5 141t200.5 52q126 0 196 -66.5t70 -164.5q0 -69 -34 -132t-96 -104q-2 -2 0 -5q45 -70 53 -162v-2q0 -1 2 -1q58 24 96 91q9 14 22 14q10 0 18 -9t8 -23t-10 -33q-24 -42 -54.5 -66t-79.5 -42q-3 -1 -3 -5q-15 -130 -106 -210.5
t-213 -78.5q-88 0 -138.5 44t-50.5 107zM0 145q0 68 52 118.5t122 50.5q33 0 33 -25q0 -10 -8 -19t-20 -11q-46 -9 -71.5 -35t-25.5 -58q0 -31 20.5 -51.5t52.5 -20.5q93 0 191 173q33 62 62 122q61 128 103 192t90 92q13 7 21 7q13 0 13 -14q0 -11 -7 -24q-33 -72 -51 -117
l-40 -106l-32 -87q-9 -24 -40 -87q-127 -249 -302 -249q-73 0 -118 43t-45 106zM678 327q2 1 2.5 2.5t-0.5 2.5q-24 28 -53 28q-25 0 -25 -18q0 -9 9.5 -15.5t23.5 -6.5q22 0 43 7zM728 36q1 1 -0.5 1.5t-2.5 0.5l-75 -11q-135 -17 -181 -40q-59 -29 -59 -73q0 -30 27.5 -50
t72.5 -20q75 0 137.5 54t80.5 138z" />
    <glyph glyph-name="C" unicode="C" horiz-adv-x="704" 
d="M120 249q0 91 40 193q-79 25 -119.5 70.5t-40.5 99.5q0 43 24.5 78.5t63.5 49.5q12 4 18 4q25 0 25 -22q0 -17 -17 -28q-53 -35 -53 -77q0 -34 35.5 -63t95.5 -44q70 127 179 194t213 67q107 0 144 -59q15 -26 15 -55q3 -87 -118.5 -165.5t-284.5 -75.5q-43 0 -71 4
q-28 -75 -28 -145q0 -90 46.5 -144.5t126.5 -54.5q79 0 161 41q81 40 124 109q8 14 22 14q12 0 19.5 -8t7.5 -22q0 -16 -11 -33q-58 -98 -156 -154q-97 -55 -198 -55q-118 0 -190.5 77t-72.5 204zM667 667q0 12 -8 22q-16 22 -58 22q-68 0 -153.5 -57t-142.5 -157
q67 -2 135.5 14.5t117.5 42.5t80 57t29 56z" />
    <glyph glyph-name="D" unicode="D" horiz-adv-x="965" 
d="M301 65q-3 1 -7 0q-83 -69 -164 -69q-57 0 -93.5 33t-36.5 88q0 49 31.5 79.5t85.5 30.5q58 0 141 -40q4 0 5 1q21 32 47 79q33 62 62 122q37 76 66 130q64 118 127 154q13 7 21 7q13 0 13 -14q0 -10 -6 -24q-33 -70 -54 -122q-15 -37 -37 -101q-20 -58 -31 -84
q-15 -37 -42 -90q-36 -67 -67 -108q-2 -2 0 -4q103 -57 169 -57q74 0 137 60t99 153q37 92 37 185q0 110 -55 170t-142 60q-71 0 -144.5 -41.5t-132.5 -115.5q-11 -14 -24 -14q-9 0 -15.5 7t-6.5 18t5 21q44 87 138 140t196 53q126 0 209 -83t83 -241q0 -113 -47 -227
q-46 -110 -133 -183q-86 -71 -194 -71q-59 0 -115 24.5t-125 73.5zM212 125q1 4 0 5q-56 38 -97 38q-26 0 -40.5 -14.5t-14.5 -33.5t15 -31t39 -12q48 0 98 48z" />
    <glyph glyph-name="E" unicode="E" horiz-adv-x="636" 
d="M0 51q0 92 49 172t142 124q3 3 3 4q-2 24 -2 27q0 33 7 58q0 4 -2 4q-88 29 -131 81q-33 42 -33 91q0 43 24 78.5t63 49.5q12 4 19 4q25 0 25 -22q0 -17 -17 -28q-53 -35 -53 -77q0 -33 35 -62t93 -44q3 -2 5 3q70 125 178 191t212 66q107 0 144 -59q15 -26 15 -54
q3 -88 -118.5 -166.5t-291.5 -75.5q-6 0 -56 2q-4 0 -4 -2q-9 -31 -10 -39q0 -3 3 -3q73 3 113.5 -25t40.5 -71q0 -19 -9 -37q-24 -49 -87 -49q-37 0 -74.5 19.5t-58.5 51.5q-2 2 -5 1q-46 -39 -71.5 -95.5t-25.5 -115.5q0 -83 50 -138t141 -55q80 0 141.5 43t61.5 108
q0 29 -17.5 47.5t-42.5 18.5q-37 0 -55 -37q-11 -20 -29 -20q-10 0 -17.5 7t-7.5 19q0 5 2 11q11 38 40 59.5t67 21.5q49 0 85.5 -36t36.5 -96q1 -89 -79 -162t-214 -71q-133 0 -209 80.5t-76 197.5zM700 667q0 11 -8 22q-16 22 -59 22q-67 0 -151 -57t-143 -155q0 -2 2 -2
q87 -2 174 27t137.5 69.5t47.5 73.5zM393 278q0 15 -16 25t-42 10q-17 0 -37 -5q-2 0 -2 -4q7 -23 25.5 -37t39.5 -14q32 0 32 25z" />
    <glyph glyph-name="F" unicode="F" horiz-adv-x="841" 
d="M0 -37q0 80 53 137.5t129 57.5q15 0 24 -7t9 -17t-8 -19t-20 -12q-59 -11 -91.5 -46t-32.5 -81q0 -54 37 -88q38 -35 92 -35q72 0 130 61q57 58 97 140q34 66 92 206q0 4 -2 4l-100 4q-23 2 -23 24t23 24l123 5q4 0 5 3q82 193 147 290q1 4 -1 5l-22 9q-147 58 -210 58
q-83 0 -136.5 -31t-68.5 -81q-5 -20 -5 -32q0 -36 24.5 -59.5t57.5 -23.5q37 0 61 33q10 18 27 18q25 0 25 -25q0 -8 -4 -15q-31 -70 -110 -70q-55 0 -98 39.5t-43 102.5q0 15 5 40q16 78 87 134t173 56q49 0 97 -14q47 -13 82 -30q44 -21 102 -52q5 -2 7 1q78 87 171 87
q46 0 76 -25.5t30 -66.5q0 -44 -35.5 -74t-97.5 -30q-39 0 -89 14q-3 0 -5 -2q-43 -79 -112 -250q0 -3 2 -3l89 4q17 1 29 -10.5t12 -28.5t-12 -28.5t-29 -10.5l-117 5q-4 0 -4 -3q-61 -152 -115 -255q-49 -93 -129 -161q-77 -67 -190 -67q-87 0 -147.5 54.5t-60.5 136.5z
M951 671q0 8 -1 10q-3 10 -14.5 17t-25.5 7q-45 0 -90 -66q-1 -1 0 -2t2 -1q30 -8 57 -8q34 0 53 12.5t19 30.5z" />
    <glyph glyph-name="G" unicode="G" horiz-adv-x="843" 
d="M245 -140q0 67 60 100t145 54l27 7q5 1 8 5l25 57q1 2 -0.5 3t-3.5 0q-82 -57 -171 -57q-100 0 -156 65q-55 65 -55 172q0 85 34 171q2 5 0 5q-82 28 -124 79q-34 40 -34 91q0 43 24.5 78.5t63.5 49.5q12 4 18 4q25 0 25 -22q0 -17 -17 -28q-53 -35 -53 -77q0 -33 35 -62
t93 -44q3 -2 5 3q70 125 178.5 191t211.5 66q107 0 144 -59q15 -26 15 -54q3 -88 -118 -166.5t-292 -75.5q-31 0 -63 3q-5 0 -6 -4q-27 -71 -27 -136q0 -72 29.5 -116.5t82.5 -44.5q66 0 133.5 46.5t116.5 126.5q25 41 57 116l14 32q11 26 40 26h63q19 0 19 -19l-2 -8
l-173 -386q-1 -1 -0.5 -2t1.5 -1q54 14 81 28q74 38 138 149q9 13 22 13q12 0 19.5 -8.5t7.5 -22.5q0 -16 -10 -32q-38 -64 -69 -99.5t-77 -61.5q-55 -30 -148 -50q-1 -1 -5 -4q-43 -97 -91 -141q-56 -48 -132 -48q-49 0 -79 23t-30 65zM667 667q0 12 -8 22q-16 22 -58 22
q-68 0 -152.5 -57t-141.5 -155q-2 -2 1 -2q87 -2 174 27t137.5 69.5t47.5 73.5zM447 -64q0 1 -1 2t-2 0q-54 -10 -80 -18.5t-43 -25.5q-16 -16 -16 -33q0 -12 9.5 -20t24.5 -8q60 0 108 103z" />
    <glyph glyph-name="H" unicode="H" horiz-adv-x="955" 
d="M595 -79q0 91 50 202l54 123q1 1 0 2.5t-2 1.5l-229 8q-2 2 -5 -2q-59 -118 -129 -189q-71 -71 -171 -71q-73 0 -118 43t-45 106q0 68 52 118.5t122 50.5q33 0 33 -25q0 -10 -8 -19t-20 -11q-46 -9 -71.5 -35t-25.5 -58q0 -31 20.5 -51.5t52.5 -20.5q94 0 187 166
q2 2 -2 4l-30 1q-12 0 -20 8t-8 19t8 18.5t20 8.5l60 2q3 1 6 4q2 6 13 27q82 169 141 256q1 1 0 2.5t-3 1.5l-39 16q-85 33 -128 45.5t-82 12.5q-74 0 -131 -28q-58 -28 -73 -82q-5 -18 -5 -34q0 -37 23.5 -59.5t56.5 -22.5q41 0 61 32q12 18 28 18q10 0 17.5 -7.5
t7.5 -17.5q0 -8 -4 -15q-31 -70 -111 -70q-55 0 -97 39.5t-42 102.5q0 16 5 44q19 80 89.5 133t168.5 53q68 0 128 -23q65 -25 138 -65l32 -17q4 -2 5 2q71 80 129 80q43 0 62 -37q9 -13 9 -34q0 -38 -38 -66.5t-92 -28.5q-23 0 -38 4q-2 0 -5 -3q-23 -43 -65 -151
q-32 -84 -40 -103q-1 -1 0 -2.5t2 -1.5l236 9q4 0 5 4l124 278q27 62 62 90t91 28q10 0 15.5 -9t1.5 -18l-267 -600q-63 -149 -63 -217q0 -58 42 -61q14 -1 22.5 -9t8.5 -18q0 -13 -12 -21.5t-33 -8.5q-137 0 -137 148zM714 683q-5 8 -13 8q-26 0 -57 -41q-1 -1 -0.5 -2
t1.5 -1q4 -1 17 -1q26 0 42 13t10 24z" />
    <glyph glyph-name="I" unicode="I" horiz-adv-x="605" 
d="M0 145q0 68 52 118.5t122 50.5q33 0 33 -25q0 -10 -8 -19t-20 -11q-46 -9 -71.5 -35t-25.5 -58q0 -31 20.5 -51.5t52.5 -20.5q94 0 191 175l42 83q88 181 146 263q2 2 0 4q-24 15 -29 19q-45 29 -67 39t-44 10q-20 0 -32.5 -13t-12.5 -32q0 -27 22 -43q14 -11 14 -25
q0 -10 -8 -17t-19 -7q-8 0 -15 4q-61 28 -61 94q0 47 34.5 85t84.5 38q33 0 62.5 -15t74.5 -50l40 -30q3 -1 5 1q47 51 87 66q18 6 33 6q31 0 51.5 -20.5t20.5 -50.5q0 -48 -50 -75q-37 -22 -91 -19q-14 0 -27 3q-3 0 -5 -3q-21 -35 -56 -139l-42 -111q-11 -31 -40 -94
q-57 -122 -128.5 -183t-172.5 -61q-73 0 -118 43t-45 106zM714 683q-5 8 -13 8q-26 0 -57 -41q-1 -1 -0.5 -2t1.5 -1q4 -1 17 -1q26 0 42 13t10 24z" />
    <glyph glyph-name="J" unicode="J" horiz-adv-x="764" 
d="M0 -81q0 66 50 118q60 60 169 60q46 0 124 -12q6 -1 27 -4q4 0 5 4q37 68 89 178q61 123 105 208q40 79 79 135q2 4 -2 5q-52 22 -65 28q-66 27 -96 37t-57 10q-35 0 -56 -18.5t-21 -44.5q0 -23 17 -39t39 -16q16 0 27 8q10 6 21 6t18.5 -7t7.5 -17q0 -15 -19 -30
q-30 -21 -68 -21q-50 0 -87.5 33.5t-37.5 87.5q0 63 45.5 103.5t111.5 40.5q40 0 79.5 -14.5t113.5 -51.5q36 -20 72 -36q3 -2 7 2q49 55 91 71q18 6 33 6q30 0 51 -20.5t21 -50.5q0 -48 -50 -75q-38 -20 -80 -20q-22 0 -37 4q-3 0 -5 -2q-22 -36 -66 -153l-39 -100
l-59 -143q-19 -46 -53 -115q-1 -1 0 -2t2 -1q91 3 150 41q58 38 101 114q9 14 23 14q10 0 18 -8.5t8 -22.5q0 -16 -10 -32q-45 -79 -108 -121q-92 -62 -224 -63q-5 0 -6 -3q-66 -112 -134 -165t-162 -53q-76 0 -119.5 42.5t-43.5 104.5zM833 683q-5 8 -13 8q-26 0 -57 -41
q-1 -1 0 -2t2 -1q3 -1 16 -1q26 0 42 13t10 24zM326 -1q2 2 -2 2l-26 3q-70 8 -102 8q-25 0 -32 -1q-47 -5 -73 -28t-26 -54q0 -29 22 -49t56 -20q44 0 92 35t91 104z" />
    <glyph glyph-name="K" unicode="K" horiz-adv-x="850" 
d="M561 -100q0 26 9 80l6 46q6 37 6 68q0 131 -114 162q-4 0 -6 -2q-58 -117 -129 -187q-71 -71 -170 -71q-73 0 -118 43t-45 106q0 68 52 118.5t122 50.5q33 0 33 -25q0 -10 -8 -19t-20 -11q-46 -9 -71.5 -35t-25.5 -58q0 -31 20.5 -51.5t52.5 -20.5q93 0 191 173l22 42
l21 43q85 174 140 256q2 2 -2 4l-39 16q-85 33 -128 45.5t-82 12.5q-68 0 -121.5 -24t-76.5 -68q-11 -28 -11 -53q0 -36 23.5 -58.5t56.5 -22.5q41 0 61 32q12 18 28 18q10 0 17.5 -7.5t7.5 -17.5q0 -8 -4 -15q-31 -70 -111 -70q-55 0 -97 39t-42 101q0 40 17.5 82t48.5 73
q75 77 197 77q68 0 128 -23q65 -25 138 -65l32 -17q3 -1 5 1q43 49 82 69q25 12 46 12q31 0 51.5 -20.5t20.5 -50.5q0 -46 -50 -75q-38 -20 -81 -20q-21 0 -36 4q-4 0 -6 -3q-21 -38 -65 -151q-19 -56 -37 -97q0 -1 2 -3q75 7 125 33q49 27 87 71q39 45 94 130
q95 144 158 165q8 2 15 2q29 0 29 -26q0 -20 -20 -28q-25 -9 -44 -36t-49 -89q-76 -155 -131.5 -210t-159.5 -74q-4 0 -1 -3q99 -68 99 -211q0 -66 -19 -139l-5 -22q-5 -23 -5 -33q0 -30 30 -30q14 0 22 -8.5t8 -20.5q0 -13 -9 -22t-23 -9q-79 0 -110.5 27t-31.5 100z
M714 683q-5 8 -13 8q-26 0 -57 -41q-1 -1 -0.5 -2t1.5 -1q4 -1 17 -1q26 0 42 13t10 24z" />
    <glyph glyph-name="L" unicode="L" horiz-adv-x="713" 
d="M344 30q-37 18 -62 33q-3 1 -7 0q-77 -67 -153 -67q-42 0 -74 21t-43 55q-5 18 -5 31q0 47 36.5 82.5t94.5 35.5q49 0 112 -33q3 -2 6 1q45 68 68 151l27 92q0 3 -2 3q-102 28 -148 86q-34 40 -34 91q0 43 24.5 78.5t63.5 49.5q8 4 18 4q25 0 25 -22q0 -17 -17 -28
q-53 -35 -53 -77q0 -35 38.5 -64.5t105.5 -44.5q3 0 5 3q38 113 110 184q77 76 171 76q60 0 100.5 -33.5t40.5 -84.5q0 -44 -32.5 -91t-83.5 -81q-97 -64 -221 -63q-3 0 -4 -4q-23 -89 -47 -159q-22 -63 -63 -120q-2 -2 1 -4q16 -9 41 -21q66 -28 129 -28q62 0 100 28
q46 30 97 121q11 17 26 17q12 0 21 -8.5t9 -20.5q0 -8 -4 -15q-56 -106 -114 -155q-62 -53 -152 -53q-76 0 -151 34zM688 600q29 38 29 63q0 18 -14 29t-36 11q-35 0 -73 -26q-84 -59 -118 -177q-2 -3 3 -3q61 1 117 29.5t92 73.5zM186 121q1 4 -1 5q-41 24 -72 24
q-23 0 -38 -13t-15 -29q0 -13 10.5 -22t27.5 -9q39 0 88 44z" />
    <glyph glyph-name="M" unicode="M" horiz-adv-x="1110" 
d="M750 -79q0 91 50 202q60 136 79 179l101 228q3 5 -1 5q-3 1 -6 -2q-101 -108 -202 -250q-105 -145 -165 -251q-8 -17 -31 -17q-16 0 -25.5 9.5t-6.5 26.5q9 57 9 145q0 123 -14 221q0 3 -3 0q-55 -132 -107 -224q-111 -197 -265 -197q-73 0 -118 43t-45 106
q0 68 52 118.5t122 50.5q33 0 33 -25q0 -10 -8 -19t-20 -11q-46 -9 -71.5 -35t-25.5 -58q0 -31 20.5 -51.5t52.5 -20.5q51 0 97 45q46 47 90 117q36 60 110 201l53 100q2 5 1 6q-7 19 -10 24q-23 59 -23 90q0 39 22.5 63t54.5 24q29 0 48 -21.5t19 -58.5q0 -41 -31 -134
q-1 -3 0 -7q50 -130 50 -273q0 -24 -1 -31q0 -1 1 -1t2 1q61 103 147 202q89 101 168 169q81 70 141 106q31 20 53 19q15 -1 24 -1q11 0 16.5 -8t1.5 -18l-267 -600q-63 -149 -63 -217q0 -58 42 -61q14 -1 22.5 -9t8.5 -18q0 -13 -12 -21.5t-33 -8.5q-137 0 -137 148z
M547 630q12 23 14 45q1 1 1 7q0 21 -13 21q-6 0 -11.5 -7.5t-5.5 -18.5q0 -17 12 -49q1 -1 2 0t1 2z" />
    <glyph glyph-name="N" unicode="N" horiz-adv-x="984" 
d="M0 145q0 68 52 118.5t122 50.5q33 0 33 -25q0 -10 -8 -19t-20 -11q-46 -9 -71.5 -35t-25.5 -58q0 -31 20.5 -51.5t52.5 -20.5q52 0 102 49.5t107 149.5q42 75 123 230l19 36q2 3 0 6q-35 85 -33 112q0 39 22.5 63t54.5 24q29 0 48 -21.5t19 -58.5q0 -38 -32 -136
q0 -3 1 -4q109 -163 132 -308q0 -2 2.5 -2.5t3.5 1.5q26 60 33 75l118 267q32 72 52 104q50 90 131 90q22 0 39 -4t27 -13.5t10 -21.5t-10.5 -19.5t-25.5 -4.5h-8q-18 0 -27.5 -11.5t-25.5 -47.5q-52 -115 -142 -319t-98 -222q-19 -40 -33 -82q-8 -26 -38 -26h-64
q-23 0 -23 29q0 143 -22 235q-23 98 -62 194q0 1 -1 1t-1 -1q-46 -119 -81 -190q-39 -82 -81 -143q-89 -129 -228 -129q-73 0 -118 43t-45 106zM547 630q12 23 14 45q1 1 1 7q0 21 -13 21q-6 0 -11.5 -7.5t-5.5 -18.5q0 -17 12 -49q1 -1 2 0t1 2z" />
    <glyph glyph-name="O" unicode="O" horiz-adv-x="817" 
d="M119 245q0 96 39 195q1 1 0.5 2t-1.5 1q-78 26 -117.5 70.5t-39.5 98.5q0 43 24.5 78.5t63.5 49.5q10 3 18 3q25 0 25 -21q0 -17 -17 -28q-53 -36 -53 -77q0 -34 34.5 -62.5t93.5 -43.5q1 -1 5 2q70 126 178.5 192t211.5 66q107 0 144 -59q15 -26 15 -55
q3 -87 -118.5 -165.5t-284.5 -75.5q-32 0 -67 3q-3 0 -5 -3q-30 -84 -30 -161q0 -79 33.5 -124.5t98.5 -45.5q91 0 171 68q78 66 127 170q48 103 51 201q0 15 10 25.5t23 10.5q21 0 23 -25q2 -34 2 -40q0 -126 -56 -250q-55 -121 -154 -200q-97 -78 -213 -78
q-112 0 -173.5 78t-61.5 200zM667 666q0 13 -8 23q-16 22 -58 22q-68 0 -152.5 -57t-141.5 -155q-1 -1 -0.5 -2t1.5 -1q66 -1 134 16t117 43t79.5 56t28.5 55z" />
    <glyph glyph-name="P" unicode="P" horiz-adv-x="920" 
d="M535 240q-17 14 -17 28q0 10 8.5 17t20.5 7q7 0 13 -3q25 -13 58 -13q78 -2 146.5 71.5t66.5 175.5q0 77 -46 129t-134 52q-74 0 -149 -40.5t-134 -116.5q-11 -14 -25 -14q-22 0 -22 25q0 9 5 21q45 89 142.5 141t203.5 52q132 0 202.5 -73.5t70.5 -182.5
q2 -91 -43 -165.5t-112.5 -112.5t-136.5 -37q-70 0 -118 39zM0 144q0 69 52 119.5t122 50.5q33 0 33 -25q0 -10 -8 -19t-20 -11q-46 -9 -71.5 -35t-25.5 -58q0 -31 20.5 -51.5t52.5 -20.5q93 0 191 173q33 62 62 122q61 128 103 192t90 92q13 7 21 7q13 0 13 -14
q0 -11 -7 -24q-32 -67 -52 -120q-23 -59 -39 -104l-33 -88q-13 -32 -39 -85q-127 -249 -302 -249q-73 0 -118 42.5t-45 105.5z" />
    <glyph glyph-name="Q" unicode="Q" horiz-adv-x="817" 
d="M460 -45l-4 25q0 3 -4 3q-48 -16 -99 -16q-110 0 -172 78t-62 200q0 96 39 195q1 1 0.5 2t-1.5 1q-78 26 -117.5 70.5t-39.5 98.5q0 43 24.5 78.5t63.5 49.5q10 3 18 3q25 0 25 -21q0 -17 -17 -28q-53 -36 -53 -77q0 -34 34.5 -62.5t93.5 -43.5q1 -1 5 2
q70 126 178.5 192t211.5 66q107 0 144 -59q15 -26 15 -55q3 -87 -118.5 -165.5t-284.5 -75.5q-32 0 -67 3q-3 0 -5 -3q-30 -84 -30 -161q0 -79 33.5 -124.5t97.5 -45.5q31 0 67 10q3 0 3 4q-10 40 -32 60.5t-63 24.5q-14 1 -23 9.5t-9 20.5t9 19.5t24 7.5q122 0 174 -101
q0 -2 4 -1q82 60 137.5 170.5t58.5 214.5q0 15 10 25.5t23 10.5q21 0 23 -25q2 -34 2 -40q0 -130 -61.5 -258.5t-159.5 -199.5q-4 -4 -2 -7l12 -64q16 -70 34.5 -101.5t55.5 -31.5q15 0 23.5 -9t8.5 -22q0 -12 -9.5 -21t-24.5 -9q-88 0 -131 38t-63 145zM667 666q0 13 -8 23
q-16 22 -58 22q-68 0 -152.5 -57t-141.5 -155q-1 -1 -0.5 -2t1.5 -1q66 -1 134 16t117 43t79.5 56t28.5 55z" />
    <glyph glyph-name="R" unicode="R" horiz-adv-x="920" 
d="M608 -98q-1 37 12 130q15 105 14 162q0 4 -4 4q-54 -1 -83.5 24t-29.5 62q0 31 22 53.5t54 22.5q65 0 108 -65q1 -2 5 -1q58 37 91 100t33 130q0 78 -46 128q-46 52 -133 52q-74 0 -149 -40.5t-134 -116.5q-11 -14 -25 -14q-22 0 -22 25q0 9 5 21q45 89 142.5 141
t203.5 52q131 0 202 -72.5t71 -181.5q0 -98 -56.5 -183t-151.5 -118q-3 -3 -1 -4q12 -54 12 -120q0 -84 -16 -176q-7 -32 -7 -49q0 -35 33 -35q14 0 23 -9t9 -22q0 -12 -8 -20.5t-22 -8.5q-80 0 -114 27.5t-38 101.5zM0 144q0 69 52 119.5t122 50.5q33 0 33 -25
q0 -10 -8 -19t-20 -11q-46 -9 -71.5 -35t-25.5 -58q0 -31 20.5 -51.5t52.5 -20.5q93 0 191 173q33 62 62 122q61 128 103 192t90 92q13 7 21 7q13 0 13 -14q0 -11 -7 -24q-32 -67 -52 -120q-23 -59 -39 -104l-33 -88q-13 -32 -39 -85q-127 -249 -302 -249q-73 0 -118 42.5
t-45 105.5zM621 261q3 0 3 4q-4 19 -13 29t-20 10q-9 0 -16 -7q-4 -7 -4 -11q0 -10 11.5 -18t28.5 -8q7 0 10 1z" />
    <glyph glyph-name="S" unicode="S" horiz-adv-x="643" 
d="M65 -37q0 80 53.5 137.5t129.5 57.5q32 0 32 -24t-28 -31q-58 -11 -90.5 -46t-32.5 -82q0 -58 41 -90.5t106 -32.5q76 0 131.5 46.5t55.5 112.5q0 36 -17 68q-15 30 -38 56t-68 66q-38 33 -74 71q-68 75 -69 159q-112 25 -163 90q-34 40 -34 91q0 43 24.5 78.5t63.5 49.5
q10 3 18 3q25 0 25 -21q0 -17 -17 -28q-53 -35 -53 -77q0 -36 39.5 -65.5t108.5 -44.5q24 78 94 145q69 66 162 98q62 22 123 22q83 0 126 -43q29 -32 29 -71q0 -77 -88 -145q-64 -51 -154.5 -75.5t-186.5 -21.5q9 -30 32 -57t75 -75q43 -39 82 -82q77 -84 77 -193
q0 -100 -79 -168.5t-209 -68.5q-99 0 -163 50.5t-64 140.5zM667 666q0 13 -8 23q-16 22 -58 22q-70 0 -146 -52q-48 -32 -92 -82q-39 -47 -48 -80q64 -1 131 16t114.5 43t77.5 56t29 54z" />
    <glyph glyph-name="T" unicode="T" horiz-adv-x="595" 
d="M0 144q0 69 52 119.5t122 50.5q33 0 33 -25q0 -10 -8 -19t-20 -11q-46 -9 -71.5 -35t-25.5 -58q0 -31 20.5 -51.5t52.5 -20.5q79 0 160 121q21 34 82 162q74 158 121 226q1 1 0 2.5t-2 1.5l-57 23q-126 52 -195 52q-58 0 -114 -27q-56 -25 -69 -78q-5 -25 -5 -36
q0 -37 23 -59t56 -22q42 0 62 32q11 18 28 18q10 0 17 -7.5t7 -18.5q0 -6 -3 -14q-31 -70 -111 -70q-55 0 -97 39t-42 102q0 32 10 63q24 77 93 122q71 45 160 45q71 0 129 -21q60 -20 134 -57q60 -31 95 -43.5t69 -12.5q75 0 86 86q1 14 8.5 22t17.5 8q12 0 19.5 -12.5
t7.5 -35.5q0 -54 -37 -94.5t-111 -40.5q-45 0 -91 10q-2 0 -4 -2q-33 -64 -67 -161q-30 -77 -51 -126q-16 -39 -46 -94q-117 -201 -274 -201q-73 0 -118.5 43t-45.5 105z" />
    <glyph glyph-name="U" unicode="U" horiz-adv-x="874" 
d="M198 161q0 71 30 153q26 75 72 160q44 81 78 133q1 1 0 2.5t-2 1.5l-65 27q-108 48 -152 48q-36 0 -56.5 -18.5t-20.5 -45.5q0 -23 17 -39t39 -16q13 0 27 8q10 7 21 7t18.5 -7t7.5 -17q0 -15 -19 -30q-30 -21 -68 -21q-50 0 -87.5 33.5t-37.5 87.5q0 63 45.5 103
t111.5 40q40 0 82.5 -15.5t110.5 -50.5q26 -13 71 -34q5 -1 7 1q68 77 126 77q31 0 51 -21.5t20 -49.5q0 -39 -37 -67t-94 -28q-15 0 -33 3q-5 0 -6 -3q-38 -74 -81 -179q-42 -104 -52 -163q-5 -35 -5 -55q0 -101 79 -101q63 0 128 62q65 61 114 169l6 14l128 287
q32 71 68 94q36 24 87 24q9 0 14 -9t1 -18l-94 -210q-82 -188 -120 -270q-34 -77 -43 -107q-2 -6 -2 -11q0 -13 10 -20.5t25 -7.5q18 0 34 10q53 29 117 134q8 14 22 14q10 0 18 -8.5t8 -22.5t-9 -32q-48 -89 -99 -133t-119 -44q-43 0 -74 18t-41 51q-1 3 -4 3.5t-5 -1.5
q-72 -96 -191 -96q-86 0 -131.5 49.5t-45.5 136.5zM564 683q-5 8 -13 8q-26 0 -57 -41q-1 -1 -0.5 -2t1.5 -1q16 -2 17 -2q25 0 41.5 13.5t10.5 24.5z" />
    <glyph glyph-name="V" unicode="V" horiz-adv-x="782" 
d="M209 159q0 68 26 157q19 61 56 140q41 87 87 155l-67 27q-108 48 -152 48q-36 0 -56.5 -18.5t-20.5 -45.5q0 -23 17 -39t39 -16q13 0 27 8q10 7 21 7t18.5 -7t7.5 -17q0 -15 -19 -30q-30 -21 -68 -21q-50 0 -87.5 33.5t-37.5 87.5q0 63 45.5 103t111.5 40
q40 0 82.5 -15.5t110.5 -50.5l74 -36q67 79 130 79q44 0 63 -37q8 -16 8 -33q0 -38 -37.5 -66.5t-92.5 -28.5q-19 0 -38 3q-38 -74 -68 -155q-35 -95 -50 -144q-34 -111 -34 -170q0 -63 34 -63q33 0 79 58q44 54 139 208l79 127q81 132 123 192q90 130 168 130q44 0 65 -34
q5 -8 5 -15q0 -12 -9 -20t-23 -8q-11 0 -21 6q-6 3 -11 3q-8 0 -19 -8q-29 -21 -75 -109q-24 -43 -39 -76q-55 -109 -86 -165q-44 -77 -97 -152q-68 -98 -141.5 -151t-137.5 -53q-59 0 -94 45.5t-35 126.5zM545 652q20 11 20 25t-16 14q-9 0 -22 -7q-18 -11 -35 -37
q18 -2 20 -2q18 0 33 7z" />
    <glyph glyph-name="W" unicode="W" horiz-adv-x="1146" 
d="M574 120q0 3 -2.5 3.5t-4.5 -1.5q-53 -64 -113 -99.5t-113 -35.5q-61 0 -97 45t-36 127q0 65 27 157q17 56 55 139t86 153q2 2 -2 4q-14 5 -63 26q-108 48 -152 48q-36 0 -56.5 -18.5t-20.5 -45.5q0 -23 17 -39t39 -16q13 0 27 8q10 7 21 7t18.5 -7t7.5 -17
q0 -15 -19 -30q-30 -21 -68 -21q-50 0 -87.5 33.5t-37.5 87.5q0 63 45.5 103t111.5 40q40 0 82.5 -15.5t110.5 -50.5q59 -29 69 -34q5 -1 7 1q69 77 128 77q42 0 61 -34q10 -16 10 -37q0 -37 -37.5 -66t-92.5 -29q-17 0 -35 3q-2 0 -4 -2q-38 -75 -70 -159q-30 -80 -47 -138
q-34 -106 -34 -174q0 -59 34 -59q37 0 89 61q53 60 93 122q43 66 110 189q82 146 115 197q81 123 145 123q34 0 34 -18q0 -10 -7 -18q-156 -229 -215 -423q-34 -106 -34 -174q0 -59 33 -59t79 57t118 174l22 35l79 127q81 132 123 192q90 130 168 130q44 0 65 -34
q5 -8 5 -15q0 -12 -9 -20t-23 -8q-11 0 -21 6q-6 3 -11 3q-8 0 -19 -8q-29 -21 -75 -109q-24 -43 -39 -76q-54 -109 -86 -165q-44 -77 -97 -152q-70 -102 -141 -153.5t-133 -51.5q-53 0 -89 36.5t-44 97.5zM564 683q-5 8 -15 8q-29 0 -55 -40q-1 -1 -0.5 -2.5t1.5 -1.5
q16 -2 17 -2q25 0 41.5 13.5t10.5 24.5z" />
    <glyph glyph-name="X" unicode="X" horiz-adv-x="872" 
d="M621 -43q-24 86 -41 229q0 1 -1 1.5t-2 -0.5q-213 -191 -396 -191q-83 0 -132 41t-49 107q0 69 52 119.5t122 50.5q33 0 33 -25q0 -10 -8 -19t-20 -11q-46 -9 -71.5 -35t-25.5 -58q0 -34 24 -54.5t68 -20.5q71 0 170 55.5t213 165.5l7 7q4 1 2 6q0 11 -2.5 46.5
t-3.5 58.5q-2 66 -2 76q0 48 6 88q0 4 -4 5q-45 16 -100 39q-108 48 -152 48q-36 0 -56.5 -18.5t-20.5 -45.5q0 -23 17 -39t39 -16q13 0 27 8q10 7 21 7t18.5 -7t7.5 -17q0 -16 -20 -30q-29 -21 -67 -21q-50 0 -87.5 33.5t-37.5 87.5q0 63 45.5 103t110.5 40q41 0 83 -15
t111 -51q52 -28 80 -39q4 0 6 2q18 37 50 58t66 21q47 0 67 -39q6 -14 6 -29q0 -37 -35.5 -66.5t-91.5 -29.5q-3 0 -3 -3q2 -49 16 -143l2 -18q2 -2 4 0l73 75q149 152 209 202q85 67 144 67q32 0 52 -20q8 -8 8 -19q0 -12 -9 -20.5t-23 -8.5q-11 0 -20 4q-8 2 -12 2
q-37 0 -88 -47q-30 -26 -70 -71q-36 -41 -105 -123q-77 -94 -141 -165q-2 -2 -2 -5q31 -211 51 -308q17 -76 39 -108q24 -32 70 -42q29 -8 29 -30q0 -18 -17 -26q-4 -3 -15 -3q-90 0 -140.5 44.5t-77.5 139.5zM698 655q16 9 16 21q0 16 -19 16q-9 0 -19 -6q-18 -13 -25 -36
q0 -4 3 -4q27 -2 44 9z" />
    <glyph glyph-name="Y" unicode="Y" horiz-adv-x="877" 
d="M279 -140q0 67 60 100t146 54l22 6q3 0 4 3l19 45q0 1 -2 3q-58 -31 -120 -31q-80 0 -135 51.5t-55 142.5q0 66 28 138q36 99 131 234q3 4 -1 5l-65 27q-108 48 -152 48q-36 0 -56.5 -18.5t-20.5 -45.5q0 -23 17 -39t39 -16q13 0 27 8q10 7 21 7t18.5 -7t7.5 -17
q0 -15 -19 -30q-30 -21 -68 -21q-50 0 -87.5 33.5t-37.5 87.5q0 63 45.5 103t111.5 40q40 0 82.5 -15.5t110.5 -50.5q26 -13 71 -34q5 -1 7 1q68 77 126 77q31 0 51 -21.5t20 -49.5q0 -39 -37 -67t-94 -28q-15 0 -33 3q-5 0 -6 -3q-54 -106 -92 -209q-26 -72 -26 -126
q0 -57 27 -89t71 -32q52 0 106 44.5t91 125.5l142 320q28 61 63.5 89.5t90.5 28.5q10 0 15 -9t1 -18l-291 -656q-2 -2 2 -2q49 12 78 27q76 39 139 149q8 14 22 14q10 0 18 -9t8 -23q0 -16 -10 -32q-34 -62 -66.5 -98.5t-78.5 -62.5q-51 -31 -146 -49q-1 0 -5 -4
q-42 -94 -95 -142t-130 -48q-49 0 -79.5 23.5t-30.5 64.5zM564 683q-5 8 -13 8q-26 0 -57 -41q-1 -1 -0.5 -2t1.5 -1q16 -2 17 -2q25 0 41.5 13.5t10.5 24.5zM473 -66q0 3 -3 3q-49 -9 -73.5 -17.5t-41.5 -25.5q-16 -16 -16 -33q0 -12 9.5 -20t25.5 -8q31 0 57 28t42 73z
" />
    <glyph glyph-name="Z" unicode="Z" horiz-adv-x="675" 
d="M314 9l-42 45q-2 2 -5 0q-73 -58 -139 -58q-60 0 -94 30.5t-34 76.5q0 47 36.5 82.5t94.5 35.5q54 0 112 -34q5 -2 6 1l47 52q86 98 150 168l4.5 4.5l5.5 5.5l5 5q73 81 188 199q1 1 1 2t-1 1q-64 24 -141 43q-74 18 -129 18q-100 0 -100 -64q0 -23 17.5 -39t39.5 -16
q15 0 28 8q10 7 20 7q11 0 18.5 -7t7.5 -17q0 -17 -19 -30q-29 -21 -67 -21q-50 0 -87.5 33.5t-37.5 87.5q0 66 49 105q50 39 123 39q62 0 136.5 -23.5t190.5 -75.5q2 -2 5 1q56 50 101 67q22 8 43 8q35 0 56.5 -20.5t21.5 -51.5q0 -49 -54 -75q-29 -16 -72 -16q-28 0 -53 7
q-1 0 -3 -1t-3 -1q-172 -218 -211 -264q-107 -126 -189 -208q-2 -2 1 -5q41 -38 82 -79q55 -55 104 -97q99 -87 186 -87q43 0 75 19t38 45t29 26q12 0 19.5 -9t5.5 -24q-7 -62 -64 -99.5t-130 -37.5q-70 0 -136 36q-64 33 -118 83q-44 40 -118 119zM847 654q19 10 19 22
t-15 12q-9 0 -22 -6q-28 -15 -41 -33q-1 -1 -0.5 -2t2.5 -1q32 -3 57 8zM187 122q2 3 0 5q-38 23 -70 23q-26 0 -41.5 -12t-15.5 -30q0 -13 10.5 -22t28.5 -9q39 0 88 45z" />
    <glyph glyph-name="bracketleft" unicode="[" horiz-adv-x="537" 
d="M52 -95l237 536l171 386q11 26 41 26h166q12 0 21 -8.5t9 -21.5q0 -12 -9 -21t-21 -9h-105q-4 0 -5 -3q-226 -510 -375 -847q-1 -1 0 -2t2 -1h83q13 0 21.5 -8.5t8.5 -21.5t-8.5 -21.5t-21.5 -8.5h-198q-10 0 -15.5 8t-1.5 17z" />
    <glyph glyph-name="backslash" unicode="\" horiz-adv-x="624" 
d="M463 -201l-411 940q-2 6 -2 7q0 19 19 19h51q30 0 41 -26l412 -940q1 -1 1 -7q0 -19 -19 -19h-51q-30 0 -41 26z" />
    <glyph glyph-name="bracketright" unicode="]" horiz-adv-x="722" 
d="M25 -90q0 13 8.5 21.5t21.5 8.5h105q4 0 5 3l375 847q1 1 0 2t-2 1h-83q-13 0 -21.5 9t-8.5 21q0 13 8.5 21.5t21.5 8.5h198q10 0 15.5 -8t1.5 -17q-105 -240 -408 -921q-12 -27 -41 -27h-166q-13 0 -21.5 8.5t-8.5 21.5z" />
    <glyph glyph-name="asciicircum" unicode="^" horiz-adv-x="456" 
d="M106 582q-6 8 -6 18q0 15 12 24l154 110q7 6 17 6q17 0 26 -14l67 -108q5 -7 5 -16q0 -17 -14 -26q-7 -4 -16 -4q-17 0 -25 14l-49 78q-3 3 -5 1l-124 -90q-8 -5 -18 -5q-15 0 -24 12z" />
    <glyph glyph-name="underscore" unicode="_" horiz-adv-x="553" 
d="M-15 -121l28 63h555l-28 -63h-555z" />
    <glyph glyph-name="grave" unicode="`" horiz-adv-x="251" 
d="M149 608l-91 98q-8 8 -8 20q0 13 10 22q8 8 20 8q13 0 22 -10l91 -97q8 -11 8 -21q0 -12 -10 -22q-11 -8 -20 -8q-15 0 -22 10z" />
    <glyph glyph-name="a" unicode="a" horiz-adv-x="552" 
d="M254 62q-7 11 -15 3q-65 -65 -139 -65q-91 0 -115 90q-6 22 -6 48q0 47 19 103q32 92 108 153t145 59q59 0 91 -32q6 -6 16 -20h2l10 23q14 27 41 27h63q11 0 16 -8.5t1 -18.5q-100 -222 -129 -299q-2 -6 -2 -13q0 -13 10 -21t26 -8q18 0 33 9q58 31 117 134q8 14 22 14
q10 0 18.5 -8.5t8.5 -22.5q0 -16 -10 -32q-53 -91 -102 -134t-115 -43q-39 0 -70 17t-44 45zM283 229q35 72 35 96q0 40 -45 40q-33 0 -74 -26q-71 -50 -102 -133q-15 -40 -15 -72q0 -45 36 -45q33 0 86 41t79 99z" />
    <glyph glyph-name="b" unicode="b" horiz-adv-x="470" 
d="M-14 155q0 71 28 152q36 104 92 211q56 105 116 177q60 70 106 70q12 0 23 -6q28 -15 28 -56q0 -43 -28 -92q-33 -63 -158 -210l-43 -52l-5 -6l-25 -66q-28 -72 -28 -122q0 -66 48 -66q16 0 34 9q24 11 46 31q3 3 1 5q-25 31 -34 59q-13 36 -13 77q0 80 51 115
q22 16 52 16q41 0 64 -28.5t23 -75.5q0 -63 -37 -134q0 -2 2 -4q15 -5 32 -5q58 0 107 82q9 14 24 14q10 0 17 -8t7 -22q0 -18 -14 -43q-61 -101 -157 -101q-31 0 -63 12q-5 2 -6 -1q-74 -87 -163 -87q-64 0 -95.5 41t-31.5 114zM297 638q11 20 18 40t1 20q-7 0 -37 -41
q-27 -41 -65 -131q0 -1 1 -1.5t2 0.5q61 77 80 113zM281 207q22 47 22 90l-1 14q-4 22 -18 22q-8 0 -15 -8.5t-9 -21.5q-2 -18 -2 -21q0 -41 20 -76q1 -1 2 -0.5t1 1.5z" />
    <glyph glyph-name="c" unicode="c" horiz-adv-x="434" 
d="M-14 164q0 66 37 131q39 70 102 116q65 48 133 48q50 0 84 -29.5t34 -71.5q0 -47 -38 -80q-19 -16 -39 -16t-34.5 14.5t-14.5 33.5q0 28 30 42q13 7 13 12q0 8 -21 8q-16 0 -31 -4q-49 -15 -88 -57t-54 -100q-4 -15 -4 -35q0 -44 28.5 -71t78.5 -27q35 0 74 13
q90 27 152 134q8 14 22 14q10 0 18.5 -8.5t8.5 -22.5t-11 -33q-106 -179 -295 -179q-88 0 -136.5 46.5t-48.5 121.5z" />
    <glyph glyph-name="d" unicode="d" horiz-adv-x="552" 
d="M-15 90q-6 22 -6 48q0 46 20 103q32 93 107.5 153.5t144.5 58.5q64 0 99 -41q7 -7 8 -10q1 -1 3 -1q3 9 9.5 23.5t8.5 18.5l119 268q11 23 40 23h64q10 0 15.5 -8.5t1.5 -17.5l-109 -243l-96 -214q-30 -67 -52 -126q0 -3 -0.5 -6t-1 -4.5t-0.5 -2.5q0 -13 10 -21t26 -8
q20 0 33 9q55 28 117 134q8 14 22 14q12 0 19.5 -8.5t7.5 -22.5q0 -16 -10 -32q-52 -91 -101 -134t-115 -43q-39 0 -70 17t-44 45q-7 11 -15 3q-65 -65 -139 -65q-92 0 -116 90zM283 229l19 39q17 36 17 58q0 18 -12 28.5t-33 10.5q-34 0 -75 -26q-71 -49 -102 -132
q-15 -43 -15 -72q0 -45 36 -45q33 0 85.5 41t79.5 98z" />
    <glyph glyph-name="e" unicode="e" horiz-adv-x="433" 
d="M-15 165q0 66 37 130q39 70 102 116q64 48 133 48q53 0 85.5 -29.5t32.5 -73.5q0 -45 -37 -85q-72 -76 -240 -87q-4 0 -4 -3q-2 -46 27 -74.5t81 -28.5q35 0 73 13q89 27 152 134q8 14 22 14q12 0 19.5 -8.5t7.5 -22.5q0 -16 -10 -32q-108 -180 -297 -180
q-86 0 -135 46.5t-49 122.5zM270 303q28 26 28 48t-27 22q-6 0 -31 -5q-40 -12 -75 -43.5t-53 -75.5q-1 -1 0 -2t2 0q112 17 156 56z" />
    <glyph glyph-name="f" unicode="f" horiz-adv-x="299" 
d="M-190 -208l2 8l183 409q1 1 1 7q-3 14 -3 30q0 38 17.5 68t45.5 42q2 0 5 4q38 100 89.5 192t106.5 153.5t94 59.5q13 0 24 -6q28 -15 28 -56q0 -43 -28 -92q-21 -39 -57 -85q-33 -44 -101 -125l-36 -43q-3 -3 -4 -6l-70 -157q-2 -3 1 -6q28 -40 85 -40q55 0 100 77
q9 14 22 14q12 0 19.5 -8.5t7.5 -22.5q0 -16 -10 -32q-53 -96 -150 -96q-60 0 -109 29q-4 2 -5 -2l-136 -308q-12 -27 -41 -27h-63q-7 0 -12.5 5.5t-5.5 13.5zM321 638q11 20 17.5 40t0.5 20q-7 0 -36 -41q-27 -41 -65 -131l2 -1h1q51 62 80 113z" />
    <glyph glyph-name="g" unicode="g" horiz-adv-x="551" 
d="M-48 -140q0 94 156 137q3 1 1 2q-1 1 -2 1q-97 -5 -122 90q-5 22 -5 48q0 47 19 103q32 93 107.5 153.5t144.5 58.5h14q60 -5 93 -51q1 -1 4 3l9 20q11 26 40 26h63q19 0 19 -19q0 -2 -2 -8q-86 -194 -167 -372q0 -1 0.5 -2t1.5 0q52 12 80 28q73 34 139 148q8 14 22 14
q12 0 19.5 -8.5t7.5 -22.5q0 -16 -10 -32q-37 -64 -68.5 -100t-77.5 -62q-48 -26 -148 -50q-5 0 -6 -4q-42 -95 -92.5 -141.5t-127.5 -46.5q-52 0 -82 24.5t-30 62.5zM278 218l17 38q4 10 20 46q4 9 4 22q0 41 -46 41q-37 0 -77 -27q-70 -48 -105 -134q-15 -41 -15 -71
q0 -52 47 -52q84 0 155 137zM154 -64q2 3 -2 3q-12 -3 -30 -6l-23 -5q-45 -11 -67 -30q-19 -18 -19 -36q0 -12 9.5 -20.5t24.5 -8.5q62 0 107 103z" />
    <glyph glyph-name="h" unicode="h" 
d="M215 104q0 22 11 58q20 54 41 102l16 39q11 27 11 44q0 28 -29 28q-45 0 -89 -53q-42 -51 -70 -113l-81 -182q-12 -27 -41 -27h-62q-10 0 -15.5 8.5t-1.5 17.5l146 330q63 145 144 278q80 131 147 131q12 0 26 -6q28 -16 28 -56t-28 -92q-29 -55 -120 -164q-3 -3 1 -3
q18 6 41 6q49 0 79.5 -29t30.5 -81q0 -40 -18 -86l-17 -43q-25 -54 -35 -88q-3 -6 -3 -12q0 -13 10 -21t25 -8q18 0 34 10q55 28 117 134q8 14 22 14q12 0 19.5 -8.5t7.5 -22.5t-9 -32l-34 -57q-80 -119 -182 -120h-4q-53 0 -85.5 28t-32.5 76zM314 638q11 20 17.5 40
t0.5 20q-7 0 -36 -41q-34 -51 -65 -131q-1 -2 0.5 -2t2.5 1q51 62 80 113z" />
    <glyph glyph-name="i" unicode="i" horiz-adv-x="262" 
d="M150 579q0 25 17.5 42t41.5 17q25 0 42.5 -17t17.5 -42t-17.5 -42t-42.5 -17q-24 0 -41.5 17t-17.5 42zM-45 104q0 19 8 43q21 59 40 103l77 174q12 27 41 27h63q10 0 15.5 -8.5t1.5 -18.5q-83 -180 -120 -276q-11 -27 -11 -37q0 -13 11 -21t25 -8q17 0 33 10
q55 28 117 134q8 14 22 14q12 0 19.5 -8.5t7.5 -22.5q0 -16 -10 -32q-15 -29 -33 -57q-82 -120 -184 -120q-57 0 -90 29t-33 75z" />
    <glyph glyph-name="j" unicode="j" horiz-adv-x="263" 
d="M153 579q0 25 17.5 42t42.5 17q24 0 41.5 -17t17.5 -42t-17.5 -42t-41.5 -17q-25 0 -42.5 17t-17.5 42zM-335 -140q0 46 33 78q30 28 68 43.5t103 32.5l14 4t11 3l3 1q7 2 8 5l108 242l70 155q12 27 41 27h62q11 0 16 -8.5t1 -18.5l-166 -372q1 -1 1 -2q46 10 81 28
q74 38 138 148q8 14 22 14q12 0 19.5 -8.5t7.5 -22.5q0 -16 -10 -32q-37 -64 -68.5 -100t-77.5 -62q-48 -26 -148 -50q-4 0 -5 -3q-40 -91 -91 -140q-49 -49 -135 -49q-49 0 -77.5 24t-28.5 63zM-133 -64q0 3 -3 3q-12 -3 -30 -6l-23 -5q-48 -12 -70 -34q-16 -16 -16 -32
q0 -13 9.5 -21t24.5 -8q59 0 108 103z" />
    <glyph glyph-name="k" unicode="k" horiz-adv-x="480" 
d="M92 166q-1 2 -2.5 2t-2.5 -2l-62 -139q-12 -27 -41 -27h-62q-10 0 -15.5 8.5t-1.5 17.5l146 330q63 145 144 278q80 131 147 131q12 0 26 -6q28 -16 28 -56t-28 -92q-19 -36 -61 -91q-31 -40 -106 -128q0 -1 2 -3q47 27 88 27q71 0 95 -65q6 -18 6 -39
q0 -60 -50.5 -107.5t-130.5 -50.5q-2 0 -2 -3q29 -77 88 -77q69 0 137 91q19 23 40 61q8 14 22 14q12 0 19.5 -8.5t7.5 -22.5q0 -16 -10 -32q-16 -29 -37 -60q-83 -117 -187 -117q-75 0 -120.5 40.5t-76.5 125.5zM314 638q11 20 17.5 40t0.5 20q-7 0 -36 -41
q-34 -51 -65 -131q-1 -2 0.5 -2t2.5 1q51 62 80 113zM257 252q39 24 39 56t-38 32q-31 0 -67.5 -27t-68.5 -79q-1 -1 0.5 -1.5t2.5 -0.5q26 -2 32 -2q60 0 100 22z" />
    <glyph glyph-name="l" unicode="l" horiz-adv-x="297" 
d="M-13 157q0 73 28 150q35 101 92 210q57 107 117 177q60 71 106 71q12 0 24 -6q28 -16 28 -56t-28 -92q-21 -39 -57 -85q-33 -44 -101 -125q-7 -7 -44 -52q-3 -3 -4 -6q-5 -13 -10 -25.5l-8 -20t-5 -13t-2.5 -7t-0.5 -0.5q-26 -72 -26 -123q0 -72 46 -72q17 0 33 10
q53 29 117 134q8 14 22 14q10 0 18 -8.5t8 -22.5t-9 -32l-34 -57q-82 -120 -183 -120q-62 0 -94.5 42t-32.5 115zM300 638q11 20 17.5 40t0.5 20q-7 0 -36 -41q-27 -41 -65 -131l2 -1h1q51 62 80 113z" />
    <glyph glyph-name="m" unicode="m" horiz-adv-x="771" 
d="M468 102q0 30 10 60l42 103l12 30q14 33 14 51q0 26 -29 26q-47 0 -87 -54q-42 -56 -71 -120l-70 -159q-12 -25 -40 -25h-57q-19 0 -19 19l2 8q82 183 110 250q14 34 14 53q0 31 -29 31q-51 -2 -94 -53q-40 -49 -73 -119q-66 -150 -78 -176q-12 -27 -40 -27h-63
q-10 0 -15.5 8.5t-1.5 17.5l177 399q12 26 40 26h62q10 0 16 -8.5t2 -17.5l-3 -6q0 -3 2 -1q44 32 90 32q70 0 98 -58q2 -5 7 -6t9 2q74 62 131 62t87 -30t30 -82q0 -37 -18 -88l-16 -38q-39 -94 -39 -102q0 -12 10 -19.5t25 -7.5q19 0 34 9q58 31 117 134q8 14 22 14
q10 0 18 -8.5t8 -22.5t-9 -32q-13 -24 -34 -57q-77 -120 -184 -120q-54 0 -86.5 27t-32.5 75z" />
    <glyph glyph-name="n" unicode="n" horiz-adv-x="518" 
d="M214 104q0 22 11 58q20 54 41 102l16 39q12 29 12 47q0 25 -25 25q-47 0 -93 -55q-46 -53 -73 -118l-59 -134l-19 -41q-12 -27 -40 -27h-63q-10 0 -15.5 8.5t-1.5 17.5l177 399q11 26 40 26h62q10 0 16 -9t1 -18l-2 -4q-1 -4 -0.5 -4t2.5 2q38 32 88 32q49 0 79.5 -29
t30.5 -81q0 -40 -18 -86l-17 -43q-25 -54 -35 -88q-3 -6 -3 -12q0 -13 10 -21t25 -8q18 0 34 10q55 28 117 134q8 14 22 14q12 0 19.5 -8.5t7.5 -22.5q0 -16 -10 -32q-15 -29 -33 -57q-80 -119 -182 -120h-4q-53 0 -85.5 28t-32.5 76z" />
    <glyph glyph-name="o" unicode="o" 
d="M-15 163q0 65 37 129q39 70 104 117q67 47 138 47q68 0 108.5 -44t40.5 -116q0 -67 -37 -137q-1 -1 1 -4q19 -6 37 -6q56 0 103 83q8 14 23 14q10 0 17.5 -8t7.5 -22q0 -20 -15 -43q-57 -101 -156 -101q-32 0 -63 12q-5 2 -6 -1q-78 -90 -174 -90q-73 0 -119.5 48
t-46.5 122zM269 125q2 1 2 2.5t-2 2.5q-23 30 -33 60q-14 40 -14 76q0 75 47 112q5 1 2 3h-3q-55 -3 -101.5 -48.5t-64.5 -124.5q-5 -18 -5 -38q0 -39 22 -62.5t56 -23.5q47 0 94 41zM330 203q22 47 22 90l-1 14q-4 22 -18 22q-8 0 -15 -8.5t-9 -21.5q-2 -18 -2 -21
q0 -41 20 -76q0 -2 3 1z" />
    <glyph glyph-name="p" unicode="p" horiz-adv-x="534" 
d="M-196 -208q0 4 2 8q66 151 276 623q12 28 41 28h62q10 0 15.5 -8.5t1.5 -18.5q-5 -13 -7 -15q0 -1 2 -1q52 43 101 43q91 0 115 -90q6 -23 6 -48q0 -47 -19 -103q-12 -28 -21 -47q-1 -1 -0.5 -2t2.5 -2q21 -10 47 -10q55 0 100 77q9 14 23 14q10 0 18 -8.5t8 -22.5
t-9 -32q-53 -96 -151 -96q-39 0 -78 17q-3 1 -5 -1q-41 -47 -90.5 -73t-95.5 -26q-74 0 -110 49q-2 1 -4 -1l-109 -246q-12 -27 -40 -27h-63q-18 0 -18 19zM271 171q1 1 1 5q-8 27 -8 47q0 33 14 58t39 35q2 0 3 1.5t0 2.5q-5 41 -41 41q-47 0 -99 -52q-52 -51 -80 -116
q-18 -41 -18 -67q0 -40 44 -40q80 0 145 85z" />
    <glyph glyph-name="q" unicode="q" horiz-adv-x="550" 
d="M169 -101q0 53 24 122q1 2 -1.5 3.5t-4.5 -0.5q-42 -24 -87 -24q-58 0 -89.5 37t-31.5 101q0 52 19 103q32 92 108 153t145 59h13q59 -5 92 -49q2 -2 5 0l8 21q12 26 41 26h62q10 0 16 -8.5t2 -17.5q-37 -80 -157 -354q-1 -1 0 -2t2 -1q5 -1 20 -1q29 0 51 11
q74 38 138 148q8 14 22 14q12 0 19.5 -8.5t7.5 -22.5q0 -16 -10 -32q-37 -64 -68.5 -100t-77.5 -62q-14 -7 -41 -16q-1 0 -1.5 -1.5t0.5 -2.5q22 -38 22 -82q0 -55 -35 -96t-83 -44q-58 -3 -94 28.5t-36 97.5zM213 124q37 37 71 108l29 65q5 15 5 27q0 41 -46 41
q-37 0 -76 -27q-73 -48 -105 -134q-16 -42 -16 -71q0 -52 47 -52q48 0 91 43zM352 -86q0 22 -13 45t-35 37q-3 2 -5 0q-33 -75 -33 -114q0 -38 32 -38q22 0 38 19.5t16 50.5z" />
    <glyph glyph-name="r" unicode="r" horiz-adv-x="441" 
d="M138 74q-4 11 -4 29q0 20 8 44q21 58 49 124q1 1 1 5q0 8 -6 11l-66 30q-7 4 -10 -4l-77 -136q-13 -21 -33 -21q-7 0 -13 3q-12 5 -12 20q0 13 11 32q26 45 72 132q2 4 -2 5q-23 14 -37 38q-11 24 -11 41q0 15 6 28q14 34 46 42q10 3 21 3q28 0 46 -18q23 -21 23 -56
q0 -1 -2 -23l-5 -16q-3 -3 3 -3q74 -22 94 -25q52 -13 65 -40q5 -15 5 -25q0 -14 -11 -44l-34 -88q-16 -27 -16 -51q0 -13 11 -21t25 -8q17 0 33 10q58 31 117 134q8 14 22 14q10 0 18 -8.5t8 -22.5q0 -17 -9 -32q-12 -23 -34 -57q-81 -120 -184 -120q-43 0 -75 19t-43 55z
M86 406l3 10q1 3 1 10q0 9 -3 12q-1 0 -3 1t-3 1h-3q-6 -1 -9 -8v-5q0 -7 3 -12q2 -6 9 -11q3 -3 5 2z" />
    <glyph glyph-name="s" unicode="s" horiz-adv-x="445" 
d="M41 95q0 40 32 66.5t78 26.5q25 0 56 -11q1 -1 2.5 0t1.5 3q1 53 -24 124q-19 53 -18 82q0 3 -2 4.5t-4 -0.5q-32 -37 -75 -115q-29 -54 -55 -98q-13 -21 -33 -21q-7 0 -13 3q-12 5 -12 20q0 13 11 32q41 71 53 97q53 97 99 143t118 49q34 0 55.5 -18t27.5 -47
q3 -14 -5.5 -25t-23.5 -11q-24 0 -29 24q-5 17 -21 17q-18 0 -24 -19q-2 -8 -2 -16q0 -17 8 -34t35 -61q54 -85 49 -163q0 -4 3 -4q33 0 58 20t52 63q9 13 22 13q12 0 19.5 -8.5t7.5 -22.5q0 -15 -9 -29q-33 -56 -71 -78t-97 -20q-4 0 -4 -3q-22 -39 -61 -61t-84 -22
q-47 0 -85 29q-38 30 -36 71zM196 112q0 4 -1 4q-24 12 -45 12t-35 -9.5t-14 -23.5q0 -11 10.5 -18.5t24.5 -7.5q38 0 60 43z" />
    <glyph glyph-name="t" unicode="t" horiz-adv-x="268" 
d="M-46 103q0 18 8 44q18 53 172 399q1 1 0 2.5t-2 1.5l-50 1q-20 2 -20 22q0 9 5.5 15.5t14.5 6.5l72 4q4 0 5 3l47 105q12 27 41 27h63q10 0 16 -8.5t1 -17.5l-44 -98q-1 -1 0 -2.5t2 -1.5l54 3q18 1 28.5 -8t10.5 -24t-10.5 -24.5t-28.5 -8.5l-81 2q-4 0 -5 -3l-15 -34
l-16 -36l-92 -206q-35 -77 -50 -119q-8 -21 -8 -35q0 -31 31 -31q46 0 91 50q36 38 68 94q8 14 22 14q12 0 19.5 -8.5t7.5 -22.5q0 -16 -10 -32q-68 -117 -130 -154q-41 -23 -92 -23q-57 0 -91 28.5t-34 74.5z" />
    <glyph glyph-name="u" unicode="u" 
d="M-44 104q0 19 8 43q21 57 40 102q45 104 77 175q12 27 41 27h63q10 0 15.5 -8.5t1.5 -17.5q-104 -234 -120 -277q-8 -21 -8 -35q0 -31 31 -31q19 0 35 10q31 16 62.5 54.5t51.5 86.5q32 75 84 191q12 27 41 27h63q10 0 15.5 -8.5t1.5 -17.5q-96 -211 -120 -277
q-11 -27 -11 -37q0 -13 11 -21t24 -8q18 0 34 10q58 31 117 134q8 14 22 14q10 0 18 -8.5t8 -22.5q0 -17 -9 -32q-12 -23 -34 -57q-82 -120 -183 -120q-79 0 -110 54q-3 4 -9 4q-5 0 -8 -3q-58 -55 -130 -55q-57 0 -90 29t-33 75z" />
    <glyph glyph-name="v" unicode="v" horiz-adv-x="511" 
d="M-45 100q0 20 8 44q21 57 40 102q45 104 77 175q12 27 41 27h63q10 0 15.5 -8.5t1.5 -17.5q-104 -234 -120 -277q-4 -7 -4 -19q0 -19 13 -31.5t34 -12.5q48 0 124 76q-18 41 -18 91q0 27 6 55q21 94 93 125q21 8 38 8q11 0 21 -3q20 -6 32.5 -24t12.5 -44q0 -11 -5 -33
q-17 -68 -87 -164q17 -21 51 -21q35 0 67 25q23 19 49 60q9 14 23 14q10 0 17.5 -8t7.5 -22q0 -21 -15 -43q-61 -102 -160 -102q-53 0 -90 29q-51 -58 -100 -81.5t-106 -23.5q-62 0 -96 29t-34 75zM372 363q0 16 -11 16q-17 0 -30 -30q-16 -35 -16 -87q0 -17 1 -22
q56 88 56 123z" />
    <glyph glyph-name="w" unicode="w" horiz-adv-x="766" 
d="M219 67q-63 -66 -141 -66q-57 0 -90 29t-33 75q0 17 8 43q21 57 40 102q45 104 77 175q11 26 41 26h63q10 0 15.5 -8t1.5 -18q-95 -212 -120 -276q-8 -21 -8 -35q0 -32 30 -32q35 -3 82 47t58 82q36 85 94 214q11 26 41 26h63q10 0 15.5 -8t1.5 -18q-93 -205 -120 -276
q-4 -7 -4 -19q0 -19 13 -32t34 -13q47 0 124 77q-18 40 -18 91q0 20 5 55q13 58 49 94q39 39 83 39q10 0 21 -3q44 -15 44 -68q0 -18 -4 -33q-16 -64 -87 -164q16 -21 50 -21q39 0 67 25q28 22 50 60q8 14 23 14q10 0 17.5 -8t7.5 -22q0 -17 -15 -43q-30 -50 -72.5 -76
t-87.5 -26q-53 0 -91 29q-52 -58 -100.5 -81.5t-104.5 -23.5q-96 0 -123 67zM629 367q0 16 -11 16q-17 0 -30 -30q-16 -35 -16 -87q0 -18 1 -23q56 93 56 124z" />
    <glyph glyph-name="x" unicode="x" horiz-adv-x="552" 
d="M211 127q-3 3 -4 0l-120 -113q-16 -14 -32 -14q-12 0 -20 7t-8 18q0 12 11 23l146 154q2 6 1 7l-42 142q-2 8 -10 0q-15 -21 -45 -76q-29 -54 -55 -98q-13 -21 -33 -21q-7 0 -13 3q-12 5 -12 20q0 13 11 32q41 71 53 97q25 48 52 90q19 30 31 41.5t26 11.5h52
q29 0 37 -27q5 -20 17.5 -64t16.5 -59q1 -2 2 -2.5t2 0.5l123 131q21 21 48 21h77q10 0 10 -12q0 -3 -3 -8l-231 -217q-2 -2 -1 -5l9 -32q15 -50 33 -72t50 -22q40 0 83 43q34 34 74 100q8 14 22 14q10 0 18 -8.5t8 -22.5t-9 -32l-34 -57q-81 -120 -179 -120
q-66 0 -102.5 31.5t-59.5 95.5z" />
    <glyph glyph-name="y" unicode="y" 
d="M-55 -199q-24 24 -24 60q0 15 4 26q11 40 47 65.5t99 44.5q4 0 2 2q-1 1 -2 1q-53 2 -84 31t-31 73q0 19 8 43q21 57 40 102q45 104 77 175q12 27 41 27h63q10 0 15.5 -8.5t1.5 -17.5q-104 -234 -120 -277q-8 -18 -8 -35q0 -31 30 -31q23 0 53 21q26 18 45 41t28.5 40.5
t21.5 46.5l87 193q12 27 40 27h63q19 0 19 -19q0 -2 -2 -8l-167 -372q0 -1 0.5 -2t1.5 0q46 10 81 28q74 38 138 148q8 14 22 14q12 0 19.5 -8.5t7.5 -22.5q0 -16 -10 -32q-37 -64 -68.5 -100t-77.5 -62q-48 -26 -148 -50q-5 0 -5 -3q-41 -91 -81 -131q-27 -27 -66.5 -43
t-77.5 -16q-51 0 -83 29zM122 -64q1 1 0 2t-2 1q-88 -16 -114 -37q-25 -19 -25 -40q0 -12 9.5 -20.5t24.5 -8.5q62 0 107 103z" />
    <glyph glyph-name="z" unicode="z" horiz-adv-x="504" 
d="M-72 -130q0 57 61 93q44 25 140 46q60 14 89 22q4 0 4 4q14 43 13 72q0 1 -1.5 2t-2.5 0q-30 -13 -58 -13q-34 0 -55 20.5t-21 48.5q0 30 23 49.5t57 19.5q42 0 78 -27q3 -2 5 0q48 53 48 101q0 30 -20 48.5t-53 18.5q-89 0 -159 -122q-38 -69 -43 -76q-13 -21 -33 -21
q-7 0 -13 3q-12 5 -12 20q0 13 11 32l39 71q47 84 101 127t128 43q67 0 108 -42.5t41 -101.5q0 -44 -23 -84.5t-66 -67.5q-2 -1 -1 -5q20 -35 20 -81q0 -1 1.5 -2t2.5 0q50 20 88 59q37 37 73 99q8 14 22 14q10 0 18.5 -8.5t8.5 -22.5q0 -16 -10 -32q-38 -66 -69 -101
q-58 -64 -149 -92q-3 0 -4 -4q-33 -85 -103.5 -146t-156.5 -61q-58 0 -92.5 28t-34.5 69zM206 164q0 1 1 2q-17 9 -32 9q-19 0 -19 -10t14 -10t36 9zM181 -51q1 3 -2 3q-3 -2 -67 -15q-67 -14 -91 -28q-32 -18 -32 -39q0 -15 15 -26t36 -11q71 0 141 116z" />
    <glyph glyph-name="braceleft" unicode="{" horiz-adv-x="460" 
d="M50 -19q4 55 116 276l12 23q9 20 9 31q0 25 -53 25q-14 0 -22 8.5t-8 21.5t8 21.5t22 8.5q48 0 75.5 15.5t47.5 55.5q2 2 15 37l47 118q41 103 68 148q54 84 155 84l38 -1q14 0 22 -8.5t8 -21.5t-8 -21.5t-22 -8.5q-45 0 -73 -26.5t-52 -81.5q-20 -52 -62 -140
q-36 -76 -46 -95q-39 -70 -93 -95q-4 -1 -2 -6q9 -17 11 -28q1 -3 1 -17q0 -69 -91 -264l-22 -49q-9 -19 -9 -30q0 -22 37 -22q14 0 21.5 -8.5t7.5 -21.5t-7.5 -21.5t-21.5 -8.5q-69 0 -101 23t-28 79z" />
    <glyph glyph-name="bar" unicode="|" horiz-adv-x="300" 
d="M100 -191v920q0 15 10.5 25.5t25.5 10.5h28q15 0 25.5 -10.5t10.5 -25.5v-920q0 -15 -10.5 -25.5t-25.5 -10.5h-28q-15 0 -25.5 10.5t-10.5 25.5z" />
    <glyph glyph-name="braceright" unicode="}" horiz-adv-x="660" 
d="M118 -121l-38 1q-14 0 -22 8.5t-8 21.5t8 21.5t22 8.5q46 0 73.5 26.5t50.5 82.5q23 55 63 140q37 78 46 94q37 71 93 96q4 1 2 5q-8 14 -11 28q-1 3 -1 18q0 72 91 263l22 49q8 19 8 30q0 22 -36 22q-14 0 -22 8.5t-8 21.5t8 21.5t22 8.5q69 0 100.5 -22.5t27.5 -78.5
q-1 -36 -36 -113q-34 -76 -79 -164l-12 -23q-9 -20 -9 -31q0 -25 53 -25q14 0 22 -8.5t8 -21.5t-8 -21.5t-22 -8.5q-47 0 -75.5 -15t-48.5 -55q-5 -16 -15 -38q-80 -209 -115 -265q-55 -85 -154 -85z" />
    <glyph glyph-name="asciitilde" unicode="~" horiz-adv-x="679" 
d="M325 336q-64 29 -93 29q-34 0 -63 -33q-10 -13 -26 -13q-7 0 -15 5l-15 10q-13 7 -13 23q0 7 5 15q53 68 127 68q43 0 123 -36l27 -12q43 -17 66 -17q33 0 63 34q9 12 25 12q9 0 16 -5l14 -9q13 -7 13 -23q0 -9 -5 -16q-49 -63 -113 -67h-4q-47 -3 -132 35z" />
    <glyph glyph-name="exclamdown" unicode="&#xa1;" horiz-adv-x="527" 
d="M358 517q0 24 17.5 41.5t41.5 17.5q25 0 42.5 -17.5t17.5 -41.5q0 -25 -17.5 -42.5t-42.5 -17.5q-24 0 -41.5 17.5t-17.5 42.5zM50 -182q0 2 2 8l275 559q7 18 26 18q12 0 22 -8.5t10 -20.5q0 -7 -3 -13l-204 -534q-12 -27 -40 -27h-70q-7 0 -12.5 5.5t-5.5 12.5z" />
    <glyph glyph-name="cent" unicode="&#xa2;" horiz-adv-x="627" 
d="M168 -9q0 7 2 13l17 38q2 4 -2 5q-85 44 -85 178q0 92 43 187q43 96 121 160q78 63 180 65q4 0 5 3l15 36q1 1 5 9.5t7 11.5q8 8 19 8q12 0 22 -8.5t10 -20.5q0 -7 -3 -13l-14 -33q-2 -4 2 -5q65 -28 65 -108q0 -28 -11 -58q-8 -18 -27 -18q-12 0 -21.5 8.5t-9.5 20.5
q0 6 2 12q7 14 7 33q0 40 -31 54l-4 -2l-204 -466q0 -1 0.5 -2t1.5 0q75 13 111 72q11 14 25 14q12 0 21.5 -9t9.5 -21q0 -5 -5 -17q-27 -48 -81 -78q-55 -30 -110 -29q-3 0 -5 -3l-21 -48q-8 -18 -26 -18q-12 0 -21.5 8.5t-9.5 20.5zM220 117l196 448q0 2 -2 2
q-56 -23 -105 -90q-49 -66 -79 -150q-30 -83 -30 -144q0 -45 16 -67q2 -2 4 1z" />
    <glyph glyph-name="sterling" unicode="&#xa3;" horiz-adv-x="791" 
d="M288 37q-3 3 -6 1q-53 -38 -106 -38q-35 0 -55.5 19.5t-20.5 50.5q0 35 25 57.5t64 22.5q32 0 62 -15q5 -1 6 0q54 96 76 199q0 3 -3 3h-52q-13 0 -21.5 9t-8.5 21q0 13 8.5 21.5t21.5 8.5h62q3 0 4 4q10 95 30 169q21 74 69 126q49 52 134 52q70 0 117 -41t47 -106
q0 -40 -20 -85q-7 -18 -26 -18q-12 0 -21.5 9t-9.5 22q0 1 2 11q10 27 10 53q0 36 -21.5 56t-62.5 20q-52 0 -81 -39q-27 -38 -36 -90q-8 -45 -16 -140q0 -3 3 -3h86q12 0 21 -8.5t9 -21.5q0 -12 -9 -21t-21 -9h-94q-4 0 -4 -4q-28 -151 -116 -248q-2 -3 1 -6q29 -17 66 -17
q54 0 99.5 37t69.5 105q9 23 30 23q12 0 21 -8t9 -20l-1 -8q-21 -87 -80 -146t-140 -59q-63 0 -121 51zM220 79q1 1 0.5 2.5t-1.5 1.5q-14 7 -31 7q-28 0 -28 -20q0 -18 20 -18t40 27z" />
    <glyph glyph-name="currency" unicode="&#xa4;" horiz-adv-x="651" 
d="M109 194q-9 9 -9 23q0 13 9 22l55 54q2 3 0 6q-35 52 -35 111q0 61 35 111q2 3 0 6l-55 54q-9 9 -9 23q0 13 9 22q10 10 23 10t23 -10l54 -54q3 -2 5 0q49 34 112 34q62 0 111 -34q3 -2 5 0l55 54q9 10 22 10q14 0 23 -10q9 -9 9 -22q0 -14 -9 -23l-54 -54q-3 -3 -1 -6
q35 -50 35 -111q0 -59 -35 -111q-2 -3 1 -6l54 -54q9 -9 9 -22q0 -14 -9 -23t-23 -9q-13 0 -23 9l-54 54q-3 3 -5 1q-52 -35 -111 -35q-60 0 -112 35q-2 2 -5 -1l-54 -54q-11 -9 -23 -9t-23 9zM436 410q0 46 -33 78q-32 32 -77 32q-46 0 -78.5 -32t-32.5 -78t32.5 -78
t78.5 -32q45 0 77 32q33 32 33 78z" />
    <glyph glyph-name="yen" unicode="&#xa5;" horiz-adv-x="711" 
d="M134 19q0 7 1 8l62 140q2 2 -2 2h-65q-13 0 -21.5 9t-8.5 22q0 12 8.5 21t21.5 9h91q5 0 6 3q4 11 26 60q1 1 0 2.5t-2 1.5h-66q-13 0 -21.5 8.5t-8.5 21.5q0 12 8.5 21t21.5 9h81q4 0 4 3l41 346q1 12 10.5 20t21.5 8h48q12 0 19.5 -8.5t6.5 -19.5l-32 -270q0 -2 2 0
l220 286q9 12 23 12q12 0 21.5 -9t9.5 -22q0 -9 -7 -19l-250 -324q0 -3 2 -3h61q13 0 22 -9t9 -21q0 -13 -9 -21.5t-22 -8.5h-88q-5 0 -6 -4l-26 -59q-1 -1 0 -2.5t2 -1.5h64q12 0 21 -9t9 -21q0 -13 -9 -22t-21 -9h-91q-4 0 -5 -3l-62 -139q-12 -27 -41 -27h-62
q-18 0 -18 19z" />
    <glyph glyph-name="brokenbar" unicode="&#xa6;" horiz-adv-x="300" 
d="M100 399v330q0 15 10.5 25.5t25.5 10.5h28q15 0 25.5 -10.5t10.5 -25.5v-330q0 -15 -10.5 -25.5t-25.5 -10.5h-28q-15 0 -25.5 10.5t-10.5 25.5zM100 -191v330q0 15 10.5 25.5t25.5 10.5h28q15 0 25.5 -10.5t10.5 -25.5v-330q0 -15 -10.5 -25.5t-25.5 -10.5h-28
q-15 0 -25.5 10.5t-10.5 25.5z" />
    <glyph glyph-name="section" unicode="&#xa7;" horiz-adv-x="573" 
d="M100 95q0 20 7 38q6 20 27 20q12 0 21.5 -8.5t9.5 -20.5q0 -5 -2 -11q-2 -14 -2 -15q0 -30 36 -30q26 0 45.5 18t19.5 47l-1 14q-5 28 -48 76q-34 40 -48.5 66.5t-14.5 60.5q0 46 26 83t70 49q3 2 3 5q-2 62 38 107.5t99 45.5q47 0 79.5 -29t32.5 -72q0 -17 -6 -35
q-8 -21 -27 -21q-12 0 -21.5 8.5t-9.5 20.5q0 8 1 11q3 9 3 15q0 31 -36 31q-26 0 -45.5 -18.5t-19.5 -49.5q0 -21 11 -39.5t39 -50.5q52 -61 59 -98q3 -14 3 -28q0 -45 -26.5 -82t-69.5 -49q-3 0 -3 -5q3 -60 -37 -106.5t-100 -46.5q-46 0 -79.5 28.5t-33.5 70.5zM361 271
q0 22 -15 43q-10 16 -27 33q-39 46 -52 71q-2 3 -4 1q-26 -23 -26 -51q0 -34 21 -57l23 -24q37 -41 51 -70q1 -1 4 0q25 22 25 54z" />
    <glyph glyph-name="dieresis" unicode="&#xa8;" horiz-adv-x="342" 
d="M50 700q0 20 14 34.5t34 14.5t34.5 -14.5t14.5 -34.5t-14.5 -34t-34.5 -14q-19 0 -33.5 14.5t-14.5 33.5zM195 700q0 20 14.5 34.5t34.5 14.5t34 -14.5t14 -34.5q0 -19 -14 -33.5t-34 -14.5t-34.5 14t-14.5 34z" />
    <glyph glyph-name="copyright" unicode="&#xa9;" horiz-adv-x="781" 
d="M166 176q-66 68 -66 170q-3 86 49.5 169.5t137.5 134t172 48.5q109 0 182 -73q65 -67 65 -170q2 -86 -50 -169.5t-137 -134t-173 -48.5q-110 0 -180 73zM649 456q0 78 -49 130q-55 55 -140 55q-72 2 -144 -41.5t-116.5 -113.5t-42.5 -140q0 -78 50 -131q55 -55 138 -55
q73 -2 145 41.5t116.5 113.5t42.5 141zM252 323q-1 57 27.5 120t80.5 106.5t108 41.5q38 0 58.5 -23.5t20.5 -60.5q0 -48 -31 -76q-14 -12 -28 -12t-24 10.5t-10 23.5q0 19 21 30q16 7 16 24q0 10 -7 17.5t-18 7.5q-31 0 -64 -39q-31 -35 -55 -91q-22 -51 -22 -90
q0 -41 32 -41q36 0 77 44q12 12 25 12q9 0 15.5 -6t6.5 -15q0 -8 -6 -19q-21 -33 -57.5 -55t-71.5 -22q-46 0 -70 30.5t-24 82.5z" />
    <glyph glyph-name="ordfeminine" unicode="&#xaa;" horiz-adv-x="365" 
d="M0 343q0 55 27 126q28 69 78 125q51 55 109 55q38 0 64 -32q3 -3 4 1q11 26 41 26h24q18 0 18 -19q0 -6 -1 -8q-73 -168 -112 -252q-9 -24 -9 -40q0 -39 36 -46q23 -5 23 -25q0 -10 -7 -16.5t-19 -6.5q-58 0 -84 41l-5 -1q-50 -47 -99 -47q-38 0 -63 32t-25 87zM183 393
q58 123 58 175q0 32 -24 32q-30 0 -58 -46q-31 -49 -52 -98q-41 -102 -41 -148q0 -34 22 -34q42 0 95 119z" />
    <glyph glyph-name="guillemotleft" unicode="&#xab;" horiz-adv-x="659" 
d="M195 196l-136 152q-9 10 -9 24q0 18 14 27l185 143q28 22 64 22h43q13 0 13 -13q0 -6 -5 -9l-221 -170q-6 -6 -1 -12l147 -164q4 -4 4 -11q0 -6 -4.5 -11t-11.5 -5h-22q-37 0 -60 27zM435 196l-136 152q-9 10 -9 24q0 18 14 27l185 143q29 22 65 22h43q12 0 12 -13
q0 -6 -5 -9l-220 -170q-7 -5 -2 -12l147 -164q4 -4 4 -11q0 -6 -4.5 -11t-11.5 -5h-22q-37 0 -60 27z" />
    <glyph glyph-name="logicalnot" unicode="&#xac;" horiz-adv-x="689" 
d="M419 200l55 124q2 7 -4 7h-346q-10 0 -17 7t-7 16q0 1 2 9l6 15q15 33 51 33h411q10 0 16 -8.5t1 -17.5l-82 -185q-11 -26 -40 -26h-29q-10 0 -15.5 8.5t-1.5 17.5z" />
    <glyph glyph-name="registered" unicode="&#xae;" horiz-adv-x="612" 
d="M147 388q-47 49 -47 124q-3 94 79 174.5t179 78.5q81 0 131 -53q48 -50 48 -124q3 -95 -80 -175t-179 -77q-79 0 -131 52zM490 589q0 56 -35 91q-38 38 -96 38q-78 2 -146.5 -64t-65.5 -143q0 -55 34 -90q36 -38 97 -38q78 -2 146.5 64.5t65.5 141.5zM326 473
q-16 49 -19 52q-2 2 -4 -1q-9 -16 -25 -36q-23 -23 -47 -23q-18 0 -28.5 6.5t-10.5 15.5q0 16 22 16q20 0 31 19q25 42 55 113q0 1 -2 3q-5 -1 -11 -4q-6 -2 -10 -2q-14 0 -14 11q0 6 7 12q28 21 72 21q38 0 63.5 -17t25.5 -46q0 -30 -21.5 -51.5t-55.5 -26.5q-1 0 -2 -1
t0 -2q9 -10 12 -24q5 -18 5 -32q0 -16 7 -28l2 -8q0 -7 -6.5 -11t-12.5 -2q-23 11 -33 46zM381 605q6 26 -24 35q-4 2 -5 -2l-28 -68q0 -1 0.5 -2.5t1.5 -0.5q48 5 55 38z" />
    <glyph glyph-name="overscore" unicode="&#xaf;" horiz-adv-x="564" 
d="M50 872q0 1 2 7l6 11q15 25 51 25h382q10 0 16.5 -5t6.5 -12q0 -5 -2 -7l-6 -11q-15 -25 -51 -25h-381q-10 0 -17 5t-7 12z" />
    <glyph glyph-name="degree" unicode="&#xb0;" horiz-adv-x="435" 
d="M100 578q0 53 38.5 91.5t91.5 38.5t91.5 -38.5t38.5 -91.5q0 -54 -38.5 -92.5t-91.5 -38.5t-91.5 38.5t-38.5 92.5zM295 578q0 26 -19 45.5t-46 19.5t-46 -19.5t-19 -45.5q0 -27 19 -46.5t46 -19.5t46 19.5t19 46.5z" />
    <glyph glyph-name="plusminus" unicode="&#xb1;" horiz-adv-x="789" 
d="M347 299l45 102q1 1 0 2.5t-2 1.5h-144q-10 0 -16.5 7t-6.5 16q0 6 2 10l6 14q15 33 51 33h143q5 0 6 4l45 102q12 27 40 27h30q10 0 16 -8.5t2 -18.5l-46 -102q0 -4 3 -4h144q10 0 17 -7t7 -16q0 -1 -2 -9l-7 -15q-15 -33 -51 -33h-143q-5 0 -6 -4l-45 -102
q-13 -26 -41 -26h-30q-10 0 -15.5 8.5t-1.5 17.5zM100 148q0 1 2 9l6 14q15 33 51 33h382q10 0 16.5 -6.5t6.5 -16.5q0 -5 -2 -9l-6 -14q-15 -34 -51 -34h-381q-10 0 -17 7t-7 17z" />
    <glyph glyph-name="uni00B2" unicode="&#xb2;" horiz-adv-x="323" 
d="M118 332q-30 5 -47 5q-21 0 -38 -6q-7 -3 -14 -3q-10 0 -15.5 6.5t-2.5 14.5q31 94 163 194q3 3 33 25q59 45 59 94q0 31 -28 31q-19 0 -34.5 -13t-10.5 -28q2 -10 2 -12q0 -12 -8 -19.5t-20 -7.5q-13 0 -22 10t-9 28q0 35 33 65t75 30q38 0 63.5 -24.5t25.5 -65.5
q0 -23 -7 -44q-14 -44 -45 -75.5t-95 -74.5q-73 -49 -99 -81q-1 -1 0 -2t2 0h20l47 -1q31 0 47 10q12 6 21 6q11 0 18 -7.5t7 -18.5q0 -17 -18 -28q-23 -12 -54 -12q-21 0 -49 4z" />
    <glyph glyph-name="uni00B3" unicode="&#xb3;" horiz-adv-x="288" 
d="M0 419q0 30 14 63q6 16 22 16q10 0 18.5 -7t8.5 -18q0 -4 -3 -10q-8 -21 -8 -40q0 -21 11 -34t27 -13q25 0 49 37.5t24 72.5q0 40 -34 40q-11 0 -18 7.5t-7 17.5q0 26 25 26q40 0 67.5 27.5t27.5 56.5q0 32 -32 32q-21 0 -36.5 -13t-10.5 -28q2 -6 2 -12q0 -12 -8 -19.5
t-20 -7.5q-13 0 -22 10t-9 27q0 35 34.5 66t77.5 31q40 0 64 -26t24 -65q0 -34 -19.5 -66t-51.5 -47q-4 -1 -2 -5q18 -26 18 -60q0 -58 -42.5 -107.5t-99.5 -49.5q-39 0 -65 27t-26 71z" />
    <glyph glyph-name="acute" unicode="&#xb4;" horiz-adv-x="257" 
d="M59 624q-9 9 -9 21t9 21l97 98q9 9 21 9q13 0 22 -9q8 -11 8 -21q0 -13 -8 -21l-98 -98q-9 -9 -21 -9t-21 9z" />
    <glyph glyph-name="paragraph" unicode="&#xb6;" horiz-adv-x="880" 
d="M101 -136q0 15 26 35q30 24 56 83l109 246q2 7 -4 7h-49q-68 0 -107 55q-32 44 -32 102q0 24 8 56q29 96 98 127q72 32 172 32h383q10 0 16 -8.5t2 -17.5l-10 -23q-11 -26 -41 -26h-25q-6 0 -10 -7l-254 -574q-33 -72 -111 -102q-9 -4 -20 -4q-20 0 -20 19q0 17 27 35
q29 23 55 83l241 543q2 7 -4 7h-91q-7 0 -11 -7l-254 -574q-29 -71 -111 -102q-9 -4 -20 -4q-19 0 -19 19z" />
    <glyph glyph-name="middot" unicode="&#xb7;" horiz-adv-x="218" 
d="M50 359q0 25 17 42t42 17t42 -17t17 -42t-17 -42t-42 -17t-42 17t-17 42z" />
    <glyph glyph-name="cedilla" unicode="&#xb8;" horiz-adv-x="298" 
d="M68 -209q-18 11 -18 29q0 25 26 25q6 0 14 -3q24 -10 46 -10q23 0 38 10.5t15 23.5q0 19 -30 19q-13 0 -21.5 9t-8.5 21q0 6 2 12l45 103q8 18 27 18q14 0 22 -8.5t8 -21.5q0 -6 -2 -12l-28 -64q-2 -4 2 -5q43 -20 43 -68q0 -40 -30.5 -68.5t-80.5 -28.5q-38 0 -69 19z
" />
    <glyph glyph-name="uni00B9" unicode="&#xb9;" horiz-adv-x="250" 
d="M2 354q56 128 105 237q1 3 0 4t-4 -2q-15 -14 -58 -49q-4 -4 -12 -4q-11 0 -17 8q-4 4 -4 12q0 11 9 17q31 25 89 78l59 58q25 28 69 28q6 0 9.5 -4.5t0.5 -11.5q-20 -48 -67 -152q-16 -38 -49 -111t-48 -107q-12 -27 -41 -27h-24q-10 0 -16 8.5t-1 17.5z" />
    <glyph glyph-name="ordmasculine" unicode="&#xba;" horiz-adv-x="302" 
d="M0 343q0 55 27 126q28 69 78 125q51 55 109 55q38 0 63 -32t25 -85q0 -58 -28 -126q-27 -70 -78 -126q-50 -56 -108 -56q-38 0 -63 32t-25 87zM204 444q32 79 32 125q0 31 -20 31q-48 0 -109 -144q-41 -102 -41 -148q0 -34 22 -34q30 0 62 56q33 57 54 114z" />
    <glyph glyph-name="guillemotright" unicode="&#xbb;" horiz-adv-x="659" 
d="M50 181q0 5 5 10l220 169q9 6 1 12l-146 165q-4 4 -4 11q0 6 4.5 11t11.5 5h22q34 0 60 -27l136 -153q9 -9 9 -23q0 -17 -14 -28l-185 -142q-28 -22 -65 -22h-43q-12 0 -12 12zM290 181q0 5 5 10l220 169q8 6 2 12l-147 165q-4 4 -4 11q0 6 4.5 11t11.5 5h22q36 0 60 -27
l136 -153q9 -9 9 -23q0 -17 -14 -28l-185 -142q-28 -22 -65 -22h-43q-12 0 -12 12z" />
    <glyph glyph-name="onequarter" unicode="&#xbc;" horiz-adv-x="758" 
d="M50 14q0 4 3 9l270 357q39 51 125.5 165.5t125.5 166.5q16 22 46 22h46q14 0 14 -14q0 -4 -3 -9q-403 -535 -520 -687q-18 -24 -46 -24h-46q-6 0 -10.5 4.5t-4.5 9.5zM83 347q-1 -3 105 237q4 4 0 4q-1 0 -3 -2q-41 -36 -58 -48q-8 -5 -13 -5q-10 0 -16 9q-4 4 -4 12
q0 10 9 17q49 38 88 77q28 26 60 58q26 28 69 28q6 0 9.5 -4.5t0.5 -10.5l-164 -371q-12 -27 -41 -27h-24q-10 0 -16 8.5t-2 17.5zM462 15l42 95q1 1 0 2t-2 1l-101 4q-15 2 -15 19q0 6 2 10q6 21 10 28t16 16q87 72 125 107q39 35 95 92q24 24 65 24q5 0 7.5 -4.5t0.5 -9.5
l-105 -238q0 -3 3 -3h21q25 1 25 -21q0 -12 -8 -20.5t-20 -7.5l-40 1q-3 0 -5 -3l-40 -92q-7 -15 -23 -15h-43q-6 0 -9 5t-1 10zM448 158h74q4 0 5 4l52 116q0 1 -1.5 1.5t-2.5 -0.5l-24 -22q-43 -40 -107 -93l-4 -4q0 -2 8 -2z" />
    <glyph glyph-name="onehalf" unicode="&#xbd;" horiz-adv-x="768" 
d="M50 14q0 4 3 9l270 357q39 51 125.5 165.5t125.5 166.5q16 22 46 22h46q14 0 14 -14q0 -4 -3 -9q-403 -535 -520 -687q-18 -24 -46 -24h-46q-6 0 -10.5 4.5t-4.5 9.5zM83 347q-1 -3 105 237q4 4 0 4q-1 0 -3 -2q-41 -36 -58 -48q-8 -5 -13 -5q-10 0 -16 9q-4 4 -4 12
q0 10 9 17q49 38 88 77q28 26 60 58q26 28 69 28q6 0 9.5 -4.5t0.5 -10.5l-164 -371q-12 -27 -41 -27h-24q-10 0 -16 8.5t-2 17.5zM513 5q-40 5 -47 5q-22 0 -39 -7q-7 -3 -14 -3q-10 0 -15 6.5t-3 14.5q31 94 164 194l32 24q60 45 60 95q0 31 -29 31q-19 0 -34.5 -13
t-10.5 -27q2 -6 2 -12q0 -12 -8 -19.5t-20 -7.5q-13 0 -22 10t-9 27q0 36 33.5 66t75.5 30q38 0 63.5 -24.5t25.5 -65.5q0 -18 -8 -45q-13 -46 -47 -78q-33 -32 -93 -72q-71 -49 -98 -81q-2 -2 2 -2l19 1q9 0 24.5 -1t22.5 -1q29 0 48 10q10 6 20 6q12 0 19 -7.5t7 -17.5
q0 -18 -19 -29q-21 -12 -53 -12q-21 0 -49 5z" />
    <glyph glyph-name="threequarters" unicode="&#xbe;" horiz-adv-x="803" 
d="M50 412q0 31 14 64q4 15 22 15q10 0 18.5 -7t8.5 -17q0 -5 -3 -11q-8 -21 -8 -39q0 -21 11 -34.5t27 -13.5q25 0 49 38t24 73q0 40 -34 40q-25 0 -25 25q0 10 7 17.5t18 7.5q40 0 67.5 27.5t27.5 56.5q0 32 -32 32q-21 0 -36.5 -12.5t-10.5 -27.5q2 -6 2 -12
q0 -12 -8 -19.5t-20 -7.5q-13 0 -22 10t-9 27q0 36 34 66t78 30q40 0 64 -25.5t24 -65.5q0 -34 -19.5 -65.5t-51.5 -46.5q-4 -1 -2 -6q18 -25 18 -60q0 -58 -42.5 -107t-99.5 -49q-39 0 -65 27.5t-26 69.5zM95 14q0 5 2 9q116 152 521 689q16 22 46 22h47q6 0 10 -4.5
t4 -9.5q0 -4 -3 -9l-520 -687q-18 -24 -47 -24h-46q-6 0 -10 4.5t-4 9.5zM507 15l42 95q0 3 -2 3l-102 4q-14 2 -14 19q0 8 1 10q6 21 10 28t16 16q101 84 128 109q42 39 92 90q24 24 65 24q5 0 8 -4.5t1 -9.5l-105 -238q-1 -1 0 -2t2 -1h22q25 2 25 -21q0 -12 -8.5 -20.5
t-20.5 -7.5l-39 1q-4 0 -5 -3l-41 -92q-7 -15 -23 -15h-43q-6 0 -8.5 5t-0.5 10zM492 158h74q5 0 6 4q27 63 51 116l-2 1h-1l-24 -22q-50 -45 -108 -93l-4 -4q0 -2 8 -2z" />
    <glyph glyph-name="questiondown" unicode="&#xbf;" horiz-adv-x="520" 
d="M352 517q0 24 17 41.5t42 17.5t42 -17.5t17 -41.5q0 -25 -17 -42.5t-42 -17.5t-42 17.5t-17 42.5zM50 -12q0 52 20 95q19 43 50 75q33 35 80 76q57 50 86 82t49 71q9 16 26 16q12 0 20.5 -8t8.5 -20q0 -6 -3 -14q-24 -58 -55 -101q-30 -42 -74 -92q-33 -39 -50 -62
q-40 -54 -40 -117q0 -49 28 -76t72 -27q48 0 83 32.5t35 68.5q0 26 -19 42q-19 18 -19 39q0 19 15 33.5t35 14.5q28 0 48 -29q22 -31 22 -77q0 -80 -62.5 -145t-156.5 -65q-84 0 -141.5 54.5t-57.5 133.5z" />
    <glyph glyph-name="Agrave" unicode="&#xc0;" horiz-adv-x="872" 
d="M815 827l-90 98q-8 8 -8 20q0 13 9 22q8 8 21 8t22 -9l90 -98q8 -11 8 -21q0 -13 -9 -22q-11 -8 -21 -8q-12 0 -22 10zM508 -72q0 81 32 179q2 5 -3 7q-33 12 -130 58q-3 2 -5 0q-58 -88 -117.5 -132t-135.5 -44q-69 0 -109 43.5t-40 108.5q0 73 50.5 127.5t135.5 54.5
q80 0 169 -40q3 0 5 3l39 64q37 60 94 139q75 104 156 185q83 83 150 83q81 0 81 -94q0 -88 -69 -249q-24 -56 -83 -176l-46 -96q0 -4 1 -4q33 -5 49 -5q44 0 76 20q30 19 58 65q8 14 23 14q10 0 18 -8.5t8 -22.5q0 -13 -10 -32q-58 -103 -184 -103q-32 0 -65 6q-2 1 -5 -2
q-50 -130 -50 -189q0 -31 10 -43.5t32 -14.5q14 -1 22.5 -9t8.5 -18q0 -13 -13 -21.5t-36 -8.5q-117 0 -117 155zM572 188q72 170 191 388q40 73 40 104q0 17 -13 17q-32 0 -102 -83q-52 -64 -116 -163q-49 -77 -72 -116l-39 -66l-11 -20q-1 -4 0 -5q77 -41 115 -59
q5 -2 7 3zM308 213q2 2 -1 4q-77 30 -133 30q-53 0 -83.5 -26.5t-30.5 -64.5q0 -31 20.5 -52.5t53.5 -21.5q86 0 174 131z" />
    <glyph glyph-name="Aacute" unicode="&#xc1;" horiz-adv-x="936" 
d="M830 826q-9 9 -9 21q0 13 9 22l97 97q9 9 22 9q12 0 21 -9q9 -8 9 -21q0 -12 -9 -21l-97 -98q-9 -9 -22 -9q-12 0 -21 9zM508 -72q0 81 32 179q2 5 -3 7q-33 12 -130 58q-3 2 -5 0q-58 -88 -117.5 -132t-135.5 -44q-69 0 -109 43.5t-40 108.5q0 73 50.5 127.5t135.5 54.5
q80 0 169 -40q3 0 5 3l39 64q37 60 94 139q75 104 156 185q83 83 150 83q81 0 81 -94q0 -88 -69 -249q-24 -56 -83 -176l-46 -96q0 -4 1 -4q33 -5 49 -5q44 0 76 20q30 19 58 65q8 14 23 14q10 0 18 -8.5t8 -22.5q0 -13 -10 -32q-58 -103 -184 -103q-32 0 -65 6q-2 1 -5 -2
q-50 -130 -50 -189q0 -31 10 -43.5t32 -14.5q14 -1 22.5 -9t8.5 -18q0 -13 -13 -21.5t-36 -8.5q-117 0 -117 155zM572 188q72 170 191 388q40 73 40 104q0 17 -13 17q-32 0 -102 -83q-52 -64 -116 -163q-49 -77 -72 -116l-39 -66l-11 -20q-1 -4 0 -5q77 -41 115 -59
q5 -2 7 3zM308 213q2 2 -1 4q-77 30 -133 30q-53 0 -83.5 -26.5t-30.5 -64.5q0 -31 20.5 -52.5t53.5 -21.5q86 0 174 131z" />
    <glyph glyph-name="Acircumflex" unicode="&#xc2;" horiz-adv-x="904" 
d="M672 830q-6 8 -6 17q0 16 13 25l153 110q8 6 17 6q15 0 26 -14l68 -109q4 -7 4 -16q0 -16 -14 -25q-8 -5 -16 -5q-17 0 -25 14l-49 79q-2 2 -5 1l-124 -90q-9 -6 -18 -6q-14 0 -24 13zM508 -72q0 81 32 179q2 5 -3 7q-33 12 -130 58q-3 2 -5 0q-58 -88 -117.5 -132
t-135.5 -44q-69 0 -109 43.5t-40 108.5q0 73 50.5 127.5t135.5 54.5q80 0 169 -40q3 0 5 3l39 64q37 60 94 139q75 104 156 185q83 83 150 83q81 0 81 -94q0 -88 -69 -249q-24 -56 -83 -176l-46 -96q0 -4 1 -4q33 -5 49 -5q44 0 76 20q30 19 58 65q8 14 23 14q10 0 18 -8.5
t8 -22.5q0 -13 -10 -32q-58 -103 -184 -103q-32 0 -65 6q-2 1 -5 -2q-50 -130 -50 -189q0 -31 10 -43.5t32 -14.5q14 -1 22.5 -9t8.5 -18q0 -13 -13 -21.5t-36 -8.5q-117 0 -117 155zM572 188q72 170 191 388q40 73 40 104q0 17 -13 17q-32 0 -102 -83q-52 -64 -116 -163
q-49 -77 -72 -116l-39 -66l-11 -20q-1 -4 0 -5q77 -41 115 -59q5 -2 7 3zM308 213q2 2 -1 4q-77 30 -133 30q-53 0 -83.5 -26.5t-30.5 -64.5q0 -31 20.5 -52.5t53.5 -21.5q86 0 174 131z" />
    <glyph glyph-name="Atilde" unicode="&#xc3;" horiz-adv-x="940" 
d="M713 861q-10 10 -10 23q0 12 7 19q39 45 82 45q26 0 64 -20q23 -14 37 -14q16 0 38 22q10 10 22 10t21 -9t9 -21t-9 -21q-38 -41 -81 -41q-26 0 -66 21l-7 4q-7 4 -15 7t-13 3q-15 0 -36 -25q-9 -10 -23 -10q-13 0 -20 7zM508 -72q0 81 32 179q2 5 -3 7q-33 12 -130 58
q-3 2 -5 0q-58 -88 -117.5 -132t-135.5 -44q-69 0 -109 43.5t-40 108.5q0 73 50.5 127.5t135.5 54.5q80 0 169 -40q3 0 5 3l39 64q37 60 94 139q75 104 156 185q83 83 150 83q81 0 81 -94q0 -88 -69 -249q-24 -56 -83 -176l-46 -96q0 -4 1 -4q33 -5 49 -5q44 0 76 20
q30 19 58 65q8 14 23 14q10 0 18 -8.5t8 -22.5q0 -13 -10 -32q-58 -103 -184 -103q-32 0 -65 6q-2 1 -5 -2q-50 -130 -50 -189q0 -31 10 -43.5t32 -14.5q14 -1 22.5 -9t8.5 -18q0 -13 -13 -21.5t-36 -8.5q-117 0 -117 155zM572 188q72 170 191 388q40 73 40 104q0 17 -13 17
q-32 0 -102 -83q-52 -64 -116 -163q-49 -77 -72 -116l-39 -66l-11 -20q-1 -4 0 -5q77 -41 115 -59q5 -2 7 3zM308 213q2 2 -1 4q-77 30 -133 30q-53 0 -83.5 -26.5t-30.5 -64.5q0 -31 20.5 -52.5t53.5 -21.5q86 0 174 131z" />
    <glyph glyph-name="Adieresis" unicode="&#xc4;" horiz-adv-x="926" 
d="M726 901q0 20 14.5 34t34.5 14t34 -14t14 -34t-14 -34t-34 -14t-34.5 14t-14.5 34zM872 901q0 20 14 34t34 14t34 -14t14 -34t-14 -34t-34 -14t-34 14t-14 34zM508 -72q0 81 32 179q2 5 -3 7q-33 12 -130 58q-3 2 -5 0q-58 -88 -117.5 -132t-135.5 -44q-69 0 -109 43.5
t-40 108.5q0 73 50.5 127.5t135.5 54.5q80 0 169 -40q3 0 5 3l39 64q37 60 94 139q75 104 156 185q83 83 150 83q81 0 81 -94q0 -88 -69 -249q-24 -56 -83 -176l-46 -96q0 -4 1 -4q33 -5 49 -5q44 0 76 20q30 19 58 65q8 14 23 14q10 0 18 -8.5t8 -22.5q0 -13 -10 -32
q-58 -103 -184 -103q-32 0 -65 6q-2 1 -5 -2q-50 -130 -50 -189q0 -31 10 -43.5t32 -14.5q14 -1 22.5 -9t8.5 -18q0 -13 -13 -21.5t-36 -8.5q-117 0 -117 155zM572 188q72 170 191 388q40 73 40 104q0 17 -13 17q-32 0 -102 -83q-52 -64 -116 -163q-49 -77 -72 -116l-39 -66
l-11 -20q-1 -4 0 -5q77 -41 115 -59q5 -2 7 3zM308 213q2 2 -1 4q-77 30 -133 30q-53 0 -83.5 -26.5t-30.5 -64.5q0 -31 20.5 -52.5t53.5 -21.5q86 0 174 131z" />
    <glyph glyph-name="Aring" unicode="&#xc5;" horiz-adv-x="929" 
d="M790 911q0 38 27 64.5t64 26.5t63.5 -26.5t26.5 -64.5q0 -37 -26 -63.5t-64 -26.5t-64.5 26.5t-26.5 63.5zM914 911q0 14 -9.5 24t-23.5 10t-24 -10t-10 -24t10 -23.5t24 -9.5t23.5 10t9.5 23zM508 -72q0 81 32 179q2 5 -3 7q-33 12 -130 58q-3 2 -5 0
q-58 -88 -117.5 -132t-135.5 -44q-69 0 -109 43.5t-40 108.5q0 73 50.5 127.5t135.5 54.5q80 0 169 -40q3 0 5 3l39 64q37 60 94 139q75 104 156 185q83 83 150 83q81 0 81 -94q0 -88 -69 -249q-24 -56 -83 -176l-46 -96q0 -4 1 -4q33 -5 49 -5q44 0 76 20q30 19 58 65
q8 14 23 14q10 0 18 -8.5t8 -22.5q0 -13 -10 -32q-58 -103 -184 -103q-32 0 -65 6q-2 1 -5 -2q-50 -130 -50 -189q0 -31 10 -43.5t32 -14.5q14 -1 22.5 -9t8.5 -18q0 -13 -13 -21.5t-36 -8.5q-117 0 -117 155zM572 188q72 170 191 388q40 73 40 104q0 17 -13 17
q-32 0 -102 -83q-52 -64 -116 -163q-49 -77 -72 -116l-39 -66l-11 -20q-1 -4 0 -5q77 -41 115 -59q5 -2 7 3zM308 213q2 2 -1 4q-77 30 -133 30q-53 0 -83.5 -26.5t-30.5 -64.5q0 -31 20.5 -52.5t53.5 -21.5q86 0 174 131z" />
    <glyph glyph-name="AE" unicode="&#xc6;" horiz-adv-x="1236" 
d="M722 165q0 1 -1 1t-1 -1q-2 -4 -5.5 -13.5t-5.5 -13.5q0 -2 -2 -6.5t-5 -13.5t-6 -17q-10 -29 -10 -51t13 -26q22 -8 22 -26q0 -12 -12.5 -20.5t-33.5 -8.5q-72 0 -72 100q0 65 28 152q0 3 -2 3q-57 -16 -114 -16q-23 0 -73 5q-3 0 -5 -2q-66 -105 -131 -167
q-64 -61 -150 -61q-72 0 -114 49.5t-42 119.5q0 77 51 131t140 54q41 0 77 -7q66 -13 110 -23q1 -1 2 -0.5t2 2.5q66 100 135 196q63 90 144 175q79 85 129 85q65 0 65 -108q0 -76 -35 -205q0 -2 2 -2q35 29 81 43q3 1 3 4l-1 20q-2 97 73 177.5t177 78.5q83 0 122 -45
t39 -107q0 -24 -7 -48q-7 -33 -32 -33q-13 0 -22.5 11t-6.5 26q3 17 3 30q0 39 -21.5 61.5t-58.5 22.5q-55 0 -106.5 -48.5t-71.5 -136.5q-1 -1 0 -2.5t2 -1.5q109 -12 109 -80q0 -20 -8 -34q-18 -40 -66 -40q-28 0 -54 17.5t-41 46.5q-2 2 -5 1q-45 -31 -72.5 -84.5
t-27.5 -107.5q0 -65 42 -104t123 -39q74 -1 139.5 48t92.5 95q7 15 24 15q12 0 21 -8.5t9 -20.5q0 -9 -4 -16q-37 -64 -71 -111q-32 -44 -90 -78t-143 -34q-106 0 -170 55t-81 142zM653 297q3 1 5 6q27 75 39 112q66 182 80 246q5 25 5 30q0 10 -5 10t-21 -16
q-45 -46 -99 -127q-50 -76 -157 -247l-14 -22q-1 -1 0 -2.5t2 -1.5q46 -6 73 -6q55 0 92 18zM1044 421q0 11 -17 17q-8 4 -23 4l-12 -1q-3 -1 -3 -4q12 -20 27 -26q6 -3 13 -3q15 0 15 13zM328 227q1 4 -1 4q-110 21 -146 21q-56 0 -89.5 -30.5t-33.5 -72.5q0 -34 22.5 -56
t60.5 -22q48 0 90.5 38.5t96.5 117.5z" />
    <glyph glyph-name="Ccedilla" unicode="&#xc7;" horiz-adv-x="704" 
d="M222 -208q-18 12 -18 29q0 10 7 17.5t19 7.5q6 0 15 -3q20 -10 45 -10q23 0 38 10.5t15 23.5q0 19 -30 19q-13 0 -21.5 9t-8.5 21q0 2 2 12l20 46q1 1 0 2.5t-2 1.5q-85 24 -134 96t-49 174q0 90 39 191q2 2 -1 4q-78 25 -118 70t-40 99q0 43 24.5 78t63.5 50q10 3 18 3
q25 0 25 -21q0 -17 -17 -28q-53 -36 -53 -77q0 -34 34.5 -62.5t93.5 -43.5q1 -1 5 2q70 126 178.5 192t211.5 66q107 0 144 -59q15 -26 15 -55q3 -87 -118.5 -165.5t-284.5 -75.5q-32 0 -67 3q-3 0 -5 -3q-27 -70 -27 -142q0 -90 46.5 -144t126.5 -54q81 0 161 40
q81 40 124 110q8 14 22 14q12 0 19.5 -8.5t7.5 -22.5q0 -15 -11 -32q-58 -99 -157 -155q-97 -55 -197 -55l-11 1q-4 0 -5 -3l-10 -23q-2 -4 2 -5q43 -18 43 -68q0 -40 -30.5 -68t-79.5 -28q-39 0 -70 19zM667 666q0 13 -8 23q-16 22 -58 22q-68 0 -152.5 -57t-141.5 -155
q-1 -1 -0.5 -2t1.5 -1q66 -1 134 16t117 43t79.5 56t28.5 55z" />
    <glyph glyph-name="Egrave" unicode="&#xc8;" horiz-adv-x="636" 
d="M581 827l-91 98q-8 11 -8 20q0 13 10 22q8 8 20 8q13 0 22 -9l91 -98q8 -11 8 -21q0 -12 -10 -22q-11 -8 -20 -8q-15 0 -22 10zM0 51q0 93 49 173t142 123q3 3 3 5q-2 22 -2 26q0 32 7 59l-2 4q-87 27 -131 80q-33 42 -33 91q0 43 24 78.5t63 49.5q8 4 19 4q25 0 25 -22
q0 -16 -17 -27q-53 -36 -53 -77q0 -34 34.5 -62.5t93.5 -44.5q4 0 5 3q70 126 177.5 192t212.5 66q50 0 88.5 -16t55.5 -44q15 -26 15 -54q3 -88 -118.5 -166.5t-291.5 -75.5q-6 0 -56 2q-1 1 -2.5 0t-1.5 -2q-9 -31 -10 -39q0 -2 3 -2q73 3 113.5 -25.5t40.5 -71.5
q0 -19 -9 -37q-24 -49 -87 -49q-37 0 -74.5 19.5t-58.5 51.5q-2 5 -5 1q-46 -39 -71.5 -95.5t-25.5 -115.5q0 -83 50 -138t141 -55q79 0 141 44t62 107q0 29 -17.5 48t-42.5 19q-36 0 -55 -37q-11 -21 -29 -21q-10 0 -17.5 7t-7.5 19q0 6 2 12q11 38 40.5 59t66.5 21
q50 0 86 -35t36 -96q0 -91 -79 -162.5t-214 -71.5q-133 0 -209 80.5t-76 197.5zM700 667q0 12 -8 23q-16 22 -59 22q-67 0 -151 -57t-143 -156q0 -2 2 -2q87 -2 174 27t137.5 69.5t47.5 73.5zM393 278q0 15 -16 25.5t-42 10.5q-16 0 -37 -6q-2 0 -2 -3q7 -24 25.5 -38
t39.5 -14q32 0 32 25z" />
    <glyph glyph-name="Eacute" unicode="&#xc9;" horiz-adv-x="636" 
d="M571 826q-9 9 -9 21q0 13 9 22l97 97q9 9 22 9q12 0 21 -9q9 -8 9 -21q0 -12 -9 -21l-98 -98q-7 -9 -21 -9q-12 0 -21 9zM0 51q0 93 49 173t142 123q3 3 3 5q-2 22 -2 26q0 32 7 59l-2 4q-87 27 -131 80q-33 42 -33 91q0 43 24 78.5t63 49.5q8 4 19 4q25 0 25 -22
q0 -16 -17 -27q-53 -36 -53 -77q0 -34 34.5 -62.5t93.5 -44.5q4 0 5 3q70 126 177.5 192t212.5 66q50 0 88.5 -16t55.5 -44q15 -26 15 -54q3 -88 -118.5 -166.5t-291.5 -75.5q-6 0 -56 2q-1 1 -2.5 0t-1.5 -2q-9 -31 -10 -39q0 -2 3 -2q73 3 113.5 -25.5t40.5 -71.5
q0 -19 -9 -37q-24 -49 -87 -49q-37 0 -74.5 19.5t-58.5 51.5q-2 5 -5 1q-46 -39 -71.5 -95.5t-25.5 -115.5q0 -83 50 -138t141 -55q79 0 141 44t62 107q0 29 -17.5 48t-42.5 19q-36 0 -55 -37q-11 -21 -29 -21q-10 0 -17.5 7t-7.5 19q0 6 2 12q11 38 40.5 59t66.5 21
q50 0 86 -35t36 -96q0 -91 -79 -162.5t-214 -71.5q-133 0 -209 80.5t-76 197.5zM700 667q0 12 -8 23q-16 22 -59 22q-67 0 -151 -57t-143 -156q0 -2 2 -2q87 -2 174 27t137.5 69.5t47.5 73.5zM393 278q0 15 -16 25.5t-42 10.5q-16 0 -37 -6q-2 0 -2 -3q7 -24 25.5 -38
t39.5 -14q32 0 32 25z" />
    <glyph glyph-name="Ecircumflex" unicode="&#xca;" horiz-adv-x="636" 
d="M473 830q-6 8 -6 17q0 16 13 25l153 110q7 6 17 6q15 0 26 -14l68 -109q4 -7 4 -16q0 -16 -14 -25q-8 -5 -16 -5q-17 0 -25 14l-49 79q-2 2 -5 1l-124 -90q-9 -6 -18 -6q-14 0 -24 13zM0 51q0 93 49 173t142 123q3 3 3 5q-2 22 -2 26q0 32 7 59l-2 4q-87 27 -131 80
q-33 42 -33 91q0 43 24 78.5t63 49.5q8 4 19 4q25 0 25 -22q0 -16 -17 -27q-53 -36 -53 -77q0 -34 34.5 -62.5t93.5 -44.5q4 0 5 3q70 126 177.5 192t212.5 66q50 0 88.5 -16t55.5 -44q15 -26 15 -54q3 -88 -118.5 -166.5t-291.5 -75.5q-6 0 -56 2q-1 1 -2.5 0t-1.5 -2
q-9 -31 -10 -39q0 -2 3 -2q73 3 113.5 -25.5t40.5 -71.5q0 -19 -9 -37q-24 -49 -87 -49q-37 0 -74.5 19.5t-58.5 51.5q-2 5 -5 1q-46 -39 -71.5 -95.5t-25.5 -115.5q0 -83 50 -138t141 -55q79 0 141 44t62 107q0 29 -17.5 48t-42.5 19q-36 0 -55 -37q-11 -21 -29 -21
q-10 0 -17.5 7t-7.5 19q0 6 2 12q11 38 40.5 59t66.5 21q50 0 86 -35t36 -96q0 -91 -79 -162.5t-214 -71.5q-133 0 -209 80.5t-76 197.5zM700 667q0 12 -8 23q-16 22 -59 22q-67 0 -151 -57t-143 -156q0 -2 2 -2q87 -2 174 27t137.5 69.5t47.5 73.5zM393 278q0 15 -16 25.5
t-42 10.5q-16 0 -37 -6q-2 0 -2 -3q7 -24 25.5 -38t39.5 -14q32 0 32 25z" />
    <glyph glyph-name="Edieresis" unicode="&#xcb;" horiz-adv-x="636" 
d="M485 901q0 20 14 34t34 14t34.5 -14t14.5 -34t-14.5 -34t-34.5 -14t-34 14t-14 34zM631 901q0 20 14 34t34 14t34 -14t14 -34t-14 -34t-34 -14t-34 14t-14 34zM0 51q0 93 49 173t142 123q3 3 3 5q-2 22 -2 26q0 32 7 59l-2 4q-87 27 -131 80q-33 42 -33 91q0 43 24 78.5
t63 49.5q8 4 19 4q25 0 25 -22q0 -16 -17 -27q-53 -36 -53 -77q0 -34 34.5 -62.5t93.5 -44.5q4 0 5 3q70 126 177.5 192t212.5 66q50 0 88.5 -16t55.5 -44q15 -26 15 -54q3 -88 -118.5 -166.5t-291.5 -75.5q-6 0 -56 2q-1 1 -2.5 0t-1.5 -2q-9 -31 -10 -39q0 -2 3 -2
q73 3 113.5 -25.5t40.5 -71.5q0 -19 -9 -37q-24 -49 -87 -49q-37 0 -74.5 19.5t-58.5 51.5q-2 5 -5 1q-46 -39 -71.5 -95.5t-25.5 -115.5q0 -83 50 -138t141 -55q79 0 141 44t62 107q0 29 -17.5 48t-42.5 19q-36 0 -55 -37q-11 -21 -29 -21q-10 0 -17.5 7t-7.5 19q0 6 2 12
q11 38 40.5 59t66.5 21q50 0 86 -35t36 -96q0 -91 -79 -162.5t-214 -71.5q-133 0 -209 80.5t-76 197.5zM700 667q0 12 -8 23q-16 22 -59 22q-67 0 -151 -57t-143 -156q0 -2 2 -2q87 -2 174 27t137.5 69.5t47.5 73.5zM393 278q0 15 -16 25.5t-42 10.5q-16 0 -37 -6
q-2 0 -2 -3q7 -24 25.5 -38t39.5 -14q32 0 32 25z" />
    <glyph glyph-name="Igrave" unicode="&#xcc;" horiz-adv-x="605" 
d="M571 827l-90 98q-8 8 -8 20q0 13 9 22q8 8 21 8t22 -9l90 -98q8 -8 8 -21t-9 -22q-11 -8 -21 -8q-12 0 -22 10zM0 145q0 68 52 118.5t122 50.5q33 0 33 -25q0 -10 -8 -19t-20 -11q-46 -9 -71.5 -35t-25.5 -58q0 -31 20.5 -51.5t52.5 -20.5q94 0 191 175l42 83
q88 181 146 263q2 2 0 4q-24 15 -29 19q-45 29 -67 39t-44 10q-20 0 -32.5 -13t-12.5 -32q0 -27 22 -43q14 -11 14 -25q0 -10 -8 -17t-19 -7q-8 0 -15 4q-61 28 -61 94q0 47 34.5 85t84.5 38q33 0 62.5 -15t74.5 -50l40 -30q3 -1 5 1q47 51 87 66q18 6 33 6q31 0 51.5 -20.5
t20.5 -50.5q0 -48 -50 -75q-37 -22 -91 -19q-14 0 -27 3q-3 0 -5 -3q-21 -35 -56 -139l-42 -111q-11 -31 -40 -94q-57 -122 -128.5 -183t-172.5 -61q-73 0 -118 43t-45 106zM714 683q-5 8 -13 8q-26 0 -57 -41q-1 -1 -0.5 -2t1.5 -1q4 -1 17 -1q26 0 42 13t10 24z" />
    <glyph glyph-name="Iacute" unicode="&#xcd;" horiz-adv-x="605" 
d="M565 826q-9 9 -9 21q0 13 9 22l97 97q9 9 22 9q12 0 21 -9q9 -8 9 -21q0 -12 -9 -21l-97 -98q-9 -9 -22 -9q-12 0 -21 9zM0 145q0 68 52 118.5t122 50.5q33 0 33 -25q0 -10 -8 -19t-20 -11q-46 -9 -71.5 -35t-25.5 -58q0 -31 20.5 -51.5t52.5 -20.5q94 0 191 175l42 83
q88 181 146 263q2 2 0 4q-24 15 -29 19q-45 29 -67 39t-44 10q-20 0 -32.5 -13t-12.5 -32q0 -27 22 -43q14 -11 14 -25q0 -10 -8 -17t-19 -7q-8 0 -15 4q-61 28 -61 94q0 47 34.5 85t84.5 38q33 0 62.5 -15t74.5 -50l40 -30q3 -1 5 1q47 51 87 66q18 6 33 6q31 0 51.5 -20.5
t20.5 -50.5q0 -48 -50 -75q-37 -22 -91 -19q-14 0 -27 3q-3 0 -5 -3q-21 -35 -56 -139l-42 -111q-11 -31 -40 -94q-57 -122 -128.5 -183t-172.5 -61q-73 0 -118 43t-45 106zM714 683q-5 8 -13 8q-26 0 -57 -41q-1 -1 -0.5 -2t1.5 -1q4 -1 17 -1q26 0 42 13t10 24z" />
    <glyph glyph-name="Icircumflex" unicode="&#xce;" horiz-adv-x="605" 
d="M437 830q-5 7 -5 17q0 16 12 25l153 110q7 6 18 6q16 0 25 -14l68 -109q5 -8 5 -16q0 -16 -14 -25q-8 -5 -16 -5q-17 0 -26 14l-49 79q-2 2 -5 1l-124 -90q-7 -6 -17 -6q-15 0 -25 13zM0 145q0 68 52 118.5t122 50.5q33 0 33 -25q0 -10 -8 -19t-20 -11q-46 -9 -71.5 -35
t-25.5 -58q0 -31 20.5 -51.5t52.5 -20.5q94 0 191 175l42 83q88 181 146 263q2 2 0 4q-24 15 -29 19q-45 29 -67 39t-44 10q-20 0 -32.5 -13t-12.5 -32q0 -27 22 -43q14 -11 14 -25q0 -10 -8 -17t-19 -7q-8 0 -15 4q-61 28 -61 94q0 47 34.5 85t84.5 38q33 0 62.5 -15
t74.5 -50l40 -30q3 -1 5 1q47 51 87 66q18 6 33 6q31 0 51.5 -20.5t20.5 -50.5q0 -48 -50 -75q-37 -22 -91 -19q-14 0 -27 3q-3 0 -5 -3q-21 -35 -56 -139l-42 -111q-11 -31 -40 -94q-57 -122 -128.5 -183t-172.5 -61q-73 0 -118 43t-45 106zM714 683q-5 8 -13 8
q-26 0 -57 -41q-1 -1 -0.5 -2t1.5 -1q4 -1 17 -1q26 0 42 13t10 24z" />
    <glyph glyph-name="Idieresis" unicode="&#xcf;" horiz-adv-x="605" 
d="M459 901q0 20 14 34t34 14t34.5 -14t14.5 -34t-14.5 -34t-34.5 -14t-34 14t-14 34zM604 901q0 20 14.5 34t34.5 14t34 -14t14 -34t-14 -34t-34 -14t-34.5 14t-14.5 34zM0 145q0 68 52 118.5t122 50.5q33 0 33 -25q0 -10 -8 -19t-20 -11q-46 -9 -71.5 -35t-25.5 -58
q0 -31 20.5 -51.5t52.5 -20.5q94 0 191 175l42 83q88 181 146 263q2 2 0 4q-24 15 -29 19q-45 29 -67 39t-44 10q-20 0 -32.5 -13t-12.5 -32q0 -27 22 -43q14 -11 14 -25q0 -10 -8 -17t-19 -7q-8 0 -15 4q-61 28 -61 94q0 47 34.5 85t84.5 38q33 0 62.5 -15t74.5 -50l40 -30
q3 -1 5 1q47 51 87 66q18 6 33 6q31 0 51.5 -20.5t20.5 -50.5q0 -48 -50 -75q-37 -22 -91 -19q-14 0 -27 3q-3 0 -5 -3q-21 -35 -56 -139l-42 -111q-11 -31 -40 -94q-57 -122 -128.5 -183t-172.5 -61q-73 0 -118 43t-45 106zM714 683q-5 8 -13 8q-26 0 -57 -41
q-1 -1 -0.5 -2t1.5 -1q4 -1 17 -1q26 0 42 13t10 24z" />
    <glyph glyph-name="Eth" unicode="&#xd0;" horiz-adv-x="965" 
d="M301 65q-3 1 -7 0q-83 -69 -164 -69q-57 0 -93.5 33t-36.5 88q0 49 31.5 79.5t85.5 30.5q55 0 141 -39q2 -2 5 0q21 32 47 79q1 2 38 72q0 3 -3 3l-107 5q-10 0 -16.5 7t-6.5 16q0 10 6.5 17t16.5 7l136 6q4 0 5 3q56 120 97.5 182.5t88.5 87.5q13 7 21 7q13 0 13 -14
q0 -10 -6 -24q-33 -69 -56 -127q-19 -46 -39 -107q0 -1 3 -2l91 3q17 1 29 -10.5t12 -28.5q0 -16 -12 -27.5t-29 -10.5l-117 5q-3 0 -5 -3q-16 -40 -41 -89q-36 -67 -67 -108q-2 -2 0 -4q103 -57 169 -57q74 0 137 60t99 153q37 92 37 185q0 110 -55 170t-142 60
q-71 0 -144.5 -41.5t-132.5 -115.5q-11 -14 -24 -14q-9 0 -15.5 7t-6.5 18q0 10 5 22q44 86 138.5 139t195.5 53q126 0 209 -83t83 -241q0 -113 -47 -227q-46 -110 -133 -183q-86 -71 -194 -71q-59 0 -115 24.5t-125 73.5zM212 126q3 3 0 4q-56 38 -97 38q-26 0 -40.5 -14.5
t-14.5 -33.5t15 -31t39 -12q49 0 98 49z" />
    <glyph glyph-name="Ntilde" unicode="&#xd1;" horiz-adv-x="984" 
d="M709 861q-11 9 -11 23q0 11 8 19q38 45 81 45q27 0 64 -20q23 -14 37 -14q17 0 38 22q10 10 22 10t21 -9t9 -21q0 -10 -8 -21q-41 -41 -82 -41q-27 0 -66 21q-25 14 -35 14q-15 0 -36 -25q-9 -10 -23 -10q-12 0 -19 7zM0 145q0 68 52 118.5t122 50.5q33 0 33 -25
q0 -10 -8 -19t-20 -11q-46 -9 -71.5 -35t-25.5 -58q0 -31 20.5 -51.5t52.5 -20.5q52 0 102 49.5t107 149.5q42 75 123 230l19 36q2 3 0 6q-35 85 -33 112q0 39 22.5 63t54.5 24q29 0 48 -21.5t19 -58.5q0 -38 -32 -136q0 -3 1 -4q109 -163 132 -308q0 -2 2.5 -2.5t3.5 1.5
q26 60 33 75l118 267q32 72 52 104q50 90 131 90q22 0 39 -4t27 -13.5t10 -21.5t-10.5 -19.5t-25.5 -4.5h-8q-18 0 -27.5 -11.5t-25.5 -47.5q-52 -115 -142 -319t-98 -222q-19 -40 -33 -82q-8 -26 -38 -26h-64q-12 0 -19 10q-3 5 -3 11l-2 73q-4 112 -26 192q-19 78 -57 172
q0 1 -1 1t-1 -1q-46 -119 -81 -190q-39 -82 -81 -143q-89 -129 -228 -129q-73 0 -118 43t-45 106zM547 630q12 23 14 45q1 1 1 7q0 21 -13 21q-6 0 -11.5 -7.5t-5.5 -18.5q0 -17 12 -49q1 -1 2 0t1 2z" />
    <glyph glyph-name="Ograve" unicode="&#xd2;" horiz-adv-x="817" 
d="M546 827l-91 98q-8 11 -8 20q0 13 10 22q8 8 20 8q13 0 22 -9l91 -98q8 -11 8 -21q0 -12 -10 -22q-11 -8 -20 -8q-12 0 -22 10zM119 245q0 96 39 195q1 1 0.5 2t-1.5 1q-78 26 -117.5 70.5t-39.5 98.5q0 43 24.5 78.5t63.5 49.5q10 3 18 3q25 0 25 -21q0 -17 -17 -28
q-53 -36 -53 -77q0 -34 34.5 -62.5t93.5 -43.5q1 -1 5 2q70 126 178.5 192t211.5 66q107 0 144 -59q15 -26 15 -55q3 -87 -118.5 -165.5t-284.5 -75.5q-32 0 -67 3q-3 0 -5 -3q-30 -84 -30 -161q0 -79 33.5 -124.5t98.5 -45.5q91 0 171 68q78 66 127 170q48 103 51 201
q0 15 10 25.5t23 10.5q21 0 23 -25q2 -34 2 -40q0 -126 -56 -250q-55 -121 -154 -200q-97 -78 -214 -78q-110 0 -172 78t-62 200zM667 666q0 13 -8 23q-16 22 -58 22q-68 0 -152.5 -57t-141.5 -155q-1 -1 -0.5 -2t1.5 -1q66 -1 134 16t117 43t79.5 56t28.5 55z" />
    <glyph glyph-name="Oacute" unicode="&#xd3;" horiz-adv-x="817" 
d="M543 826q-9 9 -9 21q0 13 9 22l97 97q9 9 21 9q13 0 22 -9q9 -8 9 -21q0 -12 -9 -21l-98 -98q-7 -9 -21 -9q-12 0 -21 9zM119 245q0 96 39 195q1 1 0.5 2t-1.5 1q-78 26 -117.5 70.5t-39.5 98.5q0 43 24.5 78.5t63.5 49.5q10 3 18 3q25 0 25 -21q0 -17 -17 -28
q-53 -36 -53 -77q0 -34 34.5 -62.5t93.5 -43.5q1 -1 5 2q70 126 178.5 192t211.5 66q107 0 144 -59q15 -26 15 -55q3 -87 -118.5 -165.5t-284.5 -75.5q-32 0 -67 3q-3 0 -5 -3q-30 -84 -30 -161q0 -79 33.5 -124.5t98.5 -45.5q91 0 171 68q78 66 127 170q48 103 51 201
q0 15 10 25.5t23 10.5q21 0 23 -25q2 -34 2 -40q0 -126 -56 -250q-55 -121 -154 -200q-97 -78 -213 -78q-112 0 -173.5 78t-61.5 200zM667 666q0 13 -8 23q-16 22 -58 22q-68 0 -152.5 -57t-141.5 -155q-1 -1 -0.5 -2t1.5 -1q66 -1 134 16t117 43t79.5 56t28.5 55z" />
    <glyph glyph-name="Ocircumflex" unicode="&#xd4;" horiz-adv-x="817" 
d="M465 830q-5 8 -5 17q0 16 12 25l153 110q7 6 18 6q16 0 25 -14l68 -109q5 -8 5 -16q0 -16 -14 -25q-8 -5 -16 -5q-17 0 -26 14l-49 79q-2 2 -5 1l-124 -90q-7 -6 -17 -6q-15 0 -25 13zM119 245q0 96 39 195q1 1 0.5 2t-1.5 1q-78 26 -117.5 70.5t-39.5 98.5
q0 43 24.5 78.5t63.5 49.5q10 3 18 3q25 0 25 -21q0 -17 -17 -28q-53 -36 -53 -77q0 -34 34.5 -62.5t93.5 -43.5q1 -1 5 2q70 126 178.5 192t211.5 66q107 0 144 -59q15 -26 15 -55q3 -87 -118.5 -165.5t-284.5 -75.5q-32 0 -67 3q-3 0 -5 -3q-30 -84 -30 -161
q0 -79 33.5 -124.5t98.5 -45.5q91 0 171 68q78 66 127 170q48 103 51 201q0 15 10 25.5t23 10.5q21 0 23 -25q2 -34 2 -40q0 -126 -56 -250q-55 -121 -154 -200q-97 -78 -214 -78q-110 0 -172 78t-62 200zM667 666q0 13 -8 23q-16 22 -58 22q-68 0 -152.5 -57t-141.5 -155
q-1 -1 -0.5 -2t1.5 -1q66 -1 134 16t117 43t79.5 56t28.5 55z" />
    <glyph glyph-name="Otilde" unicode="&#xd5;" horiz-adv-x="817" 
d="M475 861q-11 9 -11 23q0 11 8 19q38 45 81 45q27 0 64 -20q23 -14 37 -14q17 0 38 22q10 10 22 10t21 -9t9 -21q0 -10 -8 -21q-41 -41 -82 -41q-27 0 -66 21q-25 14 -35 14q-15 0 -36 -25q-9 -10 -23 -10q-12 0 -19 7zM119 245q0 96 39 195q1 1 0.5 2t-1.5 1
q-78 26 -117.5 70.5t-39.5 98.5q0 43 24.5 78.5t63.5 49.5q10 3 18 3q25 0 25 -21q0 -17 -17 -28q-53 -36 -53 -77q0 -34 34.5 -62.5t93.5 -43.5q1 -1 5 2q70 126 178.5 192t211.5 66q107 0 144 -59q15 -26 15 -55q3 -87 -118.5 -165.5t-284.5 -75.5q-32 0 -67 3q-3 0 -5 -3
q-30 -84 -30 -161q0 -79 33.5 -124.5t98.5 -45.5q91 0 171 68q78 66 127 170q48 103 51 201q0 15 10 25.5t23 10.5q21 0 23 -25q2 -34 2 -40q0 -126 -56 -250q-55 -121 -154 -200q-97 -78 -214 -78q-110 0 -172 78t-62 200zM667 666q0 13 -8 23q-16 22 -58 22
q-68 0 -152.5 -57t-141.5 -155q-1 -1 -0.5 -2t1.5 -1q66 -1 134 16t117 43t79.5 56t28.5 55z" />
    <glyph glyph-name="Odieresis" unicode="&#xd6;" horiz-adv-x="817" 
d="M485 901q0 20 14 34t34 14t34.5 -14t14.5 -34t-14.5 -34t-34.5 -14t-34 14t-14 34zM631 901q0 20 14 34t34 14t34 -14t14 -34t-14 -34t-34 -14t-34 14t-14 34zM119 245q0 96 39 195q1 1 0.5 2t-1.5 1q-78 26 -117.5 70.5t-39.5 98.5q0 43 24.5 78.5t63.5 49.5q10 3 18 3
q25 0 25 -21q0 -17 -17 -28q-53 -36 -53 -77q0 -34 34.5 -62.5t93.5 -43.5q1 -1 5 2q70 126 178.5 192t211.5 66q107 0 144 -59q15 -26 15 -55q3 -87 -118.5 -165.5t-284.5 -75.5q-32 0 -67 3q-3 0 -5 -3q-30 -84 -30 -161q0 -79 33.5 -124.5t98.5 -45.5q91 0 171 68
q78 66 127 170q48 103 51 201q0 15 10 25.5t23 10.5q21 0 23 -25q2 -34 2 -40q0 -126 -56 -250q-55 -121 -154 -200q-97 -78 -213 -78q-112 0 -173.5 78t-61.5 200zM667 666q0 13 -8 23q-16 22 -58 22q-68 0 -152.5 -57t-141.5 -155q-1 -1 -0.5 -2t1.5 -1q66 -1 134 16
t117 43t79.5 56t28.5 55z" />
    <glyph glyph-name="multiply" unicode="&#xd7;" horiz-adv-x="867" 
d="M492 193l-71 111q-3 3 -5 1l-172 -119q-23 -17 -52 -17h-83q-9 0 -9 9q0 5 4 8l268 187q4 1 1 5l-103 162q-3 4 -3 9q0 6 4.5 10.5t11.5 4.5h37q31 0 45 -24l74 -117q3 -3 5 -1l180 126q22 16 53 16h80q10 0 10 -10q0 -4 -4 -7l-276 -192q-2 -2 -1 -5l101 -157q2 -6 2 -8
q0 -6 -4.5 -11t-11.5 -5h-37q-30 0 -44 24z" />
    <glyph glyph-name="Oslash" unicode="&#xd8;" horiz-adv-x="749" 
d="M152 -88l32 74q1 1 0 2.5t-2 1.5q-63 30 -97 98.5t-34 157.5q0 98 39 195q1 1 0.5 2t-1.5 1q-53 18 -76 38q-13 12 -13 27q0 14 9.5 24t24.5 10q11 0 23 -6q26 -15 64 -25q3 0 5 3q73 130 185.5 196t218.5 61q1 0 4 3l24 54q11 26 40 26h19q10 0 16 -8.5t1 -17.5l-30 -68
q-2 -4 2 -5q38 -15 54 -43q15 -25 15 -54q0 -58 -56 -117q-57 -58 -149 -92q-4 0 -5 -4l-158 -356q-1 -3 3 -3q84 0 161 68.5t123.5 168.5t56.5 202q2 21 10.5 33.5t18.5 12.5t18 -10t9 -26q2 -38 2 -41q0 -128 -56 -254q-56 -125 -155 -200q-99 -76 -223 -72q-14 0 -19 1
q-2 0 -4 -3l-24 -55q-11 -26 -40 -26h-19q-10 0 -16 8.5t-1 17.5zM418 521q4 0 5 4l80 181q1 3 -2 3q-70 -13 -141 -68t-121 -141q-2 -2 1 -2q98 0 178 23zM611 666q0 26 -29 38q-2 2 -4 -2l-62 -140q0 -3 2 -1q43 24 68 52.5t25 52.5zM237 105l141 318q1 1 0 2t-2 1
q-50 -9 -105 -9q-31 0 -66 3q-3 2 -5 -3q-30 -84 -30 -161q0 -111 62 -152q4 -1 5 1z" />
    <glyph glyph-name="Ugrave" unicode="&#xd9;" horiz-adv-x="874" 
d="M674 827l-91 98q-8 11 -8 20q0 13 10 22q8 8 20 8q13 0 22 -9l91 -98q8 -11 8 -21q0 -13 -10 -22q-11 -8 -20 -8q-12 0 -22 10zM198 161q0 71 30 153q26 75 72 160q44 81 78 133q2 2 -2 4l-65 27q-108 48 -152 48q-36 0 -56.5 -18.5t-20.5 -45.5q0 -23 17 -39t39 -16
q13 0 27 8q10 7 21 7t18.5 -7t7.5 -17q0 -15 -19 -30q-30 -21 -68 -21q-50 0 -87.5 33.5t-37.5 87.5q0 63 45.5 103t111.5 40q40 0 82.5 -15.5t110.5 -50.5q26 -13 71 -34q5 -1 7 1q68 77 126 77q31 0 51 -21.5t20 -49.5q0 -39 -37 -67t-94 -28q-15 0 -33 3q-5 0 -6 -3
q-38 -74 -81 -179q-42 -104 -52 -163q-5 -35 -5 -55q0 -101 79 -101q63 0 128 62q65 61 114 169l6 14l128 287q32 71 68 94q36 24 87 24q9 0 14 -9t1 -18l-94 -211l-119 -270q-38 -88 -44 -106q-2 -6 -2 -11q0 -13 10 -20.5t25 -7.5q18 0 34 10q53 29 117 134q8 14 22 14
q10 0 18 -8.5t8 -22.5t-9 -32q-48 -89 -99 -133t-119 -44q-43 0 -74 18t-41 51q-1 3 -4 3.5t-5 -1.5q-72 -96 -191 -96q-86 0 -131.5 49.5t-45.5 136.5zM564 683q-5 8 -13 8q-26 0 -57 -41q-1 -1 -0.5 -2t1.5 -1q16 -2 17 -2q25 0 41.5 13.5t10.5 24.5z" />
    <glyph glyph-name="Uacute" unicode="&#xda;" horiz-adv-x="874" 
d="M692 826q-9 9 -9 21q0 13 9 22l97 97q9 9 21 9q13 0 22 -9q8 -8 8 -21q0 -10 -8 -21l-98 -98q-9 -9 -21 -9t-21 9zM198 161q0 71 30 153q26 75 72 160q44 81 78 133q2 2 -2 4l-65 27q-108 48 -152 48q-36 0 -56.5 -18.5t-20.5 -45.5q0 -23 17 -39t39 -16q13 0 27 8
q10 7 21 7t18.5 -7t7.5 -17q0 -15 -19 -30q-30 -21 -68 -21q-50 0 -87.5 33.5t-37.5 87.5q0 63 45.5 103t111.5 40q40 0 82.5 -15.5t110.5 -50.5q26 -13 71 -34q5 -1 7 1q68 77 126 77q31 0 51 -21.5t20 -49.5q0 -39 -37 -67t-94 -28q-15 0 -33 3q-5 0 -6 -3
q-38 -74 -81 -179q-42 -104 -52 -163q-5 -35 -5 -55q0 -101 79 -101q63 0 128 62q65 61 114 169l6 14l128 287q32 71 68 94q36 24 87 24q9 0 14 -9t1 -18q-86 -191 -94 -211l-119 -270q-38 -88 -44 -106q-2 -6 -2 -11q0 -13 10 -20.5t25 -7.5q18 0 34 10q53 29 117 134
q8 14 22 14q10 0 18 -8.5t8 -22.5t-9 -32q-48 -89 -99 -133t-119 -44q-91 0 -115 69q-1 3 -4 3.5t-5 -1.5q-72 -96 -191 -96q-86 0 -131.5 49.5t-45.5 136.5zM564 683q-5 8 -13 8q-26 0 -57 -41q-1 -1 -0.5 -2t1.5 -1q16 -2 17 -2q25 0 41.5 13.5t10.5 24.5z" />
    <glyph glyph-name="Ucircumflex" unicode="&#xdb;" horiz-adv-x="874" 
d="M554 830q-5 8 -5 17q0 16 12 25l153 110q9 6 18 6q16 0 25 -14l68 -109q5 -8 5 -16q0 -16 -14 -25q-8 -5 -16 -5q-17 0 -26 14l-49 79q-2 3 -4 1l-125 -90q-8 -6 -17 -6q-15 0 -25 13zM198 161q0 71 30 153q26 75 72 160q44 81 78 133q2 2 -2 4l-65 27q-108 48 -152 48
q-36 0 -56.5 -18.5t-20.5 -45.5q0 -23 17 -39t39 -16q13 0 27 8q10 7 21 7t18.5 -7t7.5 -17q0 -15 -19 -30q-30 -21 -68 -21q-50 0 -87.5 33.5t-37.5 87.5q0 63 45.5 103t111.5 40q40 0 82.5 -15.5t110.5 -50.5q26 -13 71 -34q5 -1 7 1q68 77 126 77q31 0 51 -21.5t20 -49.5
q0 -39 -37 -67t-94 -28q-15 0 -33 3q-5 0 -6 -3q-38 -74 -81 -179q-42 -104 -52 -163q-5 -35 -5 -55q0 -101 79 -101q63 0 128 62q65 61 114 169l6 14l128 287q32 71 68 94q36 24 87 24q9 0 14 -9t1 -18q-86 -191 -94 -211l-119 -270q-38 -88 -44 -106q-2 -6 -2 -11
q0 -13 10 -20.5t25 -7.5q18 0 34 10q53 29 117 134q8 14 22 14q10 0 18 -8.5t8 -22.5t-9 -32q-48 -89 -99 -133t-119 -44q-43 0 -74 18t-41 51q-1 3 -4 3.5t-5 -1.5q-72 -96 -191 -96q-86 0 -131.5 49.5t-45.5 136.5zM564 683q-5 8 -13 8q-26 0 -57 -41q-1 -1 -0.5 -2
t1.5 -1q16 -2 17 -2q25 0 41.5 13.5t10.5 24.5z" />
    <glyph glyph-name="Udieresis" unicode="&#xdc;" horiz-adv-x="874" 
d="M580 901q0 20 14.5 34t34.5 14t34 -14t14 -34t-14 -34t-34 -14t-34.5 14t-14.5 34zM726 901q0 20 14 34t34 14t34 -14t14 -34t-14 -34t-34 -14t-34 14t-14 34zM198 161q0 71 30 153q26 75 72 160q44 81 78 133q2 2 -2 4l-65 27q-108 48 -152 48q-36 0 -56.5 -18.5
t-20.5 -45.5q0 -23 17 -39t39 -16q13 0 27 8q10 7 21 7t18.5 -7t7.5 -17q0 -15 -19 -30q-30 -21 -68 -21q-50 0 -87.5 33.5t-37.5 87.5q0 63 45.5 103t111.5 40q40 0 82.5 -15.5t110.5 -50.5q26 -13 71 -34q5 -1 7 1q68 77 126 77q31 0 51 -21.5t20 -49.5q0 -39 -37 -67
t-94 -28q-15 0 -33 3q-5 0 -6 -3q-38 -74 -81 -179q-42 -104 -52 -163q-5 -35 -5 -55q0 -101 79 -101q63 0 128 62q65 61 114 169l6 14l128 287q32 71 68 94q36 24 87 24q9 0 14 -9t1 -18l-94 -211l-119 -270q-38 -88 -44 -106q-2 -6 -2 -11q0 -13 10 -20.5t25 -7.5
q18 0 34 10q53 29 117 134q8 14 22 14q10 0 18 -8.5t8 -22.5t-9 -32q-48 -89 -99 -133t-119 -44q-43 0 -74 18t-41 51q-1 3 -4 3.5t-5 -1.5q-72 -96 -191 -96q-86 0 -131.5 49.5t-45.5 136.5zM564 683q-5 8 -13 8q-26 0 -57 -41q-1 -1 -0.5 -2t1.5 -1q16 -2 17 -2
q25 0 41.5 13.5t10.5 24.5z" />
    <glyph glyph-name="Yacute" unicode="&#xdd;" horiz-adv-x="877" 
d="M694 826q-9 9 -9 21q0 13 9 22l97 97q9 9 22 9q12 0 21 -9q9 -8 9 -21q0 -12 -9 -21l-98 -98q-8 -9 -21 -9q-12 0 -21 9zM279 -140q0 67 60 100t146 54l22 6q3 0 4 3l19 45q0 1 -2 3q-58 -31 -120 -31q-80 0 -135 51.5t-55 142.5q0 66 28 138q36 99 131 234q3 4 -1 5
l-65 27q-108 48 -152 48q-36 0 -56.5 -18.5t-20.5 -45.5q0 -23 17 -39t39 -16q13 0 27 8q10 7 21 7t18.5 -7t7.5 -17q0 -15 -19 -30q-30 -21 -68 -21q-50 0 -87.5 33.5t-37.5 87.5q0 63 45.5 103t111.5 40q40 0 82.5 -15.5t110.5 -50.5q26 -13 71 -34q5 -1 7 1q68 77 126 77
q31 0 51 -21.5t20 -49.5q0 -39 -37 -67t-94 -28q-15 0 -33 3q-5 0 -6 -3q-54 -106 -92 -209q-26 -72 -26 -126q0 -57 27 -89t71 -32q52 0 106 44.5t91 125.5l142 320q28 61 63.5 89.5t90.5 28.5q10 0 15 -9t1 -18l-291 -656q-2 -2 2 -2q49 12 78 27q76 39 139 149
q8 14 22 14q10 0 18 -9t8 -23q0 -16 -10 -32q-34 -62 -66.5 -98.5t-78.5 -62.5q-51 -30 -146 -50q-3 0 -5 -3q-42 -94 -95 -142t-130 -48q-49 0 -79.5 23.5t-30.5 64.5zM564 683q-5 8 -13 8q-26 0 -57 -41q-1 -1 -0.5 -2t1.5 -1q16 -2 17 -2q25 0 41.5 13.5t10.5 24.5z
M473 -66q0 3 -3 3q-49 -9 -73.5 -17.5t-41.5 -25.5q-16 -16 -16 -33q0 -12 9.5 -20t25.5 -8q31 0 57 28t42 73z" />
    <glyph glyph-name="Thorn" unicode="&#xde;" horiz-adv-x="865" 
d="M0 145q0 68 52 118.5t122 50.5q33 0 33 -25q0 -10 -8 -19t-20 -11q-46 -9 -71.5 -35t-25.5 -58q0 -31 20.5 -51.5t52.5 -20.5q49 0 92 40q39 38 69 86t75 137l9 20l23 45q44 91 85 166l-2 2q-108 -33 -193 -142q-11 -14 -25 -14q-9 0 -15.5 7t-6.5 18q0 10 5 22
q38 74 114 123t168 64q3 0 4 3q49 73 88 94q13 7 21 7q13 0 13 -15q0 -11 -7 -24q-11 -24 -25 -57q-1 -1 0 -2.5t2 -1.5q116 -9 178.5 -80.5t62.5 -173.5q2 -68 -24.5 -129.5t-69 -101.5t-95 -63t-103.5 -22q-70 0 -118 39q-17 14 -17 28q0 10 8.5 17t20.5 7q7 0 13 -3
q25 -13 58 -13q78 -2 146.5 71.5t66.5 175.5q0 73 -40 122t-114 58q-5 0 -6 -4l-19 -50q-47 -120 -79 -193q-44 -101 -92 -179q-47 -78 -113 -130q-65 -52 -150 -52q-73 0 -118 43t-45 106z" />
    <glyph glyph-name="germandbls" unicode="&#xdf;" horiz-adv-x="526" 
d="M-251 -217q-9 7 -9 21q0 26 30 30t47.5 19t32.5 49l56 124l227 512q45 100 107 164q62 63 152 63q56 0 86 -37t30 -99q0 -65 -30 -132t-76 -101q-1 -1 0 -5q42 -48 42 -121q0 -95 -65 -181q-5 -6 4 -5q41 7 96 79q17 23 42 63q8 14 22 14q10 0 18 -8.5t8 -22.5t-9 -32
q-15 -30 -34 -56q-39 -59 -94 -90.5t-115 -31.5q-19 0 -47 5q-3 1 -7 0q-29 -8 -52 -8q-47 0 -80.5 24t-43.5 68q-1 2 -1 9q0 12 7 19.5t17 7.5q18 0 32 -20q14 -21 45 -21q58 -3 101.5 64t42.5 137q0 77 -49 84q-44 8 -44 35q0 12 13.5 22.5t34.5 14.5q46 4 90.5 87
t42.5 141q0 38 -22 38q-48 0 -85 -61q-38 -62 -68 -128l-279 -629q-23 -51 -70.5 -80.5t-111.5 -33.5h-9q-18 0 -25 9z" />
    <glyph glyph-name="agrave" unicode="&#xe0;" horiz-adv-x="552" 
d="M298 513l-90 98q-8 8 -8 20q0 13 9 22q11 8 21 8q13 0 22 -10l90 -97q8 -8 8 -21t-9 -22q-11 -8 -21 -8q-13 0 -22 10zM254 62q-7 11 -15 3q-65 -65 -139 -65q-91 0 -115 90q-6 22 -6 48q0 47 19 103q32 92 108 153t145 59q59 0 91 -32q6 -6 16 -20h2l10 23q14 27 41 27
h63q11 0 16 -8.5t1 -18.5q-100 -222 -129 -299q-2 -6 -2 -13q0 -13 10 -21t26 -8q18 0 33 9q58 31 117 134q8 14 22 14q10 0 18.5 -8.5t8.5 -22.5q0 -16 -10 -32q-53 -91 -102 -134t-115 -43q-39 0 -70 17t-44 45zM283 229q35 72 35 96q0 40 -45 40q-33 0 -74 -26
q-71 -50 -102 -133q-15 -40 -15 -72q0 -45 36 -45q33 0 86 41t79 99z" />
    <glyph glyph-name="aacute" unicode="&#xe1;" horiz-adv-x="552" 
d="M268 512q-9 9 -9 21q0 13 9 21l97 98q9 9 22 9q12 0 21 -9t9 -21t-9 -21l-97 -98q-9 -9 -22 -9q-12 0 -21 9zM254 62q-7 11 -15 3q-65 -65 -139 -65q-91 0 -115 90q-6 22 -6 48q0 47 19 103q32 92 108 153t145 59q59 0 91 -32q6 -6 16 -20h2l10 23q14 27 41 27h63
q11 0 16 -8.5t1 -18.5q-100 -222 -129 -299q-2 -6 -2 -13q0 -13 10 -21t26 -8q18 0 33 9q58 31 117 134q8 14 22 14q10 0 18.5 -8.5t8.5 -22.5q0 -16 -10 -32q-53 -91 -102 -134t-115 -43q-39 0 -70 17t-44 45zM283 229q35 72 35 96q0 40 -45 40q-33 0 -74 -26
q-71 -50 -102 -133q-15 -40 -15 -72q0 -45 36 -45q33 0 86 41t79 99z" />
    <glyph glyph-name="acircumflex" unicode="&#xe2;" horiz-adv-x="552" 
d="M204 516q-5 7 -5 17q0 16 12 25l153 110q7 5 18 5q17 0 25 -14l68 -108q5 -8 5 -16q0 -17 -14 -25q-8 -5 -16 -5q-17 0 -26 14l-49 78q-1 2 -5 1l-124 -89q-8 -6 -17 -6q-16 0 -25 13zM254 62q-7 11 -15 3q-65 -65 -139 -65q-91 0 -115 90q-6 22 -6 48q0 47 19 103
q32 92 108 153t145 59q59 0 91 -32q6 -6 16 -20h2l10 23q14 27 41 27h63q11 0 16 -8.5t1 -18.5q-100 -222 -129 -299q-2 -6 -2 -13q0 -13 10 -21t26 -8q18 0 33 9q58 31 117 134q8 14 22 14q10 0 18.5 -8.5t8.5 -22.5q0 -16 -10 -32q-53 -91 -102 -134t-115 -43
q-39 0 -70 17t-44 45zM283 229q35 72 35 96q0 40 -45 40q-33 0 -74 -26q-71 -50 -102 -133q-15 -40 -15 -72q0 -45 36 -45q33 0 86 41t79 99z" />
    <glyph glyph-name="atilde" unicode="&#xe3;" horiz-adv-x="552" 
d="M215 547q-11 9 -11 23q0 9 7 19q41 45 82 45q26 0 64 -20q23 -14 37 -14q17 0 38 22q9 9 22 9t21 -8q9 -9 9 -22q0 -12 -8 -20q-41 -41 -82 -41q-27 0 -66 21q-22 13 -35 13q-17 0 -36 -24q-9 -10 -23 -10q-12 0 -19 7zM254 62q-7 11 -15 3q-65 -65 -139 -65
q-91 0 -115 90q-6 22 -6 48q0 47 19 103q32 92 108 153t145 59q59 0 91 -32q6 -6 16 -20h2l10 23q14 27 41 27h63q11 0 16 -8.5t1 -18.5q-100 -222 -129 -299q-2 -6 -2 -13q0 -13 10 -21t26 -8q18 0 33 9q58 31 117 134q8 14 22 14q10 0 18.5 -8.5t8.5 -22.5q0 -16 -10 -32
q-53 -91 -102 -134t-115 -43q-39 0 -70 17t-44 45zM283 229q35 72 35 96q0 40 -45 40q-33 0 -74 -26q-71 -50 -102 -133q-15 -40 -15 -72q0 -45 36 -45q33 0 86 41t79 99z" />
    <glyph glyph-name="adieresis" unicode="&#xe4;" horiz-adv-x="552" 
d="M224 587q0 20 14 34t34 14t34 -14t14 -34t-14 -34t-34 -14t-34 14t-14 34zM369 587q0 20 14 34t34 14t34.5 -14t14.5 -34t-14.5 -34t-34.5 -14t-34 14t-14 34zM254 62q-7 11 -15 3q-65 -65 -139 -65q-91 0 -115 90q-6 22 -6 48q0 47 19 103q32 92 108 153t145 59
q59 0 91 -32q6 -6 16 -20h2l10 23q14 27 41 27h63q11 0 16 -8.5t1 -18.5q-100 -222 -129 -299q-2 -6 -2 -13q0 -13 10 -21t26 -8q18 0 33 9q58 31 117 134q8 14 22 14q10 0 18.5 -8.5t8.5 -22.5q0 -16 -10 -32q-53 -91 -102 -134t-115 -43q-39 0 -70 17t-44 45zM283 229
q35 72 35 96q0 40 -45 40q-33 0 -74 -26q-71 -50 -102 -133q-15 -40 -15 -72q0 -45 36 -45q33 0 86 41t79 99z" />
    <glyph glyph-name="aring" unicode="&#xe5;" horiz-adv-x="552" 
d="M254 597q0 37 26.5 63.5t63.5 26.5q38 0 64.5 -26.5t26.5 -63.5t-26.5 -64t-64.5 -27q-37 0 -63.5 27t-26.5 64zM378 597q0 14 -10 23.5t-24 9.5q-13 0 -23 -9.5t-10 -23.5t9.5 -24t23.5 -10t24 10t10 24zM254 62q-7 11 -15 3q-65 -65 -139 -65q-91 0 -115 90
q-6 22 -6 48q0 47 19 103q32 92 108 153t145 59q59 0 91 -32q6 -6 16 -20h2l10 23q14 27 41 27h63q11 0 16 -8.5t1 -18.5q-100 -222 -129 -299q-2 -6 -2 -13q0 -13 10 -21t26 -8q18 0 33 9q58 31 117 134q8 14 22 14q10 0 18.5 -8.5t8.5 -22.5q0 -16 -10 -32
q-53 -91 -102 -134t-115 -43q-39 0 -70 17t-44 45zM283 229q35 72 35 96q0 40 -45 40q-33 0 -74 -26q-71 -50 -102 -133q-15 -40 -15 -72q0 -45 36 -45q33 0 86 41t79 99z" />
    <glyph glyph-name="ae" unicode="&#xe6;" horiz-adv-x="741" 
d="M301 106q-2 2 -4 0q-43 -50 -95.5 -78.5t-101.5 -28.5q-91 0 -115 89q-6 24 -6 49q0 48 19 102q33 95 107 154t146 59q10 0 13 -1q33 -2 53.5 -13t38.5 -36q2 -2 4 1q2 9 9 20q11 26 40 26h36q19 0 19 -18q1 -3 2 -4q47 25 98 25q53 0 86 -29t33 -72q0 -47 -37 -84
q-72 -76 -240 -87q-4 0 -4 -3q-1 -48 28 -75.5t78 -27.5q36 0 75 13q89 27 151 134q9 14 23 14q10 0 18.5 -8.5t8.5 -22.5t-11 -33q-104 -176 -296 -176q-69 0 -114.5 29.5t-61.5 81.5zM578 298q27 25 27 49q0 22 -27 22q-12 0 -30 -6q-40 -11 -74 -42.5t-54 -75.5
q-1 -1 0 -2t2 -1q111 17 156 56zM283 228q35 72 35 96q0 39 -45 39q-36 0 -74 -26q-71 -47 -102 -132q-15 -41 -15 -72q0 -48 38 -48q34 -2 81.5 33.5t81.5 109.5z" />
    <glyph glyph-name="ccedilla" unicode="&#xe7;" horiz-adv-x="434" 
d="M30 -208q-18 10 -18 29q0 10 7 17.5t19 7.5q7 0 14 -3q21 -10 46 -10q23 0 38 10.5t15 23.5q0 19 -30 19q-13 0 -21.5 9t-8.5 21q0 6 2 12l29 66q1 1 0 2.5t-2 1.5q-65 13 -99.5 56t-34.5 107q0 66 37 131q37 70 102 117t133 47q50 0 84 -29t34 -71q0 -48 -38 -81
q-19 -16 -39 -16t-34.5 14.5t-14.5 33.5q0 27 30 43q13 6 13 12q0 8 -21 8q-9 0 -31 -5q-49 -15 -88 -57t-54 -100q-4 -15 -4 -34q0 -45 28.5 -71.5t78.5 -26.5q32 0 74 12q90 29 152 134q8 14 22 14q10 0 18.5 -8.5t8.5 -22.5q0 -15 -11 -32q-97 -169 -275 -179q-3 0 -5 -3
l-21 -49q-2 -4 2 -5q43 -18 43 -68q0 -40 -31 -68t-80 -28q-38 0 -69 19z" />
    <glyph glyph-name="egrave" unicode="&#xe8;" horiz-adv-x="433" 
d="M243 515l-91 98q-8 11 -8 21q0 12 10 22q11 8 20 8q12 0 22 -10l91 -98q8 -8 8 -20q0 -13 -10 -22q-8 -8 -20 -8q-13 0 -22 9zM-15 165q0 66 37 130q39 70 102 116q64 48 133 48q53 0 85.5 -29.5t32.5 -73.5q0 -45 -37 -85q-72 -76 -240 -87q-4 0 -4 -3q-2 -46 27 -74.5
t81 -28.5q35 0 73 13q89 27 152 134q8 14 22 14q12 0 19.5 -8.5t7.5 -22.5t-10 -33q-110 -179 -297 -179q-86 0 -135 46.5t-49 122.5zM270 303q28 26 28 48t-27 22q-6 0 -31 -5q-40 -12 -75 -43.5t-53 -75.5q-1 -1 0 -2t2 0q112 17 156 56z" />
    <glyph glyph-name="eacute" unicode="&#xe9;" horiz-adv-x="433" 
d="M213 515q-8 8 -8 21q0 10 8 21l98 98q9 9 21 9t21 -9t9 -21q0 -13 -9 -22l-97 -97q-9 -9 -21 -9q-13 0 -22 9zM-15 165q0 66 37 130q39 70 102 116q64 48 133 48q53 0 85.5 -29.5t32.5 -73.5q0 -45 -37 -85q-72 -76 -240 -87q-4 0 -4 -3q-2 -46 27 -74.5t81 -28.5
q35 0 73 13q89 27 152 134q8 14 22 14q12 0 19.5 -8.5t7.5 -22.5t-10 -33q-110 -179 -297 -179q-86 0 -135 46.5t-49 122.5zM270 303q28 26 28 48t-27 22q-6 0 -31 -5q-40 -12 -75 -43.5t-53 -75.5q-1 -1 0 -2t2 0q112 17 156 56z" />
    <glyph glyph-name="ecircumflex" unicode="&#xea;" horiz-adv-x="433" 
d="M127 518q-6 9 -6 18q0 15 12 24l153 111q12 5 18 5q17 0 25 -14l68 -108q5 -8 5 -16q0 -17 -14 -26q-7 -4 -16 -4q-17 0 -26 14l-49 78q-2 3 -4 1l-125 -89q-7 -6 -17 -6q-17 0 -24 12zM-15 165q0 66 37 130q39 70 102 116q64 48 133 48q53 0 85.5 -29.5t32.5 -73.5
q0 -45 -37 -85q-72 -76 -240 -87q-4 0 -4 -3q-2 -46 27 -74.5t81 -28.5q35 0 73 13q89 27 152 134q8 14 22 14q12 0 19.5 -8.5t7.5 -22.5t-10 -33q-110 -179 -297 -179q-86 0 -135 46.5t-49 122.5zM270 303q28 26 28 48t-27 22q-6 0 -31 -5q-40 -12 -75 -43.5t-53 -75.5
q-1 -1 0 -2t2 0q112 17 156 56z" />
    <glyph glyph-name="edieresis" unicode="&#xeb;" horiz-adv-x="433" 
d="M139 590q0 20 14.5 34t33.5 14q20 0 34.5 -14t14.5 -34t-14.5 -34.5t-34.5 -14.5t-34 14.5t-14 34.5zM284 590q0 20 14.5 34t34.5 14t34 -14t14 -34t-14 -34.5t-34 -14.5t-34.5 14.5t-14.5 34.5zM-15 165q0 66 37 130q39 70 102 116q64 48 133 48q53 0 85.5 -29.5
t32.5 -73.5q0 -45 -37 -85q-72 -76 -240 -87q-4 0 -4 -3q-2 -46 27 -74.5t81 -28.5q35 0 73 13q89 27 152 134q8 14 22 14q12 0 19.5 -8.5t7.5 -22.5t-10 -33q-110 -179 -297 -179q-86 0 -135 46.5t-49 122.5zM270 303q28 26 28 48t-27 22q-6 0 -31 -5q-40 -12 -75 -43.5
t-53 -75.5q-1 -1 0 -2t2 0q112 17 156 56z" />
    <glyph glyph-name="igrave" unicode="&#xec;" horiz-adv-x="262" 
d="M156 513l-91 98q-8 8 -8 20q0 13 10 22q8 8 20 8q13 0 22 -10l91 -97q8 -11 8 -21q0 -12 -10 -22q-11 -8 -20 -8q-13 0 -22 10zM-45 104q0 19 8 43q21 59 40 103l77 174q12 27 41 27h63q10 0 15.5 -8.5t1.5 -18.5q-83 -180 -120 -276q-11 -27 -11 -37q0 -13 11 -21t25 -8
q17 0 33 10q55 28 117 134q8 14 22 14q12 0 19.5 -8.5t7.5 -22.5q0 -16 -10 -32q-15 -29 -33 -57q-82 -120 -184 -120q-57 0 -90 29t-33 75z" />
    <glyph glyph-name="iacute" unicode="&#xed;" horiz-adv-x="262" 
d="M156 512q-8 11 -8 21q0 13 8 21l98 98q9 9 21 9t21 -9t9 -21t-9 -21l-97 -98q-9 -9 -21 -9q-13 0 -22 9zM-45 104q0 19 8 43q21 59 40 103l77 174q12 27 41 27h63q10 0 15.5 -8.5t1.5 -18.5q-83 -180 -120 -276q-11 -27 -11 -37q0 -13 11 -21t25 -8q17 0 33 10
q55 28 117 134q8 14 22 14q12 0 19.5 -8.5t7.5 -22.5q0 -16 -10 -32q-15 -29 -33 -57q-82 -120 -184 -120q-57 0 -90 29t-33 75z" />
    <glyph glyph-name="icircumflex" unicode="&#xee;" horiz-adv-x="265" 
d="M32 516q-5 8 -5 17q0 16 12 25l153 110q7 5 18 5q17 0 25 -14l68 -108q5 -8 5 -16q0 -17 -14 -25q-8 -5 -16 -5q-17 0 -26 14l-49 78q-2 3 -4 1l-125 -89q-7 -6 -17 -6q-16 0 -25 13zM-45 104q0 19 8 43q21 59 40 103l77 174q12 27 41 27h63q10 0 15.5 -8.5t1.5 -18.5
q-83 -180 -120 -276q-11 -27 -11 -37q0 -13 11 -21t25 -8q17 0 33 10q55 28 117 134q8 14 22 14q12 0 19.5 -8.5t7.5 -22.5q0 -16 -10 -32q-15 -29 -33 -57q-82 -120 -184 -120q-57 0 -90 29t-33 75z" />
    <glyph glyph-name="idieresis" unicode="&#xef;" horiz-adv-x="266" 
d="M67 587q0 20 14.5 34t34.5 14t34 -14t14 -34t-14 -34t-34 -14t-34.5 14t-14.5 34zM213 587q0 20 14 34t34 14t34 -14t14 -34t-14 -34t-34 -14t-34 14t-14 34zM-45 104q0 19 8 43q21 59 40 103l77 174q12 27 41 27h63q10 0 15.5 -8.5t1.5 -18.5q-83 -180 -120 -276
q-11 -27 -11 -37q0 -13 11 -21t25 -8q17 0 33 10q55 28 117 134q8 14 22 14q12 0 19.5 -8.5t7.5 -22.5q0 -16 -10 -32q-15 -29 -33 -57q-82 -120 -184 -120q-57 0 -90 29t-33 75z" />
    <glyph glyph-name="eth" unicode="&#xf0;" horiz-adv-x="506" 
d="M-20 170q0 69 36 132q39 71 102.5 113.5t137.5 42.5q54 0 92 -35q5 -4 6.5 -3.5t1.5 5.5q0 65 -23 128q-1 3 -5 3l-90 -29l-5 -1q-16 0 -21 16q-1 1 -1 7q0 15 13 20l81 33q2 1 1 5q-32 51 -86 79q-6 3 -4 9l10 34q2 7 9 5q87 -20 143 -99q2 -2 5 -1l75 31q9 3 17 3
q14 0 22.5 -9t8.5 -22q0 -27 -27 -34l-66 -21q-1 0 -2 -1t0 -2q41 -91 41 -197q0 -110 -43 -199q-39 -83 -107.5 -133t-150.5 -50q-80 0 -125.5 47t-45.5 123zM334 309q0 77 -71 77q-53 0 -105.5 -46.5t-70.5 -129.5q-5 -28 -5 -40q0 -41 21.5 -63t55.5 -22q39 -2 81 35.5
t68.5 91.5t25.5 97z" />
    <glyph glyph-name="ntilde" unicode="&#xf1;" horiz-adv-x="518" 
d="M153 547q-11 9 -11 23q0 11 7 19q39 45 82 45q26 0 64 -20q23 -14 37 -14q17 0 38 22q9 9 22 9t21 -8q9 -9 9 -22q0 -12 -8 -20q-41 -41 -82 -41q-27 0 -66 21q-22 13 -35 13q-17 0 -36 -24q-9 -10 -23 -10q-12 0 -19 7zM214 103q0 23 11 59q20 54 41 102l16 39
q12 27 12 47q0 25 -25 25q-47 0 -93 -55q-46 -53 -73 -118l-59 -134l-19 -41q-12 -27 -40 -27h-63q-10 0 -15.5 8.5t-1.5 17.5l177 398q11 26 40 26h62q10 0 16 -8.5t1 -17.5l-2 -4q-1 -3 -0.5 -3.5t2.5 0.5q37 33 88 33q49 0 79.5 -29t30.5 -81q0 -40 -18 -86l-17 -43
q-25 -54 -35 -88q-3 -7 -3 -13q0 -13 10 -20.5t25 -7.5q17 0 34 9q55 30 117 135q9 14 22 14q11 0 19 -9t8 -23q0 -15 -10 -31q-15 -29 -33 -57q-80 -119 -182 -120h-4q-53 0 -85.5 27.5t-32.5 75.5z" />
    <glyph glyph-name="ograve" unicode="&#xf2;" 
d="M280 515l-90 98q-8 8 -8 21t9 22q11 8 21 8q12 0 22 -10l90 -98q8 -8 8 -20q0 -13 -9 -22q-8 -8 -21 -8t-22 9zM-15 165q0 66 37 130q39 70 104 117q67 47 138 47q68 0 108.5 -44t40.5 -116q0 -70 -37 -137q-1 -1 1 -4q18 -6 32 -6q57 0 108 83q9 14 23 14q10 0 17.5 -8
t7.5 -22q0 -19 -15 -44q-61 -100 -156 -100q-32 0 -63 12q-5 2 -6 -1q-78 -90 -174 -90q-72 0 -119 48.5t-47 120.5zM269 127q3 3 0 6q-22 27 -33 59q-14 42 -14 77q0 76 47 111q4 4 -1 4q-69 -2 -121 -70.5t-50 -137.5q0 -41 20 -65t58 -24q48 0 94 40zM330 206
q22 45 22 90l-1 13q-5 23 -18 23q-8 0 -15 -8.5t-9 -21.5q-2 -10 -2 -21q0 -41 20 -76q0 -2 3 1z" />
    <glyph glyph-name="oacute" unicode="&#xf3;" 
d="M253 515q-9 7 -9 21q0 12 9 21l97 98q9 9 21 9q13 0 22 -9q8 -11 8 -21q0 -11 -8 -22l-98 -97q-9 -9 -21 -9t-21 9zM-15 165q0 66 37 130q39 70 104 117q67 47 138 47q68 0 108.5 -44t40.5 -116q0 -70 -37 -137q-1 -1 1 -4q18 -6 32 -6q57 0 108 83q9 14 23 14
q10 0 17.5 -8t7.5 -22q0 -19 -15 -44q-61 -100 -156 -100q-32 0 -63 12q-5 2 -6 -1q-78 -90 -174 -90q-72 0 -119 48.5t-47 120.5zM269 127q3 3 0 6q-22 27 -33 59q-14 42 -14 77q0 76 47 111q4 4 -1 4q-69 -2 -121 -70.5t-50 -137.5q0 -41 20 -65t58 -24q48 0 94 40z
M330 206q22 45 22 90l-1 13q-5 23 -18 23q-8 0 -15 -8.5t-9 -21.5q-2 -10 -2 -21q0 -41 20 -76q0 -2 3 1z" />
    <glyph glyph-name="ocircumflex" unicode="&#xf4;" 
d="M152 518q-6 9 -6 18q0 15 12 24l154 111q8 5 17 5q17 0 26 -14l67 -108q5 -7 5 -16q0 -17 -14 -26q-7 -4 -16 -4q-17 0 -25 14l-49 78q-3 3 -5 1l-124 -89q-9 -6 -18 -6q-15 0 -24 12zM-15 165q0 66 37 130q39 70 104 117q67 47 138 47q68 0 108.5 -44t40.5 -116
q0 -70 -37 -137q-1 -1 1 -4q18 -6 32 -6q57 0 108 83q9 14 23 14q10 0 17.5 -8t7.5 -22q0 -19 -15 -44q-61 -100 -156 -100q-32 0 -63 12q-5 2 -6 -1q-78 -90 -174 -90q-72 0 -119 48.5t-47 120.5zM269 127q3 3 0 6q-22 27 -33 59q-14 42 -14 77q0 76 47 111q4 4 -1 4
q-69 -2 -121 -70.5t-50 -137.5q0 -41 20 -65t58 -24q48 0 94 40zM330 206q22 45 22 90l-1 13q-5 23 -18 23q-8 0 -15 -8.5t-9 -21.5q-2 -10 -2 -21q0 -41 20 -76q0 -2 3 1z" />
    <glyph glyph-name="otilde" unicode="&#xf5;" 
d="M156 549q-10 9 -10 23q0 13 7 20q40 45 82 45q26 0 63 -21q26 -14 38 -14q15 0 38 23q9 9 22 9q12 0 20 -8q10 -9 10 -22q0 -12 -9 -21q-38 -41 -81 -41q-26 0 -66 21l-7 4q-7 4 -15 7t-13 3q-15 0 -36 -24q-9 -11 -23 -11q-10 0 -20 7zM-15 165q0 66 37 130
q39 70 104 117q67 47 138 47q68 0 108.5 -44t40.5 -116q0 -70 -37 -137q-1 -1 1 -4q18 -6 32 -6q57 0 108 83q9 14 23 14q10 0 17.5 -8t7.5 -22q0 -19 -15 -44q-61 -100 -156 -100q-32 0 -63 12q-5 2 -6 -1q-78 -90 -174 -90q-72 0 -119 48.5t-47 120.5zM269 127q3 3 0 6
q-22 27 -33 59q-14 42 -14 77q0 76 47 111q4 4 -1 4q-69 -2 -121 -70.5t-50 -137.5q0 -41 20 -65t58 -24q48 0 94 40zM330 206q22 45 22 90l-1 13q-5 23 -18 23q-8 0 -15 -8.5t-9 -21.5q-2 -10 -2 -21q0 -41 20 -76q0 -2 3 1z" />
    <glyph glyph-name="odieresis" unicode="&#xf6;" 
d="M167 590q0 20 14.5 34t34.5 14t34 -14t14 -34t-14 -34.5t-34 -14.5t-34.5 14.5t-14.5 34.5zM313 590q0 20 14 34t34 14t34 -14t14 -34t-14 -34.5t-34 -14.5t-34 14.5t-14 34.5zM-15 165q0 66 37 130q39 70 104 117q67 47 138 47q68 0 108.5 -44t40.5 -116q0 -70 -37 -137
q-1 -1 1 -4q18 -6 32 -6q57 0 108 83q9 14 23 14q10 0 17.5 -8t7.5 -22q0 -19 -15 -44q-61 -100 -156 -100q-32 0 -63 12q-5 2 -6 -1q-78 -90 -174 -90q-72 0 -119 48.5t-47 120.5zM269 127q3 3 0 6q-22 27 -33 59q-14 42 -14 77q0 76 47 111q4 4 -1 4q-69 -2 -121 -70.5
t-50 -137.5q0 -41 20 -65t58 -24q48 0 94 40zM330 206q22 45 22 90l-1 13q-5 23 -18 23q-8 0 -15 -8.5t-9 -21.5q-2 -10 -2 -21q0 -41 20 -76q0 -2 3 1z" />
    <glyph glyph-name="divide" unicode="&#xf7;" horiz-adv-x="664" 
d="M340 521q0 24 17.5 41.5t41.5 17.5q25 0 42.5 -17.5t17.5 -41.5q0 -25 -17.5 -42.5t-42.5 -17.5q-24 0 -41.5 17.5t-17.5 42.5zM100 350q0 1 2 9l6 15q15 33 51 33h382q10 0 16.5 -7t6.5 -16q0 -5 -2 -9l-6 -15q-15 -33 -51 -33h-381q-10 0 -17 7t-7 16zM206 213
q0 24 17 41.5t42 17.5t42 -17.5t17 -41.5q0 -25 -17 -42t-42 -17t-42 17t-17 42z" />
    <glyph glyph-name="oslash" unicode="&#xf8;" horiz-adv-x="548" 
d="M43 -87l40 90q0 4 -2 4q-47 17 -71.5 57t-24.5 95q0 38 14 85q31 91 106.5 150.5t157.5 59.5q12 0 15 -1q5 0 5 3l36 81q11 26 41 26h8q10 0 15.5 -8.5t1.5 -17.5l-44 -99q-2 -4 2 -5q68 -42 68 -138q0 -59 -29 -122q-1 -1 1 -4q28 -19 62 -19q55 0 100 78q9 14 23 14
q10 0 18 -8.5t8 -22.5q0 -16 -10 -32q-52 -96 -150 -96q-52 0 -90 20q-3 2 -6 -1q-84 -106 -187 -106h-3q-2 0 -4 -3l-36 -80q-12 -27 -40 -27h-8q-11 0 -16 8.5t-1 18.5zM127 102l121 274q2 3 -1 3q-60 -9 -106.5 -76.5t-44.5 -130.5q0 -47 26 -70q3 -3 5 0zM292 150
q2 5 1 6q-11 24 -11 52q0 36 17.5 65.5t44.5 39.5q2 2 2 6q-7 34 -31 50q-2 2 -5 -1l-124 -280q-3 -3 3 -3q57 7 103 65z" />
    <glyph glyph-name="ugrave" unicode="&#xf9;" 
d="M261 513l-91 98q-8 8 -8 20t10 22q11 8 20 8q14 0 23 -10l90 -97q8 -11 8 -21q0 -13 -10 -22q-8 -8 -20 -8q-13 0 -22 10zM-44 103q0 18 8 44q21 57 40 102q45 104 77 175q11 26 41 26h63q10 0 15.5 -8t1.5 -18q-95 -212 -120 -276q-8 -21 -8 -36q0 -30 31 -30q17 0 35 9
q31 16 62.5 54.5t51.5 86.5q26 64 84 192q11 26 41 26h63q10 0 15.5 -8t1.5 -18q-93 -206 -120 -276q-11 -27 -11 -37q0 -13 11 -21t24 -8q16 0 34 9q60 33 117 135q8 14 22 14q10 0 18 -9t8 -23q0 -16 -9 -32q-12 -23 -34 -56q-81 -121 -183 -121q-79 0 -110 54q-2 5 -9 5
q-5 0 -8 -3q-59 -56 -130 -56q-56 0 -89.5 29.5t-33.5 74.5z" />
    <glyph glyph-name="uacute" unicode="&#xfa;" 
d="M263 512q-8 11 -8 21q0 13 8 21l98 98q9 9 21 9t21 -9t9 -21t-9 -21l-97 -98q-9 -9 -21 -9q-13 0 -22 9zM-44 103q0 18 8 44q21 57 40 102q45 104 77 175q11 26 41 26h63q10 0 15.5 -8t1.5 -18q-95 -212 -120 -276q-8 -21 -8 -36q0 -30 31 -30q17 0 35 9q31 16 62.5 54.5
t51.5 86.5q26 64 84 192q11 26 41 26h63q10 0 15.5 -8t1.5 -18q-93 -206 -120 -276q-11 -27 -11 -37q0 -13 11 -21t24 -8q16 0 34 9q60 33 117 135q8 14 22 14q10 0 18 -9t8 -23q0 -16 -9 -32q-12 -23 -34 -56q-81 -121 -183 -121q-79 0 -110 54q-2 5 -9 5q-5 0 -8 -3
q-59 -56 -130 -56q-56 0 -89.5 29.5t-33.5 74.5z" />
    <glyph glyph-name="ucircumflex" unicode="&#xfb;" 
d="M163 516q-6 8 -6 17q0 15 13 25l153 110q7 5 18 5q17 0 25 -14l68 -108q4 -7 4 -16q0 -17 -14 -25q-8 -5 -16 -5q-16 0 -25 14l-49 78q-1 2 -5 1l-124 -89q-7 -6 -18 -6q-15 0 -24 13zM-44 103q0 18 8 44q21 57 40 102q45 104 77 175q11 26 41 26h63q10 0 15.5 -8
t1.5 -18q-95 -212 -120 -276q-8 -21 -8 -36q0 -30 31 -30q17 0 35 9q31 16 62.5 54.5t51.5 86.5q26 64 84 192q11 26 41 26h63q10 0 15.5 -8t1.5 -18q-93 -206 -120 -276q-11 -27 -11 -37q0 -13 11 -21t24 -8q16 0 34 9q60 33 117 135q8 14 22 14q10 0 18 -9t8 -23
q0 -16 -9 -32q-12 -23 -34 -56q-81 -121 -183 -121q-79 0 -110 54q-2 5 -9 5q-5 0 -8 -3q-59 -56 -130 -56q-56 0 -89.5 29.5t-33.5 74.5z" />
    <glyph glyph-name="udieresis" unicode="&#xfc;" 
d="M182 587q0 20 14 34t34 14t34 -14t14 -34t-14 -34t-34 -14t-34 14t-14 34zM327 587q0 20 14 34t34 14t34.5 -14t14.5 -34t-14.5 -34t-34.5 -14t-34 14t-14 34zM-44 103q0 18 8 44q21 57 40 102q45 104 77 175q11 26 41 26h63q10 0 15.5 -8t1.5 -18q-95 -212 -120 -276
q-8 -21 -8 -36q0 -30 31 -30q17 0 35 9q31 16 62.5 54.5t51.5 86.5q26 64 84 192q11 26 41 26h63q10 0 15.5 -8t1.5 -18q-93 -206 -120 -276q-11 -27 -11 -37q0 -13 11 -21t24 -8q16 0 34 9q60 33 117 135q8 14 22 14q10 0 18 -9t8 -23q0 -16 -9 -32q-12 -23 -34 -56
q-81 -121 -183 -121q-79 0 -110 54q-2 5 -9 5q-5 0 -8 -3q-59 -56 -130 -56q-56 0 -89.5 29.5t-33.5 74.5z" />
    <glyph glyph-name="yacute" unicode="&#xfd;" 
d="M263 512q-9 9 -9 21t9 21l97 98q9 9 22 9q12 0 21 -9t9 -21q0 -13 -9 -21l-98 -98q-7 -9 -21 -9q-12 0 -21 9zM-55 -199q-24 24 -24 60q0 15 4 26q11 40 47 65.5t99 43.5q3 2 0 4q-53 2 -84 31t-31 72q0 18 8 44q21 57 40 102q45 104 77 175q11 26 41 26h63q10 0 15.5 -8
t1.5 -18q-95 -212 -120 -276q-8 -21 -8 -35q0 -31 30 -31q23 0 53 21q26 18 45 41t28.5 40.5t21.5 46.5l87 193q11 26 40 26h63q8 0 13.5 -5.5t5.5 -12.5q0 -2 -2 -8q-45 -101 -167 -372q0 -1 0.5 -2t1.5 0q50 10 81 27q75 40 138 149q9 14 22 14q12 0 19.5 -8.5t7.5 -22.5
t-10 -33q-38 -64 -69 -99.5t-77 -61.5q-48 -26 -148 -50q-5 0 -5 -3q-29 -65 -57 -103.5t-65 -59.5q-44 -26 -102 -26q-56 0 -84 28zM122 -64q1 1 0 2t-2 1q-52 -10 -74 -17t-40 -20q-25 -19 -25 -40q0 -13 9 -21t25 -8q62 0 107 103z" />
    <glyph glyph-name="thorn" unicode="&#xfe;" horiz-adv-x="534" 
d="M-196 -208q0 4 2 8l200 454q65 147 202 453q12 27 40 27h63q10 0 15.5 -8.5t1.5 -17.5l-132 -298q-2 -2 1 -2q52 43 101 43q91 0 115 -90q6 -23 6 -48q0 -47 -19 -103q-12 -28 -21 -47q-1 -1 0 -2.5t2 -1.5q21 -10 47 -10q55 0 100 77q8 14 23 14q10 0 18 -8.5t8 -22.5
t-9 -32q-53 -96 -151 -96q-42 0 -78 16q-5 2 -6 -1q-39 -45 -89.5 -71.5t-95.5 -26.5q-74 0 -110 49q-1 1 -2 1t-1 -1l-110 -247q-12 -27 -40 -27h-63q-18 0 -18 19zM199 112q35 22 60 57q3 2 1 7q-11 27 -11 54q0 11 1 14q2 28 20 50t43 31q3 0 3 5q-6 31 -37 31
q-47 0 -99 -52q-52 -51 -80 -116q-18 -41 -18 -67q0 -40 41 -40q36 0 76 26z" />
    <glyph glyph-name="ydieresis" unicode="&#xff;" 
d="M181 587q0 20 14 34t34 14t34.5 -14t14.5 -34t-14.5 -34t-34.5 -14t-34 14t-14 34zM327 587q0 20 14 34t34 14t34 -14t14 -34t-14 -34t-34 -14t-34 14t-14 34zM-47 -206q-32 26 -32 67q0 15 4 26q11 40 47 65.5t99 43.5q3 2 0 4q-53 2 -84 31t-31 72q0 18 8 44
q21 57 40 102q45 104 77 175q11 26 41 26h63q10 0 15.5 -8t1.5 -18q-95 -212 -120 -276q-8 -21 -8 -35q0 -31 30 -31q23 0 53 21q26 18 45 41t28.5 40.5t21.5 46.5l87 193q11 26 40 26h63q8 0 13.5 -5.5t5.5 -12.5q0 -2 -2 -8q-45 -101 -167 -372q0 -1 0.5 -2t1.5 0
q50 10 81 27q75 40 138 149q9 14 22 14q12 0 19.5 -8.5t7.5 -22.5t-10 -33q-38 -64 -69 -99.5t-77 -61.5q-48 -26 -148 -50q-5 0 -5 -3q-53 -120 -118 -161q-46 -28 -107 -28q-48 0 -75 21zM122 -64q1 1 0 2t-2 1q-52 -10 -74 -17t-40 -20q-25 -19 -25 -40q0 -13 9 -21
t25 -8q62 0 107 103z" />
    <glyph glyph-name="Amacron" unicode="&#x100;" horiz-adv-x="873" 
d="M601 872q0 5 2 7l6 11q15 25 51 25h381q10 0 17 -5t7 -12q0 -1 -2 -7l-7 -11q-15 -25 -50 -25h-382q-10 0 -16.5 5t-6.5 12zM508 -72q0 81 32 179q2 5 -3 7q-33 12 -130 58q-3 2 -5 0q-58 -88 -117.5 -132t-135.5 -44q-69 0 -109 43.5t-40 108.5q0 73 50.5 127.5
t135.5 54.5q80 0 169 -40q3 0 5 3l64 103q28 43 70 100q72 101 154 184q82 84 151 84q81 0 81 -95q0 -87 -69 -248q-24 -56 -83 -176l-46 -96q0 -4 1 -4q33 -5 49 -5q44 0 76 20q30 19 58 65q8 14 23 14q10 0 18 -8.5t8 -22.5q0 -13 -10 -32q-58 -103 -184 -103q-32 0 -65 6
q-2 1 -5 -2q-50 -130 -50 -189q0 -31 10 -43.5t32 -14.5q14 -1 22.5 -9t8.5 -18q0 -13 -13 -21.5t-36 -8.5q-117 0 -117 155zM572 188q72 170 191 388q40 73 40 104q0 17 -13 17q-32 0 -102 -83q-52 -64 -116 -163q-49 -77 -72 -116l-39 -66l-11 -20q-1 -4 0 -5
q77 -41 115 -59q5 -2 7 3zM308 213q2 2 -1 4q-77 30 -133 30q-53 0 -83.5 -26.5t-30.5 -64.5q0 -31 20.5 -52.5t53.5 -21.5q86 0 174 131z" />
    <glyph glyph-name="amacron" unicode="&#x101;" horiz-adv-x="552" 
d="M117 557q0 1 2 7q6 10 7 11q13 25 50 25h382q10 0 17 -5t7 -12q0 -1 -2 -7l-7 -11q-15 -25 -51 -25h-381q-10 0 -17 5t-7 12zM254 62q-7 11 -15 3q-65 -65 -139 -65q-91 0 -115 90q-6 22 -6 48q0 47 19 103q32 92 108 153t145 59q59 0 91 -32q6 -6 16 -20h2l10 23
q14 27 41 27h63q11 0 16 -8.5t1 -18.5q-100 -222 -129 -299q-2 -6 -2 -13q0 -13 10 -21t26 -8q18 0 33 9q58 31 117 134q8 14 22 14q10 0 18.5 -8.5t8.5 -22.5q0 -16 -10 -32q-53 -91 -102 -134t-115 -43q-39 0 -70 17t-44 45zM283 229q35 72 35 96q0 40 -45 40
q-33 0 -74 -26q-71 -50 -102 -133q-15 -40 -15 -72q0 -45 36 -45q33 0 86 41t79 99z" />
    <glyph glyph-name="Abreve" unicode="&#x102;" horiz-adv-x="874" 
d="M772 852q-32 35 -32 89q0 14 8.5 23t21.5 9t21.5 -9.5t8.5 -22.5q0 -31 15 -46q17 -17 50 -17q71 0 104 77q7 18 28 18q13 0 21.5 -9t8.5 -21q0 -6 -3 -12q-50 -113 -159 -113q-58 0 -93 34zM508 -72q0 81 32 179q2 5 -3 7q-33 12 -130 58q-3 2 -5 0q-58 -88 -117.5 -132
t-135.5 -44q-69 0 -109 43.5t-40 108.5q0 73 50.5 127.5t135.5 54.5q80 0 169 -40q3 0 5 3l64 103q28 43 70 100q72 101 154 184q82 84 151 84q81 0 81 -95q0 -87 -69 -248q-24 -56 -83 -176l-46 -96q0 -4 1 -4q33 -5 49 -5q44 0 76 20q30 19 58 65q8 14 23 14q10 0 18 -8.5
t8 -22.5q0 -13 -10 -32q-58 -103 -184 -103q-32 0 -65 6q-2 1 -5 -2q-50 -130 -50 -189q0 -31 10 -43.5t32 -14.5q14 -1 22.5 -9t8.5 -18q0 -13 -13 -21.5t-36 -8.5q-117 0 -117 155zM572 188q72 170 191 388q40 73 40 104q0 17 -13 17q-32 0 -102 -83q-52 -64 -116 -163
q-49 -77 -72 -116l-39 -66l-11 -20q-1 -4 0 -5q77 -41 115 -59q5 -2 7 3zM308 213q2 2 -1 4q-77 30 -133 30q-53 0 -83.5 -26.5t-30.5 -64.5q0 -31 20.5 -52.5t53.5 -21.5q86 0 174 131z" />
    <glyph glyph-name="abreve" unicode="&#x103;" horiz-adv-x="552" 
d="M253 537q-33 35 -33 89q0 13 9 22.5t22 9.5q12 0 20.5 -9.5t8.5 -22.5q0 -30 16 -46q17 -17 50 -17q69 0 104 77q7 18 27 18q14 0 22 -8.5t8 -21.5q0 -2 -2 -12q-51 -113 -159 -113q-59 0 -93 34zM254 62q-7 11 -15 3q-65 -65 -139 -65q-91 0 -115 90q-6 22 -6 48
q0 47 19 103q32 92 108 153t145 59q59 0 91 -32q6 -6 16 -20h2l10 23q14 27 41 27h63q11 0 16 -8.5t1 -18.5q-100 -222 -129 -299q-2 -6 -2 -13q0 -13 10 -21t26 -8q18 0 33 9q58 31 117 134q8 14 22 14q10 0 18.5 -8.5t8.5 -22.5q0 -16 -10 -32q-53 -91 -102 -134t-115 -43
q-39 0 -70 17t-44 45zM283 229q35 72 35 96q0 40 -45 40q-33 0 -74 -26q-71 -50 -102 -133q-15 -40 -15 -72q0 -45 36 -45q33 0 86 41t79 99z" />
    <glyph glyph-name="Aogonek" unicode="&#x104;" horiz-adv-x="872" 
d="M612 -375q-26 11 -42 33.5t-16 50.5q0 37 27 71q-73 27 -73 148q0 81 32 179q2 5 -3 7q-33 12 -130 58q-3 2 -5 0q-58 -88 -117.5 -132t-135.5 -44q-69 0 -109 43.5t-40 108.5q0 73 50.5 127.5t135.5 54.5q80 0 169 -40q3 0 5 3l64 103q28 43 70 100q72 101 154 184
q82 84 151 84q81 0 81 -95q0 -87 -69 -248q-24 -56 -83 -176l-46 -96q0 -4 1 -4q33 -5 49 -5q44 0 76 20q30 19 58 65q8 14 23 14q10 0 18 -8.5t8 -22.5q0 -13 -10 -32q-58 -103 -184 -103q-32 0 -65 6q-2 1 -5 -2q-50 -130 -50 -189q0 -31 10 -43.5t32 -14.5q14 -1 22.5 -9
t8.5 -18q0 -7 -4 -13t-14 -14.5t-11 -9.5q-31 -31 -31 -56q0 -22 21 -30q7 -3 17 -3q23 0 49 19q7 6 18 6q15 0 24 -12q6 -9 6 -18q0 -14 -12 -24q-40 -31 -85 -31q-18 0 -40 8zM572 188q72 170 191 388q40 73 40 104q0 17 -13 17q-32 0 -102 -83q-52 -64 -116 -163
q-49 -77 -72 -116l-39 -66l-11 -20q-1 -4 0 -5q77 -41 115 -59q5 -2 7 3zM308 213q2 2 -1 4q-77 30 -133 30q-53 0 -83.5 -26.5t-30.5 -64.5q0 -31 20.5 -52.5t53.5 -21.5q86 0 174 131z" />
    <glyph glyph-name="aogonek" unicode="&#x105;" horiz-adv-x="552" 
d="M203 -204q-27 11 -43 34t-16 51q0 75 133 147q3 3 0 4q-11 10 -23 30q-7 11 -15 3q-65 -65 -139 -65q-91 0 -115 90q-6 22 -6 48q0 47 19 103q32 92 108 153t145 59q59 0 91 -32l14 -17q2 -4 5 -1l9 21q14 27 41 27h63q11 0 16 -8.5t1 -18.5q-100 -222 -129 -299
q-2 -6 -2 -13q0 -13 10 -21t26 -8q18 0 33 9q58 31 117 134q8 14 22 14q10 0 18.5 -8.5t8.5 -22.5q0 -16 -10 -32q-53 -91 -102 -134t-115 -43q-21 0 -34 4q-6 0 -7 -1q-122 -72 -122 -122q0 -21 20 -30q9 -3 18 -3q26 0 48 19q9 6 18 6q14 0 24 -13q6 -8 6 -17
q0 -16 -12 -25q-41 -30 -84 -30q-22 0 -40 8zM283 229q35 72 35 96q0 40 -45 40q-33 0 -74 -26q-71 -50 -102 -133q-15 -40 -15 -72q0 -45 36 -45q33 0 86 41t79 99z" />
    <glyph glyph-name="Cacute" unicode="&#x106;" horiz-adv-x="704" 
d="M569 826q-8 11 -8 22q0 13 8 21l98 98q8 8 21 8t21 -8q9 -9 9 -22q0 -12 -9 -21l-97 -98q-11 -8 -21 -8q-11 0 -22 8zM120 249q0 91 40 193q-79 25 -119.5 70.5t-40.5 99.5q0 43 24.5 78.5t63.5 49.5q12 4 18 4q25 0 25 -22q0 -17 -17 -28q-53 -35 -53 -77
q0 -34 35.5 -63t95.5 -44q70 127 179 194t213 67q107 0 144 -59q15 -26 15 -55q3 -87 -118.5 -165.5t-284.5 -75.5q-43 0 -71 4q-28 -75 -28 -145q0 -90 46.5 -144.5t126.5 -54.5q79 0 161 41q81 40 124 109q8 14 22 14q12 0 19.5 -8t7.5 -22q0 -16 -11 -33
q-58 -98 -156 -154q-97 -55 -198 -55q-118 0 -190.5 77t-72.5 204zM667 667q0 12 -8 22q-16 22 -58 22q-68 0 -153.5 -57t-142.5 -157q67 -2 135.5 14.5t117.5 42.5t80 57t29 56z" />
    <glyph glyph-name="cacute" unicode="&#x107;" horiz-adv-x="434" 
d="M266 515q-9 9 -9 21q0 10 8 21l98 98q9 9 21 9t21 -9t9 -21q0 -14 -9 -21l-97 -98q-9 -9 -21 -9q-13 0 -21 9zM-14 164q0 66 37 131q39 70 102 116q65 48 133 48q50 0 84 -29.5t34 -71.5q0 -47 -38 -80q-19 -16 -39 -16t-34.5 14.5t-14.5 33.5q0 28 30 42q13 7 13 12
q0 8 -21 8q-16 0 -31 -4q-49 -15 -88 -57t-54 -100q-4 -15 -4 -35q0 -44 28.5 -71t78.5 -27q35 0 74 13q90 27 152 134q8 14 22 14q10 0 18.5 -8.5t8.5 -22.5q0 -15 -11 -32q-105 -180 -295 -180q-88 0 -136.5 46.5t-48.5 121.5z" />
    <glyph glyph-name="Ccircumflex" unicode="&#x108;" horiz-adv-x="704" 
d="M459 831q-5 7 -5 17q0 16 12 25l153 110q7 5 18 5q17 0 25 -14l68 -108q5 -8 5 -16q0 -18 -15 -25q-8 -5 -15 -5q-17 0 -26 14l-49 78q-1 2 -5 1l-124 -89q-7 -6 -17 -6q-16 0 -25 13zM120 249q0 91 40 193q-79 25 -119.5 70.5t-40.5 99.5q0 43 24.5 78.5t63.5 49.5
q12 4 18 4q25 0 25 -22q0 -17 -17 -28q-53 -35 -53 -77q0 -34 35.5 -63t95.5 -44q70 127 179 194t213 67q107 0 144 -59q15 -26 15 -55q3 -87 -118.5 -165.5t-284.5 -75.5q-43 0 -71 4q-28 -75 -28 -145q0 -90 46.5 -144.5t126.5 -54.5q79 0 161 41q81 40 124 109
q8 14 22 14q12 0 19.5 -8t7.5 -22q0 -16 -11 -33q-58 -98 -156 -154q-97 -55 -198 -55q-118 0 -190.5 77t-72.5 204zM667 667q0 12 -8 22q-16 22 -58 22q-68 0 -153.5 -57t-142.5 -157q67 -2 135.5 14.5t117.5 42.5t80 57t29 56z" />
    <glyph glyph-name="ccircumflex" unicode="&#x109;" horiz-adv-x="434" 
d="M128 515q-5 7 -5 17q0 16 12 25l153 110q8 6 18 6q16 0 25 -14l68 -109q5 -8 5 -16q0 -16 -14 -25q-8 -5 -16 -5q-17 0 -26 14l-49 79q-2 3 -5 0l-124 -89q-8 -6 -17 -6q-15 0 -25 13zM-14 164q0 66 37 131q39 70 102 116q65 48 133 48q50 0 84 -29.5t34 -71.5
q0 -47 -38 -80q-19 -16 -39 -16t-34.5 14.5t-14.5 33.5q0 28 30 42q13 7 13 12q0 8 -21 8q-16 0 -31 -4q-49 -15 -88 -57t-54 -100q-4 -15 -4 -35q0 -44 28.5 -71t78.5 -27q35 0 74 13q90 27 152 134q8 14 22 14q10 0 18.5 -8.5t8.5 -22.5t-11 -33q-106 -179 -295 -179
q-88 0 -136.5 46.5t-48.5 121.5z" />
    <glyph glyph-name="Cdotaccent" unicode="&#x10a;" horiz-adv-x="704" 
d="M554 902q0 20 14 34t34 14t34.5 -14t14.5 -34t-14.5 -34t-34.5 -14t-34 14t-14 34zM120 249q0 91 40 193q-79 25 -119.5 70.5t-40.5 99.5q0 43 24.5 78.5t63.5 49.5q12 4 18 4q25 0 25 -22q0 -17 -17 -28q-53 -35 -53 -77q0 -34 35.5 -63t95.5 -44q70 127 179 194t213 67
q107 0 144 -59q15 -26 15 -55q3 -87 -118.5 -165.5t-284.5 -75.5q-43 0 -71 4q-28 -75 -28 -145q0 -90 46.5 -144.5t126.5 -54.5q79 0 161 41q81 40 124 109q8 14 22 14q12 0 19.5 -8t7.5 -22q0 -16 -11 -33q-58 -98 -156 -154q-97 -55 -198 -55q-118 0 -190.5 77t-72.5 204
zM667 667q0 12 -8 22q-16 22 -58 22q-68 0 -153.5 -57t-142.5 -157q67 -2 135.5 14.5t117.5 42.5t80 57t29 56z" />
    <glyph glyph-name="cdotaccent" unicode="&#x10b;" horiz-adv-x="434" 
d="M240 586q0 20 14 34t34 14t34 -14t14 -34t-14 -34t-34 -14t-34 14t-14 34zM-14 164q0 66 37 131q39 70 102 116q65 48 133 48q50 0 84 -29.5t34 -71.5q0 -47 -38 -80q-19 -16 -39 -16t-34.5 14.5t-14.5 33.5q0 28 30 42q13 7 13 12q0 8 -21 8q-16 0 -31 -4
q-49 -15 -88 -57t-54 -100q-4 -15 -4 -35q0 -44 28.5 -71t78.5 -27q35 0 74 13q90 27 152 134q8 14 22 14q10 0 18.5 -8.5t8.5 -22.5t-11 -33q-106 -179 -295 -179q-88 0 -136.5 46.5t-48.5 121.5z" />
    <glyph glyph-name="Ccaron" unicode="&#x10c;" horiz-adv-x="705" 
d="M540 832l-68 108q-4 7 -4 16q0 17 14 25q8 5 16 5q16 0 25 -14l49 -78q1 -2 5 -1l124 89q9 6 18 6q15 0 24 -13q6 -7 6 -17q0 -16 -13 -24l-153 -111q-8 -5 -17 -5q-17 0 -26 14zM120 249q0 91 40 193q-79 25 -119.5 70.5t-40.5 99.5q0 43 24.5 78.5t63.5 49.5q12 4 18 4
q25 0 25 -22q0 -17 -17 -28q-53 -35 -53 -77q0 -34 35.5 -63t95.5 -44q70 127 179 194t213 67q107 0 144 -59q15 -26 15 -55q3 -87 -118.5 -165.5t-284.5 -75.5q-43 0 -71 4q-28 -75 -28 -145q0 -90 46.5 -144.5t126.5 -54.5q79 0 161 41q81 40 124 109q8 14 22 14
q12 0 19.5 -8t7.5 -22q0 -16 -11 -33q-58 -98 -156 -154q-97 -55 -198 -55q-118 0 -190.5 77t-72.5 204zM667 667q0 12 -8 22q-16 22 -58 22q-68 0 -153.5 -57t-142.5 -157q67 -2 135.5 14.5t117.5 42.5t80 57t29 56z" />
    <glyph glyph-name="ccaron" unicode="&#x10d;" horiz-adv-x="434" 
d="M226 520l-68 108q-4 7 -4 16q0 17 14 26q7 4 16 4q17 0 25 -14l49 -78q3 -3 5 -1l124 90q12 5 18 5q15 0 24 -12q6 -9 6 -18q0 -15 -13 -24l-153 -110q-7 -6 -17 -6q-17 0 -26 14zM-14 164q0 66 37 131q39 70 102 116q65 48 133 48q50 0 84 -29.5t34 -71.5q0 -47 -38 -80
q-19 -16 -39 -16t-34.5 14.5t-14.5 33.5q0 28 30 42q13 7 13 12q0 8 -21 8q-16 0 -31 -4q-49 -15 -88 -57t-54 -100q-4 -15 -4 -35q0 -44 28.5 -71t78.5 -27q35 0 74 13q90 27 152 134q8 14 22 14q10 0 18.5 -8.5t8.5 -22.5q0 -15 -11 -32q-105 -180 -295 -180
q-88 0 -136.5 46.5t-48.5 121.5z" />
    <glyph glyph-name="Dcaron" unicode="&#x10e;" horiz-adv-x="965" 
d="M695 832l-68 108q-5 8 -5 16q0 17 14 25q8 5 16 5q17 0 26 -14l49 -78q1 -2 5 -1l124 89q8 6 17 6q16 0 25 -13q5 -7 5 -17q0 -16 -12 -24l-153 -111q-8 -5 -18 -5q-17 0 -25 14zM301 65q-3 1 -7 0q-83 -69 -164 -69q-57 0 -93.5 33t-36.5 88q0 49 31.5 79.5t85.5 30.5
q58 0 141 -40q4 0 5 1q21 32 47 79q33 62 62 122q37 76 66 130q64 118 127 154q13 7 21 7q13 0 13 -14q0 -10 -6 -24q-33 -70 -54 -122q-15 -37 -37 -101q-20 -58 -31 -84q-15 -37 -42 -90q-36 -67 -67 -108q-2 -2 0 -4q103 -57 169 -57q74 0 137 60t99 153q37 92 37 185
q0 110 -55 170t-142 60q-71 0 -144.5 -41.5t-132.5 -115.5q-11 -14 -24 -14q-9 0 -15.5 7t-6.5 18t5 21q44 87 138 140t196 53q126 0 209 -83t83 -241q0 -113 -47 -227q-46 -110 -133 -183q-86 -71 -194 -71q-59 0 -115 24.5t-125 73.5zM212 125q1 4 0 5q-56 38 -97 38
q-26 0 -40.5 -14.5t-14.5 -33.5t15 -31t39 -12q48 0 98 48z" />
    <glyph glyph-name="dcaron" unicode="&#x10f;" horiz-adv-x="553" 
d="M-15 90q-6 22 -6 48q0 46 20 103q32 93 107.5 153.5t144.5 58.5q64 0 99 -41q7 -7 8 -10q1 -1 3 -1q3 9 9.5 23.5t8.5 18.5q14 31 119 268q11 23 40 23h64q10 0 15.5 -8.5t1.5 -17.5q-91 -200 -109 -243l-96 -214q-30 -67 -52 -126q0 -3 -0.5 -6t-1 -4.5t-0.5 -2.5
q0 -13 10 -21t26 -8q20 0 33 9q55 28 117 134q8 14 22 14q12 0 19.5 -8.5t7.5 -22.5q0 -16 -10 -32q-52 -91 -101 -134t-115 -43q-39 0 -70 17t-44 45q-7 11 -15 3q-65 -65 -139 -65q-92 0 -116 90zM647 580q0 12 14 21q35 23 45 38q3 3 3 7q0 3 -5 8q-16 13 -16 35
q0 19 13 32t33 13t33 -13.5t13 -37.5q0 -37 -34.5 -72.5t-66.5 -46.5q-7 -3 -12 -3q-20 0 -20 19zM283 229l19 39q17 36 17 58q0 18 -12 28.5t-33 10.5q-34 0 -75 -26q-71 -49 -102 -132q-15 -43 -15 -72q0 -45 36 -45q33 0 85.5 41t79.5 98z" />
    <glyph glyph-name="Dcroat" unicode="&#x110;" horiz-adv-x="965" 
d="M301 65q-3 1 -7 0q-83 -69 -164 -69q-57 0 -93.5 33t-36.5 88q0 49 31.5 79.5t85.5 30.5q55 0 141 -39q2 -2 5 0q21 32 47 79q1 2 38 72q0 3 -3 3l-107 5q-10 0 -16.5 7t-6.5 16q0 10 6.5 17t16.5 7l136 6q4 0 5 3q56 120 97.5 182.5t88.5 87.5q13 7 21 7q13 0 13 -14
q0 -10 -6 -24q-33 -69 -56 -127q-19 -46 -39 -107q0 -1 3 -2l91 3q17 1 29 -10.5t12 -28.5q0 -16 -12 -27.5t-29 -10.5l-117 5q-3 0 -5 -3q-16 -40 -41 -89q-36 -67 -67 -108q-2 -2 0 -4q103 -57 169 -57q74 0 137 60t99 153q37 92 37 185q0 110 -55 170t-142 60
q-71 0 -144.5 -41.5t-132.5 -115.5q-11 -14 -24 -14q-9 0 -15.5 7t-6.5 18q0 10 5 22q44 86 138.5 139t195.5 53q126 0 209 -83t83 -241q0 -113 -47 -227q-46 -110 -133 -183q-86 -71 -194 -71q-59 0 -115 24.5t-125 73.5zM212 126q3 3 0 4q-56 38 -97 38q-26 0 -40.5 -14.5
t-14.5 -33.5t15 -31t39 -12q49 0 98 49z" />
    <glyph glyph-name="dslash" unicode="&#x111;" horiz-adv-x="553" 
d="M-15 90q-6 22 -6 48q0 46 20 103q32 93 107.5 153.5t144.5 58.5h14q58 -5 93 -51q1 -1 3 -1l76 172q1 3 -2 3l-49 2q-8 0 -14 6.5t-6 15.5q0 20 20 22l71 4q3 0 5 2l36 83q11 23 40 23h64q10 0 15.5 -8.5t1.5 -17.5l-33 -72q0 -4 3 -3l60 3q18 1 29 -8t11 -24t-11 -24.5
t-29 -8.5l-87 2q-4 0 -5 -4l-47 -104l-96 -213q-36 -85 -52 -127q0 -3 -0.5 -6t-1 -4.5t-0.5 -2.5q0 -13 10 -21t26 -8q20 0 33 9q55 28 117 134q8 14 22 14q12 0 19.5 -8.5t7.5 -22.5q0 -16 -10 -32q-52 -91 -101 -134t-115 -43q-39 0 -70 17t-44 45q-7 11 -15 3
q-65 -65 -139 -65q-92 0 -116 90zM283 229l19 39q17 36 17 58q0 18 -12 28.5t-33 10.5q-34 0 -75 -26q-71 -49 -102 -132q-15 -43 -15 -72q0 -45 36 -45q33 0 85.5 41t79.5 98z" />
    <glyph glyph-name="Emacron" unicode="&#x112;" horiz-adv-x="636" 
d="M311 872q0 1 2 7l7 11q15 25 50 25h382q10 0 17 -5t7 -12q0 -1 -2 -7l-7 -11q-15 -25 -51 -25h-381q-10 0 -17 5t-7 12zM0 51q0 92 49 172t142 124q3 3 3 4q-2 24 -2 27q0 33 7 58q0 4 -2 4q-88 29 -131 81q-33 42 -33 91q0 43 24 78.5t63 49.5q12 4 19 4q25 0 25 -22
q0 -17 -17 -28q-53 -35 -53 -77q0 -33 35 -62t93 -44q3 -2 5 3q70 125 178 191t212 66q107 0 144 -59q15 -26 15 -54q3 -88 -118.5 -166.5t-291.5 -75.5q-6 0 -56 2q-4 0 -4 -2q-9 -31 -10 -39q0 -3 3 -3q73 3 113.5 -25t40.5 -71q0 -19 -9 -37q-24 -49 -87 -49
q-37 0 -74.5 19.5t-58.5 51.5q-2 2 -5 1q-46 -39 -71.5 -95.5t-25.5 -115.5q0 -83 50 -138t141 -55q80 0 141.5 43t61.5 108q0 29 -17.5 47.5t-42.5 18.5q-37 0 -55 -37q-11 -20 -29 -20q-10 0 -17.5 7t-7.5 19q0 5 2 11q11 38 40 59.5t67 21.5q49 0 85.5 -36t36.5 -96
q1 -89 -79 -162t-214 -71q-133 0 -209 80.5t-76 197.5zM700 667q0 11 -8 22q-16 22 -59 22q-67 0 -151 -57t-143 -155q0 -2 2 -2q87 -2 174 27t137.5 69.5t47.5 73.5zM393 278q0 15 -16 25t-42 10q-18 0 -36 -5q-3 0 -3 -4q7 -23 25.5 -37t39.5 -14q32 0 32 25z" />
    <glyph glyph-name="emacron" unicode="&#x113;" horiz-adv-x="433" 
d="M68 557q0 5 2 7l6 11q15 25 51 25h290q10 0 17 -5t7 -12q0 -1 -2 -7l-7 -11q-15 -25 -51 -25h-290q-10 0 -16.5 5t-6.5 12zM-15 165q0 66 37 130q39 70 102 116q64 48 133 48q53 0 85.5 -29.5t32.5 -73.5q0 -45 -37 -85q-72 -76 -240 -87q-4 0 -4 -3q-2 -46 27 -74.5
t81 -28.5q35 0 73 13q89 27 152 134q8 14 22 14q12 0 19.5 -8.5t7.5 -22.5q0 -16 -10 -32q-108 -180 -297 -180q-86 0 -135 46.5t-49 122.5zM270 303q28 26 28 48t-27 22q-6 0 -31 -5q-40 -12 -75 -43.5t-53 -75.5q-1 -1 0 -2t2 0q112 17 156 56z" />
    <glyph glyph-name="Ebreve" unicode="&#x114;" horiz-adv-x="636" 
d="M521 852q-32 35 -32 89q0 14 8.5 23t21.5 9t21.5 -9.5t8.5 -22.5q0 -31 15 -46q17 -17 50 -17q69 0 104 77q8 18 28 18q13 0 21.5 -9t8.5 -21q0 -6 -3 -12q-50 -113 -159 -113q-58 0 -93 34zM0 51q0 92 49 172t142 124q3 3 3 4q-2 24 -2 27q0 33 7 58q0 4 -2 4
q-88 29 -131 81q-33 42 -33 91q0 43 24 78.5t63 49.5q12 4 19 4q25 0 25 -22q0 -17 -17 -28q-53 -35 -53 -77q0 -33 35 -62t93 -44q3 -2 5 3q70 125 178 191t212 66q107 0 144 -59q15 -26 15 -54q3 -88 -118.5 -166.5t-291.5 -75.5q-6 0 -56 2q-4 0 -4 -2q-9 -31 -10 -39
q0 -3 3 -3q73 3 113.5 -25t40.5 -71q0 -19 -9 -37q-24 -49 -87 -49q-37 0 -74.5 19.5t-58.5 51.5q-2 2 -5 1q-46 -39 -71.5 -95.5t-25.5 -115.5q0 -83 50 -138t141 -55q80 0 141.5 43t61.5 108q0 29 -17.5 47.5t-42.5 18.5q-37 0 -55 -37q-11 -20 -29 -20q-10 0 -17.5 7
t-7.5 19q0 5 2 11q11 38 40 59.5t67 21.5q49 0 85.5 -36t36.5 -96q1 -89 -79 -162t-214 -71q-133 0 -209 80.5t-76 197.5zM700 667q0 11 -8 22q-16 22 -59 22q-67 0 -151 -57t-143 -155q0 -2 2 -2q87 -2 174 27t137.5 69.5t47.5 73.5zM393 278q0 15 -16 25t-42 10
q-18 0 -36 -5q-3 0 -3 -4q7 -23 25.5 -37t39.5 -14q32 0 32 25z" />
    <glyph glyph-name="ebreve" unicode="&#x115;" horiz-adv-x="433" 
d="M184 537q-33 35 -33 89q0 13 9 22.5t22 9.5q12 0 20.5 -9.5t8.5 -22.5q0 -30 16 -46q17 -17 50 -17q69 0 104 77q7 18 27 18q14 0 22 -8.5t8 -21.5q0 -2 -2 -12q-51 -113 -159 -113q-59 0 -93 34zM-15 165q0 66 37 130q39 70 102 116q64 48 133 48q53 0 85.5 -29.5
t32.5 -73.5q0 -45 -37 -85q-72 -76 -240 -87q-4 0 -4 -3q-2 -46 27 -74.5t81 -28.5q35 0 73 13q89 27 152 134q8 14 22 14q12 0 19.5 -8.5t7.5 -22.5q0 -16 -10 -32q-108 -180 -297 -180q-86 0 -135 46.5t-49 122.5zM270 303q28 26 28 48t-27 22q-6 0 -31 -5
q-40 -12 -75 -43.5t-53 -75.5q-1 -1 0 -2t2 0q112 17 156 56z" />
    <glyph glyph-name="Edotaccent" unicode="&#x116;" horiz-adv-x="636" 
d="M594 902q0 20 14 34t34 14t34.5 -14t14.5 -34t-14.5 -34t-34.5 -14t-34 14t-14 34zM0 51q0 92 49 172t142 124q3 3 3 4q-2 24 -2 27q0 33 7 58q0 4 -2 4q-88 29 -131 81q-33 42 -33 91q0 43 24 78.5t63 49.5q12 4 19 4q25 0 25 -22q0 -17 -17 -28q-53 -35 -53 -77
q0 -33 35 -62t93 -44q3 -2 5 3q70 125 178 191t212 66q107 0 144 -59q15 -26 15 -54q3 -88 -118.5 -166.5t-291.5 -75.5q-6 0 -56 2q-4 0 -4 -2q-9 -31 -10 -39q0 -3 3 -3q73 3 113.5 -25t40.5 -71q0 -19 -9 -37q-24 -49 -87 -49q-37 0 -74.5 19.5t-58.5 51.5q-2 2 -5 1
q-46 -39 -71.5 -95.5t-25.5 -115.5q0 -83 50 -138t141 -55q80 0 141.5 43t61.5 108q0 29 -17.5 47.5t-42.5 18.5q-37 0 -55 -37q-11 -20 -29 -20q-10 0 -17.5 7t-7.5 19q0 5 2 11q11 38 40 59.5t67 21.5q49 0 85.5 -36t36.5 -96q1 -89 -79 -162t-214 -71q-133 0 -209 80.5
t-76 197.5zM700 667q0 11 -8 22q-16 22 -59 22q-67 0 -151 -57t-143 -155q0 -2 2 -2q87 -2 174 27t137.5 69.5t47.5 73.5zM393 278q0 15 -16 25t-42 10q-18 0 -36 -5q-3 0 -3 -4q7 -23 25.5 -37t39.5 -14q32 0 32 25z" />
    <glyph glyph-name="edotaccent" unicode="&#x117;" horiz-adv-x="433" 
d="M222 586q0 20 14 34t34 14t34.5 -14t14.5 -34t-14.5 -34t-34.5 -14t-34 14t-14 34zM-15 165q0 66 37 130q39 70 102 116q64 48 133 48q53 0 85.5 -29.5t32.5 -73.5q0 -45 -37 -85q-72 -76 -240 -87q-4 0 -4 -3q-2 -46 27 -74.5t81 -28.5q35 0 73 13q89 27 152 134
q8 14 22 14q12 0 19.5 -8.5t7.5 -22.5q0 -16 -10 -32q-108 -180 -297 -180q-86 0 -135 46.5t-49 122.5zM270 303q28 26 28 48t-27 22q-6 0 -31 -5q-40 -12 -75 -43.5t-53 -75.5q-1 -1 0 -2t2 0q112 17 156 56z" />
    <glyph glyph-name="Eogonek" unicode="&#x118;" horiz-adv-x="636" 
d="M97 -411q-27 10 -42.5 33t-15.5 52q0 68 100 129q1 1 1 2t-1 1q-66 36 -102.5 101.5t-36.5 143.5q0 92 49 172t142 124q3 3 3 4q-2 24 -2 27q0 33 7 58q0 4 -2 4q-88 29 -131 81q-33 42 -33 91q0 43 24 78.5t63 49.5q12 4 19 4q25 0 25 -22q0 -17 -17 -28
q-53 -35 -53 -77q0 -33 35 -62t93 -44q3 -2 5 3q70 125 178 191t212 66q107 0 144 -59q15 -26 15 -54q3 -88 -118.5 -166.5t-291.5 -75.5q-6 0 -56 2q-4 0 -4 -2q-9 -31 -10 -39q0 -3 3 -3q73 3 113.5 -25t40.5 -71q0 -19 -9 -37q-24 -49 -87 -49q-37 0 -74.5 19.5
t-58.5 51.5q-2 2 -5 1q-46 -39 -71.5 -95.5t-25.5 -115.5q0 -83 50 -138t141 -55q80 0 141.5 43t61.5 108q0 29 -17.5 47.5t-42.5 18.5q-37 0 -55 -37q-11 -20 -29 -20q-10 0 -17.5 7t-7.5 19q0 5 2 11q11 38 40 59.5t67 21.5q49 0 85.5 -36t36.5 -96q1 -89 -79 -162
t-214 -71q-45 0 -81 9q-6 0 -7 -1q-98 -62 -98 -107q0 -20 21 -30q8 -3 17 -3q24 0 49 19q8 6 18 6q14 0 24 -13q6 -7 6 -17q0 -14 -12 -25q-42 -30 -85 -30q-22 0 -40 8zM700 667q0 11 -8 22q-16 22 -59 22q-67 0 -151 -57t-143 -155q0 -2 2 -2q87 -2 174 27t137.5 69.5
t47.5 73.5zM335 313q-17 0 -37 -5q-2 0 -2 -4q7 -23 25.5 -37t39.5 -14q32 0 32 25q0 15 -16 25t-42 10z" />
    <glyph glyph-name="eogonek" unicode="&#x119;" horiz-adv-x="433" 
d="M136 -204q-27 10 -42.5 33t-15.5 52q0 59 77 113q1 1 0.5 2t-1.5 1q-79 4 -124 50.5t-45 117.5q0 66 37 130q39 70 102 116q64 48 133 48q53 0 85.5 -29.5t32.5 -73.5q0 -45 -37 -85q-72 -76 -240 -87q-4 0 -4 -3q-2 -46 27 -74.5t81 -28.5q35 0 73 13q89 27 152 134
q8 14 22 14q12 0 19.5 -8.5t7.5 -22.5q0 -16 -10 -32q-70 -121 -182 -160q-57 -30 -103 -68q-43 -36 -43 -67q0 -19 21 -30q8 -3 17 -3q24 0 49 19q7 6 18 6q14 0 24 -13q6 -8 6 -17q0 -15 -13 -25q-40 -30 -84 -30q-22 0 -40 8zM270 303q28 26 28 48t-27 22q-6 0 -31 -5
q-40 -12 -75 -43.5t-53 -75.5q-1 -1 0 -2t2 0q112 17 156 56z" />
    <glyph glyph-name="Ecaron" unicode="&#x11a;" horiz-adv-x="636" 
d="M567 832l-68 108q-4 7 -4 16q0 17 14 25q8 5 16 5q16 0 25 -14l49 -78q1 -2 5 -1l124 89q8 6 18 6q15 0 24 -13q6 -7 6 -17q0 -16 -13 -24l-153 -111q-8 -5 -17 -5q-18 0 -26 14zM0 51q0 92 49 172t142 124q3 3 3 4q-2 24 -2 27q0 33 7 58q0 4 -2 4q-88 29 -131 81
q-33 42 -33 91q0 43 24 78.5t63 49.5q12 4 19 4q25 0 25 -22q0 -17 -17 -28q-53 -35 -53 -77q0 -33 35 -62t93 -44q3 -2 5 3q70 125 178 191t212 66q107 0 144 -59q15 -26 15 -54q3 -88 -118.5 -166.5t-291.5 -75.5q-6 0 -56 2q-4 0 -4 -2q-9 -31 -10 -39q0 -3 3 -3
q73 3 113.5 -25t40.5 -71q0 -19 -9 -37q-24 -49 -87 -49q-37 0 -74.5 19.5t-58.5 51.5q-2 2 -5 1q-46 -39 -71.5 -95.5t-25.5 -115.5q0 -83 50 -138t141 -55q80 0 141.5 43t61.5 108q0 29 -17.5 47.5t-42.5 18.5q-37 0 -55 -37q-11 -20 -29 -20q-10 0 -17.5 7t-7.5 19
q0 5 2 11q11 38 40 59.5t67 21.5q49 0 85.5 -36t36.5 -96q1 -89 -79 -162t-214 -71q-133 0 -209 80.5t-76 197.5zM700 667q0 11 -8 22q-16 22 -59 22q-67 0 -151 -57t-143 -155q0 -2 2 -2q87 -2 174 27t137.5 69.5t47.5 73.5zM393 278q0 15 -16 25t-42 10q-18 0 -36 -5
q-3 0 -3 -4q7 -23 25.5 -37t39.5 -14q32 0 32 25z" />
    <glyph glyph-name="ecaron" unicode="&#x11b;" horiz-adv-x="433" 
d="M229 516l-67 109q-5 7 -5 16q0 16 14 25q8 5 16 5q17 0 25 -14l49 -78q1 -5 5 -1l124 89q9 6 18 6q14 0 24 -13q6 -8 6 -17q0 -16 -13 -25l-153 -110q-8 -6 -17 -6q-15 0 -26 14zM-15 165q0 66 37 130q39 70 102 116q64 48 133 48q53 0 85.5 -29.5t32.5 -73.5
q0 -45 -37 -85q-72 -76 -240 -87q-4 0 -4 -3q-2 -46 27 -74.5t81 -28.5q35 0 73 13q89 27 152 134q8 14 22 14q12 0 19.5 -8.5t7.5 -22.5q0 -16 -10 -32q-108 -180 -297 -180q-86 0 -135 46.5t-49 122.5zM270 303q28 26 28 48t-27 22q-6 0 -31 -5q-40 -12 -75 -43.5
t-53 -75.5q-1 -1 0 -2t2 0q112 17 156 56z" />
    <glyph glyph-name="Gcircumflex" unicode="&#x11c;" horiz-adv-x="843" 
d="M431 830q-6 8 -6 17q0 16 13 25l153 110q7 6 17 6q15 0 26 -14l68 -109q4 -7 4 -16q0 -16 -14 -25q-8 -5 -16 -5q-17 0 -25 14l-49 79q-3 3 -5 1l-124 -90q-9 -6 -18 -6q-14 0 -24 13zM245 -140q0 67 60 100t145 54l27 7q5 1 8 5l25 57q1 2 -0.5 3t-3.5 0
q-82 -57 -171 -57q-100 0 -156 65q-55 65 -55 172q0 84 35 171q0 5 -1 5q-82 28 -124 79q-34 40 -34 91q0 43 24.5 78.5t63.5 49.5q12 4 18 4q25 0 25 -22q0 -17 -17 -28q-53 -35 -53 -77q0 -33 35 -62t93 -44q3 -2 5 3q70 125 178.5 191t211.5 66q107 0 144 -59
q15 -26 15 -54q3 -88 -118 -166.5t-292 -75.5q-31 0 -63 3q-5 0 -6 -4q-27 -71 -27 -136q0 -72 29.5 -116.5t82.5 -44.5q66 0 133.5 46.5t116.5 126.5q25 41 57 116l14 32q11 26 40 26h63q19 0 19 -19l-2 -8l-173 -386q-1 -1 -0.5 -2t1.5 -1q54 14 81 28q74 38 138 149
q9 13 22 13q12 0 19.5 -8.5t7.5 -22.5q0 -16 -10 -32q-38 -64 -69 -99.5t-77 -61.5q-55 -30 -148 -50q-1 -1 -5 -4q-43 -97 -91 -141q-56 -48 -132 -48q-49 0 -79 23t-30 65zM667 667q0 12 -8 22q-16 22 -58 22q-68 0 -152.5 -57t-141.5 -155q-2 -2 1 -2q87 -2 174 27
t137.5 69.5t47.5 73.5zM447 -64q0 1 -1 2t-2 0q-54 -10 -80 -18.5t-43 -25.5q-16 -16 -16 -33q0 -12 9.5 -20t24.5 -8q60 0 108 103z" />
    <glyph glyph-name="gcircumflex" unicode="&#x11d;" horiz-adv-x="551" 
d="M206 515q-6 7 -6 17q0 15 13 25l153 110q8 6 17 6q15 0 26 -14l68 -109q4 -7 4 -16q0 -16 -14 -25q-8 -5 -16 -5q-16 0 -25 14l-49 79q-2 3 -5 0l-124 -89q-9 -6 -18 -6q-14 0 -24 13zM-48 -140q0 94 156 137q3 1 1 2q-1 1 -2 1q-97 -5 -122 90q-5 22 -5 48q0 47 19 103
q32 93 107.5 153.5t144.5 58.5h14q60 -5 93 -51q1 -1 4 3l9 20q11 26 40 26h63q19 0 19 -19q0 -2 -2 -8q-86 -194 -167 -372q0 -1 0.5 -2t1.5 0q52 12 80 28q73 34 139 148q8 14 22 14q12 0 19.5 -8.5t7.5 -22.5q0 -16 -10 -32q-37 -64 -68.5 -100t-77.5 -62
q-48 -26 -148 -50q-5 0 -6 -4q-42 -95 -92.5 -141.5t-127.5 -46.5q-52 0 -82 24.5t-30 62.5zM278 218l17 38q4 10 20 46q4 9 4 22q0 41 -46 41q-37 0 -77 -27q-70 -48 -105 -134q-15 -41 -15 -71q0 -52 47 -52q84 0 155 137zM154 -64q2 3 -2 3q-12 -3 -30 -6l-23 -5
q-45 -11 -67 -30q-19 -18 -19 -36q0 -12 9.5 -20.5t24.5 -8.5q62 0 107 103z" />
    <glyph glyph-name="Gbreve" unicode="&#x11e;" horiz-adv-x="843" 
d="M456 852q-32 35 -32 89q0 14 8.5 23t21.5 9t21.5 -9.5t8.5 -22.5q0 -31 15 -46q17 -17 50 -17q71 0 104 77q7 18 28 18q13 0 21.5 -9t8.5 -21q0 -6 -3 -12q-50 -113 -159 -113q-58 0 -93 34zM245 -140q0 67 60 100t145 54l27 7q5 1 8 5l25 57q1 2 -0.5 3t-3.5 0
q-82 -57 -171 -57q-100 0 -156 65q-55 65 -55 172q0 84 35 171q0 5 -1 5q-82 28 -124 79q-34 40 -34 91q0 43 24.5 78.5t63.5 49.5q12 4 18 4q25 0 25 -22q0 -17 -17 -28q-53 -35 -53 -77q0 -33 35 -62t93 -44q3 -2 5 3q70 125 178.5 191t211.5 66q107 0 144 -59
q15 -26 15 -54q3 -88 -118 -166.5t-292 -75.5q-31 0 -63 3q-5 0 -6 -4q-27 -71 -27 -136q0 -72 29.5 -116.5t82.5 -44.5q66 0 133.5 46.5t116.5 126.5q25 41 57 116l14 32q11 26 40 26h63q19 0 19 -19l-2 -8l-173 -386q-1 -1 -0.5 -2t1.5 -1q54 14 81 28q74 38 138 149
q9 13 22 13q12 0 19.5 -8.5t7.5 -22.5q0 -16 -10 -32q-38 -64 -69 -99.5t-77 -61.5q-55 -30 -148 -50q-1 -1 -5 -4q-43 -97 -91 -141q-56 -48 -132 -48q-49 0 -79 23t-30 65zM667 667q0 12 -8 22q-16 22 -58 22q-68 0 -152.5 -57t-141.5 -155q-2 -2 1 -2q87 -2 174 27
t137.5 69.5t47.5 73.5zM447 -64q0 1 -1 2t-2 0q-54 -10 -80 -18.5t-43 -25.5q-16 -16 -16 -33q0 -12 9.5 -20t24.5 -8q60 0 108 103z" />
    <glyph glyph-name="gbreve" unicode="&#x11f;" horiz-adv-x="551" 
d="M254 537q-32 35 -32 89q0 14 8.5 23t21.5 9t21.5 -9.5t8.5 -22.5q0 -31 15 -46q17 -17 50 -17q69 0 104 77q7 18 27 18q14 0 22 -8.5t8 -21.5q0 -6 -2 -12q-50 -113 -159 -113q-59 0 -93 34zM-48 -140q0 94 156 137q3 1 1 2q-1 1 -2 1q-97 -5 -122 90q-5 22 -5 48
q0 47 19 103q32 93 107.5 153.5t144.5 58.5h14q60 -5 93 -51q1 -1 4 3l9 20q11 26 40 26h63q19 0 19 -19q0 -2 -2 -8q-86 -194 -167 -372q0 -1 0.5 -2t1.5 0q52 12 80 28q73 34 139 148q8 14 22 14q12 0 19.5 -8.5t7.5 -22.5q0 -16 -10 -32q-37 -64 -68.5 -100t-77.5 -62
q-48 -26 -148 -50q-5 0 -6 -4q-42 -95 -92.5 -141.5t-127.5 -46.5q-52 0 -82 24.5t-30 62.5zM278 218l17 38q4 10 20 46q4 9 4 22q0 41 -46 41q-37 0 -77 -27q-70 -48 -105 -134q-15 -41 -15 -71q0 -52 47 -52q84 0 155 137zM154 -64q2 3 -2 3q-12 -3 -30 -6l-23 -5
q-45 -11 -67 -30q-19 -18 -19 -36q0 -12 9.5 -20.5t24.5 -8.5q62 0 107 103z" />
    <glyph glyph-name="Gdotaccent" unicode="&#x120;" horiz-adv-x="843" 
d="M541 902q0 20 14 34t34 14t34 -14t14 -34t-14 -34t-34 -14t-34 14t-14 34zM245 -140q0 67 60 100t145 54l27 7q5 1 8 5l25 57q1 2 -0.5 3t-3.5 0q-82 -57 -171 -57q-100 0 -156 65q-55 65 -55 172q0 84 35 171q0 5 -1 5q-82 28 -124 79q-34 40 -34 91q0 43 24.5 78.5
t63.5 49.5q12 4 18 4q25 0 25 -22q0 -17 -17 -28q-53 -35 -53 -77q0 -33 35 -62t93 -44q3 -2 5 3q70 125 178.5 191t211.5 66q107 0 144 -59q15 -26 15 -54q3 -88 -118 -166.5t-292 -75.5q-31 0 -63 3q-5 0 -6 -4q-27 -71 -27 -136q0 -72 29.5 -116.5t82.5 -44.5
q66 0 133.5 46.5t116.5 126.5q25 41 57 116l14 32q11 26 40 26h63q19 0 19 -19l-2 -8l-173 -386q-1 -1 -0.5 -2t1.5 -1q54 14 81 28q74 38 138 149q9 13 22 13q12 0 19.5 -8.5t7.5 -22.5q0 -16 -10 -32q-38 -64 -69 -99.5t-77 -61.5q-55 -30 -148 -50q-1 -1 -5 -4
q-43 -97 -91 -141q-56 -48 -132 -48q-49 0 -79 23t-30 65zM667 667q0 12 -8 22q-16 22 -58 22q-68 0 -152.5 -57t-141.5 -155q-2 -2 1 -2q87 -2 174 27t137.5 69.5t47.5 73.5zM447 -64q0 1 -1 2t-2 0q-54 -10 -80 -18.5t-43 -25.5q-16 -16 -16 -33q0 -12 9.5 -20t24.5 -8
q60 0 108 103z" />
    <glyph glyph-name="gdotaccent" unicode="&#x121;" horiz-adv-x="551" 
d="M287 586q0 20 14.5 34t34.5 14t34 -14t14 -34t-14 -34t-34 -14t-34.5 14t-14.5 34zM-48 -140q0 94 156 137q3 1 1 2q-1 1 -2 1q-97 -5 -122 90q-5 22 -5 48q0 47 19 103q32 93 107.5 153.5t144.5 58.5h14q60 -5 93 -51q1 -1 4 3l9 20q11 26 40 26h63q19 0 19 -19
q0 -2 -2 -8q-86 -194 -167 -372q0 -1 0.5 -2t1.5 0q52 12 80 28q73 34 139 148q8 14 22 14q12 0 19.5 -8.5t7.5 -22.5q0 -16 -10 -32q-37 -64 -68.5 -100t-77.5 -62q-48 -26 -148 -50q-5 0 -6 -4q-42 -95 -92.5 -141.5t-127.5 -46.5q-52 0 -82 24.5t-30 62.5zM278 218l17 38
q4 10 20 46q4 9 4 22q0 41 -46 41q-37 0 -77 -27q-70 -48 -105 -134q-15 -41 -15 -71q0 -52 47 -52q84 0 155 137zM154 -64q2 3 -2 3q-12 -3 -30 -6l-23 -5q-45 -11 -67 -30q-19 -18 -19 -36q0 -12 9.5 -20.5t24.5 -8.5q62 0 107 103z" />
    <glyph glyph-name="uni0122" unicode="&#x122;" horiz-adv-x="843" 
d="M245 -140q0 67 60 100t145 54l27 7q5 1 8 5l25 57q1 2 -0.5 3t-3.5 0q-82 -57 -171 -57q-100 0 -156 65q-55 65 -55 172q0 84 35 171q0 5 -1 5q-82 28 -124 79q-34 40 -34 91q0 43 24.5 78.5t63.5 49.5q12 4 18 4q25 0 25 -22q0 -17 -17 -28q-53 -35 -53 -77
q0 -33 35 -62t93 -44q3 -2 5 3q70 125 178.5 191t211.5 66q107 0 144 -59q15 -26 15 -54q3 -88 -118 -166.5t-292 -75.5q-31 0 -63 3q-5 0 -6 -4q-27 -71 -27 -136q0 -72 29.5 -116.5t82.5 -44.5q66 0 133.5 46.5t116.5 126.5q25 41 57 116l14 32q11 26 40 26h63
q19 0 19 -19l-2 -8l-173 -386q-1 -1 -0.5 -2t1.5 -1q54 14 81 28q74 38 138 149q9 13 22 13q12 0 19.5 -8.5t7.5 -22.5q0 -16 -10 -32q-38 -64 -69 -99.5t-77 -61.5q-55 -30 -148 -50q-1 -1 -5 -4q-43 -97 -91 -141q-56 -48 -132 -48q-49 0 -79 23t-30 65zM667 667
q0 12 -8 22q-16 22 -58 22q-68 0 -152.5 -57t-141.5 -155q-2 -2 1 -2q87 -2 174 27t137.5 69.5t47.5 73.5zM447 -64q0 1 -1 2t-2 0q-54 -10 -80 -18.5t-43 -25.5q-16 -16 -16 -33q0 -12 9.5 -20t24.5 -8q60 0 108 103zM260 -416q0 13 14 22q26 15 46 38q3 3 3 6q0 1 -5 9
q-17 14 -17 34q0 19 13.5 32.5t33.5 13.5q19 0 32 -13.5t13 -37.5q0 -37 -34 -72t-67 -48l-12 -2q-20 0 -20 18z" />
    <glyph glyph-name="uni0123" unicode="&#x123;" horiz-adv-x="551" 
d="M263 553q0 37 33.5 72t66.5 48q3 0 6 0.5t4.5 1t2.5 0.5q19 0 19 -18q0 -14 -14 -22q-33 -21 -45 -38q-3 -1 -3 -6q0 -4 5 -9q16 -13 16 -34q0 -19 -13 -32.5t-33 -13.5t-32.5 13.5t-12.5 37.5zM-48 -140q0 94 156 137q3 1 1 2q-1 1 -2 1q-97 -5 -122 90q-5 22 -5 48
q0 47 19 103q32 93 107.5 153.5t144.5 58.5h14q60 -5 93 -51q1 -1 4 3l9 20q11 26 40 26h63q19 0 19 -19q0 -2 -2 -8q-86 -194 -167 -372q0 -1 0.5 -2t1.5 0q52 12 80 28q73 34 139 148q8 14 22 14q12 0 19.5 -8.5t7.5 -22.5q0 -16 -10 -32q-37 -64 -68.5 -100t-77.5 -62
q-48 -26 -148 -50q-5 0 -6 -4q-42 -95 -92.5 -141.5t-127.5 -46.5q-52 0 -82 24.5t-30 62.5zM278 218l17 38q4 10 20 46q4 9 4 22q0 41 -46 41q-37 0 -77 -27q-70 -48 -105 -134q-15 -41 -15 -71q0 -52 47 -52q84 0 155 137zM154 -64q2 3 -2 3q-12 -3 -30 -6l-23 -5
q-45 -11 -67 -30q-19 -18 -19 -36q0 -12 9.5 -20.5t24.5 -8.5q62 0 107 103z" />
    <glyph glyph-name="Hcircumflex" unicode="&#x124;" horiz-adv-x="955" 
d="M711 830q-5 7 -5 17q0 16 12 25l153 110q7 6 18 6q16 0 25 -14l68 -109q5 -8 5 -16q0 -16 -14 -25q-8 -5 -16 -5q-17 0 -26 14l-49 79q-2 2 -5 1l-124 -90q-7 -6 -17 -6q-15 0 -25 13zM595 -79q0 91 50 202l54 123q1 1 0 2.5t-2 1.5l-229 8q-2 2 -5 -2
q-59 -118 -129 -189q-71 -71 -171 -71q-73 0 -118 43t-45 106q0 68 52 118.5t122 50.5q33 0 33 -25q0 -10 -8 -19t-20 -11q-46 -9 -71.5 -35t-25.5 -58q0 -31 20.5 -51.5t52.5 -20.5q94 0 187 166q2 2 -2 4l-30 1q-12 0 -20 8t-8 19t8 18.5t20 8.5l60 2q3 1 6 4q2 6 13 27
q82 169 141 256q1 1 0 2.5t-3 1.5l-39 16q-85 33 -128 45.5t-82 12.5q-74 0 -131 -28q-58 -28 -73 -82q-5 -18 -5 -34q0 -37 23.5 -59.5t56.5 -22.5q41 0 61 32q12 18 28 18q10 0 17.5 -7.5t7.5 -17.5q0 -8 -4 -15q-31 -70 -111 -70q-55 0 -97 39.5t-42 102.5q0 16 5 44
q19 80 89.5 133t168.5 53q68 0 128 -23q65 -25 138 -65l32 -17q4 -2 5 2q71 80 129 80q43 0 62 -37q9 -13 9 -34q0 -38 -38 -66.5t-92 -28.5q-23 0 -38 4q-2 0 -5 -3q-23 -43 -65 -151q-32 -84 -40 -103q-1 -1 0 -2.5t2 -1.5l236 9q4 0 5 4l124 278q27 62 62 90t91 28
q10 0 15.5 -9t1.5 -18l-267 -600q-63 -149 -63 -217q0 -58 42 -61q14 -1 22.5 -9t8.5 -18q0 -13 -12 -21.5t-33 -8.5q-137 0 -137 148zM714 683q-5 8 -13 8q-26 0 -57 -41q-1 -1 -0.5 -2t1.5 -1q4 -1 17 -1q26 0 42 13t10 24z" />
    <glyph glyph-name="hcircumflex" unicode="&#x125;" 
d="M216 831q-6 7 -6 17q0 16 13 25l153 110q7 5 17 5q17 0 26 -14l68 -108q4 -7 4 -16q0 -17 -14 -25q-8 -5 -16 -5q-17 0 -25 14l-49 78q-3 3 -5 1l-124 -89q-9 -6 -18 -6q-15 0 -24 13zM215 104q0 22 11 58q20 54 41 102l16 39q11 27 11 44q0 28 -29 28q-45 0 -89 -53
q-42 -51 -70 -113l-81 -182q-12 -27 -41 -27h-62q-10 0 -15.5 8.5t-1.5 17.5l146 330q63 145 144 278q80 131 147 131q12 0 26 -6q28 -16 28 -56t-28 -92q-29 -55 -120 -164q-3 -3 1 -3q18 6 41 6q49 0 79.5 -29t30.5 -81q0 -40 -18 -86l-17 -43q-25 -54 -35 -88
q-3 -6 -3 -12q0 -13 10 -21t25 -8q18 0 34 10q55 28 117 134q8 14 22 14q12 0 19.5 -8.5t7.5 -22.5t-9 -32l-34 -57q-80 -119 -182 -120h-4q-53 0 -85.5 28t-32.5 76zM314 638q11 20 17.5 40t0.5 20q-7 0 -36 -41q-34 -51 -65 -131q-1 -2 0.5 -2t2.5 1q51 62 80 113z" />
    <glyph glyph-name="Hbar" unicode="&#x126;" horiz-adv-x="965" 
d="M595 -79q0 91 50 202l54 123q1 1 0 2.5t-2 1.5l-229 8q-2 2 -5 -2q-59 -118 -129 -189q-71 -71 -171 -71q-73 0 -118 43t-45 106q0 68 52 118.5t122 50.5q33 0 33 -25q0 -10 -8 -19t-20 -11q-46 -9 -71.5 -35t-25.5 -58q0 -31 20.5 -51.5t52.5 -20.5q94 0 187 166
q2 2 -2 4l-30 1q-12 0 -20 8t-8 19t8 18.5t20 8.5l60 2q3 1 6 4l13 26q38 79 46 94q1 1 0 2t-2 1h-60q-12 1 -20.5 9t-8.5 19q0 13 9 21t22 8h88q3 0 6 3q28 52 61 100q1 1 0 2.5t-3 1.5l-39 16q-85 33 -128 45.5t-82 12.5q-74 0 -131 -28q-58 -28 -73 -82q-5 -18 -5 -34
q0 -37 23.5 -59.5t56.5 -22.5q41 0 61 32q12 18 28 18q10 0 17.5 -7.5t7.5 -17.5q0 -8 -4 -15q-31 -70 -111 -70q-55 0 -97 39.5t-42 102.5q0 16 5 44q19 80 89.5 133t168.5 53q68 0 128 -23q65 -25 138 -65l32 -17q4 -2 5 2q71 80 129 80q43 0 62 -37q9 -13 9 -34
q0 -38 -38 -66.5t-92 -28.5q-23 0 -38 4q-2 0 -5 -3q-19 -35 -36 -76q0 -3 3 -3h241q4 0 6 3l48 109q27 62 62 90t91 28q10 0 15.5 -9t1.5 -18l-89 -200q-1 -1 0 -2t2 -1h69q13 0 21 -8t8 -20t-8 -20q-9 -9 -22 -9h-93q-4 0 -5 -3l-150 -337q-63 -149 -63 -217q0 -58 42 -61
q14 -1 22.5 -9t8.5 -18q0 -13 -12 -21.5t-33 -8.5q-137 0 -137 148zM662 646q26 0 42 13t10 24q-5 8 -13 8q-26 0 -57 -41q-1 -1 -0.5 -2t1.5 -1q4 -1 17 -1zM499 326l236 9q4 0 5 4l47 106q1 3 -2 3h-238q-5 0 -5 -3q-12 -35 -45 -115q-1 -1 0 -2.5t2 -1.5z" />
    <glyph glyph-name="hbar" unicode="&#x127;" 
d="M215 104q0 22 11 58q20 54 41 102l16 39q11 27 11 44q0 28 -29 28q-45 0 -89 -53q-42 -51 -70 -113l-81 -182q-12 -27 -41 -27h-62q-10 0 -15.5 8.5t-1.5 17.5l146 330q50 107 52 112q0 3 -2 3h-63q-12 0 -20.5 8.5t-8.5 19.5q0 12 9 20.5t22 8.5h90q4 0 5 3
q55 102 108 167q54 67 99 67q12 0 26 -6q28 -16 28 -56t-28 -92q-17 -30 -53 -80q-1 -1 -0.5 -2t1.5 -1h69q12 0 20.5 -8.5t8.5 -19.5q0 -13 -9 -20q-7 -9 -22 -9h-112q-3 0 -6 -3q-14 -15 -17 -21q-3 -3 1 -3q18 6 41 6q49 0 79.5 -29t30.5 -81q0 -40 -18 -86l-17 -43
q-25 -54 -35 -88q-3 -6 -3 -12q0 -13 10 -21t25 -8q18 0 34 10q55 28 117 134q8 14 22 14q12 0 19.5 -8.5t7.5 -22.5t-9 -32l-34 -57q-80 -119 -182 -120h-4q-53 0 -85.5 28t-32.5 76zM237 530q55 66 77 108q11 20 17.5 40t0.5 20q-7 0 -36 -41q-25 -35 -64 -127q0 -2 2 -2
q3 0 3 2z" />
    <glyph glyph-name="Itilde" unicode="&#x128;" horiz-adv-x="605" 
d="M460 861q-11 9 -11 23q0 11 8 19q37 45 81 45q27 0 64 -20q23 -14 37 -14q17 0 39 22q7 10 21 10q12 0 21 -9t9 -21q0 -13 -8 -21q-41 -41 -81 -41q-28 0 -66 21l-7 4q-7 4 -15 7t-13 3q-16 0 -37 -25q-9 -10 -23 -10q-12 0 -19 7zM0 145q0 68 52 118.5t122 50.5
q33 0 33 -25q0 -10 -8 -19t-20 -11q-46 -9 -71.5 -35t-25.5 -58q0 -31 20.5 -51.5t52.5 -20.5q94 0 191 175l42 83q88 181 146 263q2 2 0 4q-24 15 -29 19q-45 29 -67 39t-44 10q-20 0 -32.5 -13t-12.5 -32q0 -27 22 -43q14 -11 14 -25q0 -10 -8 -17t-19 -7q-8 0 -15 4
q-61 28 -61 94q0 47 34.5 85t84.5 38q33 0 62.5 -15t74.5 -50l40 -30q3 -1 5 1q47 51 87 66q18 6 33 6q31 0 51.5 -20.5t20.5 -50.5q0 -48 -50 -75q-37 -22 -91 -19q-14 0 -27 3q-3 0 -5 -3q-21 -35 -56 -139l-42 -111q-11 -31 -40 -94q-57 -122 -128.5 -183t-172.5 -61
q-73 0 -118 43t-45 106zM714 683q-5 8 -13 8q-26 0 -57 -41q-1 -1 -0.5 -2t1.5 -1q4 -1 17 -1q26 0 42 13t10 24z" />
    <glyph glyph-name="itilde" unicode="&#x129;" horiz-adv-x="262" 
d="M42 546q-10 9 -10 23q0 12 7 19q37 45 81 45q27 0 64 -20q23 -14 37 -14q17 0 39 22q10 10 21 10q12 0 21 -9t9 -22q0 -12 -8 -20q-41 -41 -81 -41q-28 0 -66 21l-7 4q-7 4 -15 7t-13 3q-16 0 -37 -25q-9 -10 -22 -10t-20 7zM-45 104q0 19 8 43q21 59 40 103l77 174
q12 27 41 27h63q10 0 15.5 -8.5t1.5 -18.5q-83 -180 -120 -276q-11 -27 -11 -37q0 -13 11 -21t25 -8q17 0 33 10q55 28 117 134q8 14 22 14q12 0 19.5 -8.5t7.5 -22.5q0 -16 -10 -32q-15 -29 -33 -57q-82 -120 -184 -120q-57 0 -90 29t-33 75z" />
    <glyph glyph-name="Imacron" unicode="&#x12a;" horiz-adv-x="650" 
d="M356 872q0 5 2 7l6 11q15 25 51 25h381q10 0 17 -5t7 -12q0 -5 -2 -7l-6 -11q-15 -25 -51 -25h-382q-10 0 -16.5 5t-6.5 12zM0 145q0 68 52 118.5t122 50.5q33 0 33 -25q0 -10 -8 -19t-20 -11q-46 -9 -71.5 -35t-25.5 -58q0 -31 20.5 -51.5t52.5 -20.5q94 0 191 175
l42 83q88 181 146 263q2 2 0 4q-24 15 -29 19q-45 29 -67 39t-44 10q-20 0 -32.5 -13t-12.5 -32q0 -27 22 -43q14 -11 14 -25q0 -10 -8 -17t-19 -7q-8 0 -15 4q-61 28 -61 94q0 47 34.5 85t84.5 38q33 0 62.5 -15t74.5 -50l40 -30q3 -1 5 1q47 51 87 66q18 6 33 6
q31 0 51.5 -20.5t20.5 -50.5q0 -48 -50 -75q-37 -22 -91 -19q-14 0 -27 3q-3 0 -5 -3q-21 -35 -56 -139l-42 -111q-11 -31 -40 -94q-57 -122 -128.5 -183t-172.5 -61q-73 0 -118 43t-45 106zM714 683q-5 8 -13 8q-26 0 -57 -41q-1 -1 -0.5 -2t1.5 -1q4 -1 17 -1q26 0 42 13
t10 24z" />
    <glyph glyph-name="imacron" unicode="&#x12b;" horiz-adv-x="261" 
d="M-7 557q0 5 2 7l6 11q15 25 51 25h290q10 0 16.5 -5t6.5 -12q0 -6 -1 -7l-7 -11q-15 -25 -51 -25h-290q-10 0 -16.5 5t-6.5 12zM-45 104q0 19 8 43q21 59 40 103l77 174q12 27 41 27h63q10 0 15.5 -8.5t1.5 -18.5q-83 -180 -120 -276q-11 -27 -11 -37q0 -13 11 -21t25 -8
q17 0 33 10q55 28 117 134q8 14 22 14q12 0 19.5 -8.5t7.5 -22.5q0 -16 -10 -32q-15 -29 -33 -57q-82 -120 -184 -120q-57 0 -90 29t-33 75z" />
    <glyph glyph-name="Ibreve" unicode="&#x12c;" horiz-adv-x="605" 
d="M490 852q-33 33 -33 89q0 14 8.5 23t21.5 9t21.5 -9.5t8.5 -22.5q0 -31 15 -46q17 -17 50 -17q71 0 104 77q8 18 28 18q13 0 21.5 -9t8.5 -21q0 -6 -3 -12q-50 -113 -159 -113q-58 0 -92 34zM0 145q0 68 52 118.5t122 50.5q33 0 33 -25q0 -10 -8 -19t-20 -11
q-46 -9 -71.5 -35t-25.5 -58q0 -31 20.5 -51.5t52.5 -20.5q94 0 191 175l42 83q88 181 146 263q2 2 0 4q-24 15 -29 19q-45 29 -67 39t-44 10q-20 0 -32.5 -13t-12.5 -32q0 -27 22 -43q14 -11 14 -25q0 -10 -8 -17t-19 -7q-8 0 -15 4q-61 28 -61 94q0 47 34.5 85t84.5 38
q33 0 62.5 -15t74.5 -50l40 -30q3 -1 5 1q47 51 87 66q18 6 33 6q31 0 51.5 -20.5t20.5 -50.5q0 -48 -50 -75q-37 -22 -91 -19q-14 0 -27 3q-3 0 -5 -3q-21 -35 -56 -139l-42 -111q-11 -31 -40 -94q-57 -122 -128.5 -183t-172.5 -61q-73 0 -118 43t-45 106zM714 683
q-5 8 -13 8q-26 0 -57 -41q-1 -1 -0.5 -2t1.5 -1q4 -1 17 -1q26 0 42 13t10 24z" />
    <glyph glyph-name="ibreve" unicode="&#x12d;" horiz-adv-x="262" 
d="M76 537q-33 33 -33 89q0 14 8.5 23t21.5 9t21.5 -9.5t8.5 -22.5q0 -31 15 -46q17 -17 50 -17q71 0 104 77q8 18 28 18q13 0 21.5 -9t8.5 -21q0 -6 -3 -12q-50 -113 -159 -113q-58 0 -92 34zM-45 104q0 19 8 43q21 59 40 103l77 174q12 27 41 27h63q10 0 15.5 -8.5
t1.5 -18.5q-83 -180 -120 -276q-11 -27 -11 -37q0 -13 11 -21t25 -8q17 0 33 10q55 28 117 134q8 14 22 14q12 0 19.5 -8.5t7.5 -22.5q0 -16 -10 -32q-15 -29 -33 -57q-82 -120 -184 -120q-57 0 -90 29t-33 75z" />
    <glyph glyph-name="Iogonek" unicode="&#x12e;" horiz-adv-x="605" 
d="M89 -186q-26 11 -42 34t-16 51q0 56 68 107q-47 16 -73 53t-26 86q0 68 52 118.5t122 50.5q33 0 33 -25q0 -10 -8 -19t-20 -11q-46 -9 -71.5 -35t-25.5 -58q0 -31 20.5 -51.5t52.5 -20.5q94 0 191 175l42 83q88 181 146 263q2 2 0 4q-24 15 -29 19q-45 29 -67 39t-44 10
q-20 0 -32.5 -13t-12.5 -32q0 -27 22 -43q14 -11 14 -25q0 -10 -8 -17t-19 -7q-8 0 -15 4q-61 28 -61 94q0 47 34.5 85t84.5 38q33 0 62.5 -15t74.5 -50l40 -30q3 -1 5 1q47 51 87 66q18 6 33 6q31 0 51.5 -20.5t20.5 -50.5q0 -48 -50 -75q-37 -22 -91 -19q-14 0 -27 3
q-3 0 -5 -3q-21 -35 -56 -139l-42 -111q-11 -31 -40 -94q-56 -118 -124.5 -179t-164.5 -65q-84 -55 -84 -97q0 -19 21 -30q8 -3 17 -3q24 0 49 19q8 6 18 6q14 0 24 -13q6 -8 6 -17q0 -16 -12 -25q-41 -30 -85 -30q-22 0 -40 8zM714 683q-5 8 -13 8q-26 0 -57 -41
q-1 -1 -0.5 -2t1.5 -1q4 -1 17 -1q26 0 42 13t10 24z" />
    <glyph glyph-name="iogonek" unicode="&#x12f;" horiz-adv-x="265" 
d="M148 579q0 25 17.5 42t41.5 17q25 0 42 -17t17 -42t-17 -42t-42 -17q-24 0 -41.5 17t-17.5 42zM5 -204q-27 10 -42.5 33t-15.5 52q0 63 89 122q0 1 -1 2q-77 24 -77 99q0 22 8 43q21 59 40 103l77 174q12 27 41 27h63q10 0 15 -8.5t1 -18.5l-56 -126q-45 -102 -63 -150
q-11 -27 -11 -37q0 -13 11 -21t24 -8q18 0 34 10q58 31 117 134q8 14 22 14q10 0 18 -8.5t8 -22.5q0 -17 -9 -32q-12 -23 -34 -57q-52 -79 -114 -106q-60 -32 -101 -66q-42 -36 -42 -67q0 -19 21 -30q7 -3 17 -3q24 0 49 19q8 6 18 6q14 0 24 -13q6 -8 6 -17q0 -16 -12 -25
q-42 -30 -85 -30q-22 0 -40 8z" />
    <glyph glyph-name="Idot" unicode="&#x130;" horiz-adv-x="605" 
d="M545 902q0 20 14 34t34 14t34.5 -14t14.5 -34t-14.5 -34t-34.5 -14t-34 14t-14 34zM0 145q0 68 52 118.5t122 50.5q33 0 33 -25q0 -10 -8 -19t-20 -11q-46 -9 -71.5 -35t-25.5 -58q0 -31 20.5 -51.5t52.5 -20.5q94 0 191 175l42 83q88 181 146 263q2 2 0 4q-24 15 -29 19
q-45 29 -67 39t-44 10q-20 0 -32.5 -13t-12.5 -32q0 -27 22 -43q14 -11 14 -25q0 -10 -8 -17t-19 -7q-8 0 -15 4q-61 28 -61 94q0 47 34.5 85t84.5 38q33 0 62.5 -15t74.5 -50l40 -30q3 -1 5 1q47 51 87 66q18 6 33 6q31 0 51.5 -20.5t20.5 -50.5q0 -48 -50 -75
q-37 -22 -91 -19q-14 0 -27 3q-3 0 -5 -3q-21 -35 -56 -139l-42 -111q-11 -31 -40 -94q-57 -122 -128.5 -183t-172.5 -61q-73 0 -118 43t-45 106zM714 683q-5 8 -13 8q-26 0 -57 -41q-1 -1 -0.5 -2t1.5 -1q4 -1 17 -1q26 0 42 13t10 24z" />
    <glyph glyph-name="dotlessi" unicode="&#x131;" horiz-adv-x="262" 
d="M-45 104q0 19 8 43q21 59 40 103l77 174q12 27 41 27h63q10 0 15.5 -8.5t1.5 -18.5q-83 -180 -120 -276q-11 -27 -11 -37q0 -13 11 -21t25 -8q17 0 33 10q55 28 117 134q8 14 22 14q12 0 19.5 -8.5t7.5 -22.5q0 -16 -10 -32q-15 -29 -33 -57q-82 -120 -184 -120
q-57 0 -90 29t-33 75z" />
    <glyph glyph-name="Jcircumflex" unicode="&#x134;" horiz-adv-x="764" 
d="M521 830q-6 8 -6 17q0 15 13 25l153 110q7 6 18 6q16 0 25 -14l68 -109q5 -8 5 -16q0 -16 -15 -25q-8 -5 -15 -5q-17 0 -26 14l-49 79q-2 2 -5 1l-124 -90q-7 -6 -17 -6q-15 0 -25 13zM0 -81q0 66 50 118q60 60 169 60q46 0 124 -12q6 -1 27 -4q4 0 5 4q37 68 89 178
q61 123 105 208q40 79 79 135q2 4 -2 5q-52 22 -65 28q-66 27 -96 37t-57 10q-35 0 -56 -18.5t-21 -44.5q0 -23 17 -39t39 -16q16 0 27 8q10 6 21 6t18.5 -7t7.5 -17q0 -15 -19 -30q-30 -21 -68 -21q-50 0 -87.5 33.5t-37.5 87.5q0 63 45.5 103.5t111.5 40.5
q40 0 79.5 -14.5t113.5 -51.5q36 -20 72 -36q3 -2 7 2q49 55 91 71q18 6 33 6q30 0 51 -20.5t21 -50.5q0 -48 -50 -75q-38 -20 -80 -20q-22 0 -37 4q-3 0 -5 -2q-22 -36 -66 -153l-39 -100l-59 -143q-19 -46 -53 -115q-1 -1 0 -2t2 -1q91 3 150 41q58 38 101 114q9 14 23 14
q10 0 18 -8.5t8 -22.5q0 -16 -10 -32q-45 -79 -108 -121q-92 -62 -224 -63q-5 0 -6 -3q-66 -112 -134 -165t-162 -53q-76 0 -119.5 42.5t-43.5 104.5zM833 683q-5 8 -13 8q-26 0 -57 -41q-1 -1 0 -2t2 -1q3 -1 16 -1q26 0 42 13t10 24zM326 -1q2 2 -2 2l-26 3q-70 8 -102 8
q-25 0 -32 -1q-47 -5 -73 -28t-26 -54q0 -29 22 -49t56 -20q44 0 92 35t91 104z" />
    <glyph glyph-name="jcircumflex" unicode="&#x135;" horiz-adv-x="263" 
d="M31 515q-6 7 -6 17q0 16 12 25l154 110q7 6 17 6q15 0 26 -14l67 -109q5 -7 5 -16q0 -16 -14 -25q-8 -5 -16 -5q-17 0 -25 14l-49 79q-1 1 -2.5 1t-2.5 -1l-124 -89q-9 -6 -18 -6q-14 0 -24 13zM-335 -140q0 46 33 78q30 28 68 43.5t103 32.5l14 4t11 3l3 1q7 2 8 5
l108 242l70 155q12 27 41 27h62q11 0 16 -8.5t1 -18.5l-166 -372q1 -1 1 -2q46 10 81 28q74 38 138 148q8 14 22 14q12 0 19.5 -8.5t7.5 -22.5q0 -16 -10 -32q-37 -64 -68.5 -100t-77.5 -62q-48 -26 -148 -50q-4 0 -5 -3q-40 -91 -91 -140q-49 -49 -135 -49q-49 0 -77.5 24
t-28.5 63zM-133 -64q0 3 -3 3q-12 -3 -30 -6l-23 -5q-48 -12 -70 -34q-16 -16 -16 -32q0 -13 9.5 -21t25.5 -8q58 0 107 103z" />
    <glyph glyph-name="uni0136" unicode="&#x136;" horiz-adv-x="850" 
d="M561 -100q0 26 9 80l6 46q6 37 6 68q0 131 -114 162q-4 0 -6 -2q-58 -117 -129 -187q-71 -71 -170 -71q-73 0 -118 43t-45 106q0 68 52 118.5t122 50.5q33 0 33 -25q0 -10 -8 -19t-20 -11q-46 -9 -71.5 -35t-25.5 -58q0 -31 20.5 -51.5t52.5 -20.5q93 0 191 173l22 42
l21 43q85 174 140 256q2 2 -2 4l-39 16q-85 33 -128 45.5t-82 12.5q-68 0 -121.5 -24t-76.5 -68q-11 -28 -11 -53q0 -36 23.5 -58.5t56.5 -22.5q41 0 61 32q12 18 28 18q10 0 17.5 -7.5t7.5 -17.5q0 -8 -4 -15q-31 -70 -111 -70q-55 0 -97 39t-42 101q0 40 17.5 82t48.5 73
q75 77 197 77q68 0 128 -23q65 -25 138 -65l32 -17q3 -1 5 1q43 49 82 69q25 12 46 12q31 0 51.5 -20.5t20.5 -50.5q0 -46 -50 -75q-38 -20 -81 -20q-21 0 -36 4q-4 0 -6 -3q-21 -38 -65 -151q-19 -56 -37 -97q0 -1 2 -3q75 7 125 33q49 27 87 71q39 45 94 130
q95 144 158 165q8 2 15 2q29 0 29 -26q0 -20 -20 -28q-25 -9 -44 -36t-49 -89q-76 -155 -131.5 -210t-159.5 -74q-4 0 -1 -3q99 -68 99 -211q0 -66 -19 -139l-5 -22q-5 -23 -5 -33q0 -30 30 -30q14 0 22 -8.5t8 -20.5q0 -13 -9 -22t-23 -9q-79 0 -110.5 27t-31.5 100z
M714 683q-5 8 -13 8q-26 0 -57 -41q-1 -1 -0.5 -2t1.5 -1q4 -1 17 -1q26 0 42 13t10 24zM309 -209q0 13 13 22q26 15 46 38q3 3 3 6q0 4 -5 9q-16 13 -16 34q0 19 13 32.5t33 13.5t32.5 -13.5t12.5 -37.5q0 -37 -33.5 -72t-66.5 -48q-3 0 -6 -0.5t-4.5 -1t-2.5 -0.5
q-9 0 -14 5.5t-5 12.5z" />
    <glyph glyph-name="uni0137" unicode="&#x137;" horiz-adv-x="480" 
d="M92 166q-1 2 -2.5 2t-2.5 -2l-62 -139q-12 -27 -41 -27h-62q-10 0 -15.5 8.5t-1.5 17.5l146 330q63 145 144 278q80 131 147 131q12 0 26 -6q28 -16 28 -56t-28 -92q-19 -36 -61 -91q-31 -40 -106 -128q0 -1 2 -3q47 27 88 27q71 0 95 -65q6 -18 6 -39
q0 -60 -50.5 -107.5t-130.5 -50.5q-2 0 -2 -3q29 -77 88 -77q69 0 137 91q19 23 40 61q8 14 22 14q12 0 19.5 -8.5t7.5 -22.5q0 -16 -10 -32q-16 -29 -37 -60q-83 -117 -187 -117q-75 0 -120.5 40.5t-76.5 125.5zM314 638q11 20 17.5 40t0.5 20q-7 0 -36 -41
q-34 -51 -65 -131q-1 -2 0.5 -2t2.5 1q51 62 80 113zM257 252q39 24 39 56t-38 32q-31 0 -67.5 -27t-68.5 -79q-1 -1 0.5 -1.5t2.5 -0.5q26 -2 32 -2q60 0 100 22zM6 -194q0 13 13 22q26 15 46 38q3 3 3 6q0 1 -5 9q-17 14 -17 34q0 19 13.5 32.5t33.5 13.5q19 0 32 -13.5
t13 -37.5q0 -37 -34 -72t-67 -48l-12 -2q-19 0 -19 18z" />
    <glyph glyph-name="kgreenlandic" unicode="&#x138;" horiz-adv-x="480" 
d="M92 166q-1 2 -2.5 2t-2.5 -2l-62 -139q-12 -27 -41 -27h-62q-10 0 -15.5 8.5t-1.5 17.5q131 301 139 319q24 54 34 81l10 25q13 36 23 48.5t31 12.5h62q10 0 16 -8.5t2 -17.5l-43 -105q-2 -2 2 -2h2q60 37 108 37q71 0 95 -65q6 -18 6 -39q0 -60 -50.5 -107.5
t-130.5 -50.5q-2 0 -2 -3q29 -77 88 -77q69 0 137 91q19 23 40 61q8 14 22 14q12 0 19.5 -8.5t7.5 -22.5q0 -16 -10 -32q-16 -29 -37 -60q-83 -117 -187 -117q-75 0 -120.5 40.5t-76.5 125.5zM157 230q60 0 100 22q39 24 39 56t-38 32q-31 0 -67.5 -27t-68.5 -79
q-1 -1 0.5 -1.5t2.5 -0.5q26 -2 32 -2z" />
    <glyph glyph-name="Lacute" unicode="&#x139;" horiz-adv-x="713" 
d="M573 826q-9 9 -9 21q0 13 9 22l97 97q9 9 21 9q13 0 22 -9q8 -8 8 -21q0 -10 -8 -21l-98 -98q-9 -9 -21 -9t-21 9zM344 30q-37 18 -62 33q-3 1 -7 0q-77 -67 -153 -67q-42 0 -74 21t-43 55q-5 18 -5 31q0 47 36.5 82.5t94.5 35.5q49 0 112 -33q3 -2 6 1q45 68 68 151
l27 92q0 3 -2 3q-102 28 -148 86q-34 40 -34 91q0 43 24.5 78.5t63.5 49.5q8 4 18 4q25 0 25 -22q0 -17 -17 -28q-53 -35 -53 -77q0 -35 38.5 -64.5t105.5 -44.5q3 0 5 3q38 113 110 184q77 76 171 76q60 0 100.5 -33.5t40.5 -84.5q0 -44 -32.5 -91t-83.5 -81
q-97 -64 -221 -63q-3 0 -4 -4q-23 -89 -47 -159q-22 -63 -63 -120q-2 -2 1 -4q16 -9 41 -21q66 -28 129 -28q62 0 100 28q46 30 97 121q11 17 26 17q12 0 21 -8.5t9 -20.5q0 -8 -4 -15q-56 -106 -114 -155q-62 -53 -152 -53q-76 0 -151 34zM688 600q29 38 29 63q0 18 -14 29
t-36 11q-35 0 -73 -26q-84 -59 -118 -177q-2 -3 3 -3q61 1 117 29.5t92 73.5zM186 121q1 4 -1 5q-41 24 -72 24q-23 0 -38 -13t-15 -29q0 -13 10.5 -22t27.5 -9q39 0 88 44z" />
    <glyph glyph-name="lacute" unicode="&#x13a;" horiz-adv-x="296" 
d="M290 827q-9 9 -9 21q0 14 9 21l97 98q9 9 22 9q12 0 21 -9t9 -21t-9 -21l-97 -98q-9 -9 -22 -9q-12 0 -21 9zM-13 157q0 73 28 150q35 101 92 210q57 107 117 177q60 71 106 71q12 0 24 -6q28 -16 28 -56t-28 -92q-21 -39 -57 -85q-33 -44 -101 -125q-7 -7 -44 -52
q-3 -3 -4 -6q-5 -13 -10 -25.5l-8 -20t-5 -13t-2.5 -7t-0.5 -0.5q-26 -72 -26 -123q0 -72 46 -72q17 0 33 10q53 29 117 134q8 14 22 14q10 0 18 -8.5t8 -22.5t-9 -32l-34 -57q-82 -120 -183 -120q-62 0 -94.5 42t-32.5 115zM300 638q11 20 17.5 40t0.5 20q-7 0 -36 -41
q-27 -41 -65 -131l2 -1h1q51 62 80 113z" />
    <glyph glyph-name="uni013B" unicode="&#x13b;" horiz-adv-x="713" 
d="M344 30q-37 18 -62 33q-3 1 -7 0q-77 -67 -153 -67q-42 0 -74 21t-43 55q-5 18 -5 31q0 47 36.5 82.5t94.5 35.5q49 0 112 -33q3 -2 6 1q45 68 68 151l27 92q0 3 -2 3q-102 28 -148 86q-34 40 -34 91q0 43 24.5 78.5t63.5 49.5q8 4 18 4q25 0 25 -22q0 -17 -17 -28
q-53 -35 -53 -77q0 -35 38.5 -64.5t105.5 -44.5q3 0 5 3q38 113 110 184q77 76 171 76q60 0 100.5 -33.5t40.5 -84.5q0 -44 -32.5 -91t-83.5 -81q-97 -64 -221 -63q-3 0 -4 -4q-23 -89 -47 -159q-22 -63 -63 -120q-2 -2 1 -4q16 -9 41 -21q66 -28 129 -28q62 0 100 28
q46 30 97 121q11 17 26 17q12 0 21 -8.5t9 -20.5q0 -8 -4 -15q-56 -106 -114 -155q-62 -53 -152 -53q-76 0 -151 34zM688 600q29 38 29 63q0 18 -14 29t-36 11q-35 0 -73 -26q-84 -59 -118 -177q-2 -3 3 -3q61 1 117 29.5t92 73.5zM186 121q1 4 -1 5q-41 24 -72 24
q-23 0 -38 -13t-15 -29q0 -13 10.5 -22t27.5 -9q39 0 88 44zM199 -209q0 13 13 22q26 15 46 38q3 3 3 6q0 4 -5 9q-16 13 -16 34q0 19 13 32.5t33 13.5t32.5 -13.5t12.5 -37.5q0 -37 -33.5 -72t-66.5 -48q-3 0 -6 -0.5t-4.5 -1t-2.5 -0.5q-9 0 -14 5.5t-5 12.5z" />
    </font>
</defs>
</svg>
